<svg width="82" height="85" viewBox="0 0 82 85" fill="none" xmlns="http://www.w3.org/2000/svg">
<g clip-path="url(#clip0_867_21412)">
<path d="M44.8823 9.07682C11.5989 7.56394 7.90075 37.3173 8.06884 43.8731C8.06884 44.7136 3.02592 45.1338 2.01733 43.8731C0.000154197 41.3516 -0.580061 32.136 7.06028 20.6756C17.1462 5.54678 29.3323 -0.294745 47.4038 1.5124C62.5326 3.02529 76.1485 22.6928 78.1657 29.7529C80.1829 36.813 79.6786 42.3602 79.6786 43.8731C79.6786 45.386 72.6185 46.3946 73.1228 38.8302C73.6271 31.2657 67.1711 10.0899 44.8823 9.07682Z" fill="#E8E8E8"/>
<path d="M76.878 45.8083C75.6005 45.8074 74.3756 45.298 73.4723 44.3919C72.569 43.4857 72.0611 42.257 72.0603 40.9755C71.977 32.7268 68.6521 24.8443 62.808 19.0409C56.9638 13.2375 49.0727 9.98206 40.8494 9.98206C32.6261 9.98206 24.735 13.2375 18.8909 19.0409C13.0467 24.8443 9.72178 32.7268 9.63853 40.9755C9.60615 42.2361 9.0842 43.4342 8.18395 44.3143C7.28369 45.1944 6.07634 45.6869 4.81927 45.6869C3.5622 45.6869 2.35485 45.1944 1.45459 44.3143C0.554331 43.4342 0.0323793 42.2361 0 40.9755C0 30.108 4.3036 19.6856 11.964 12.0011C19.6245 4.31661 30.0143 -0.000488281 40.8478 -0.000488281C51.6813 -0.000488281 62.0711 4.31661 69.7316 12.0011C77.392 19.6856 81.6956 30.108 81.6956 40.9755C81.6939 42.2567 81.1858 43.485 80.2827 44.3909C79.3796 45.2969 78.1552 45.8066 76.878 45.8083ZM40.8478 7.09787C49.8015 7.10806 58.3855 10.6806 64.7168 17.0317C71.048 23.3827 74.6093 31.9937 74.6195 40.9755C74.6195 41.5764 74.8574 42.1526 75.281 42.5775C75.7045 43.0024 76.279 43.2411 76.878 43.2411C77.4769 43.2411 78.0514 43.0024 78.4749 42.5775C78.8985 42.1526 79.1364 41.5764 79.1364 40.9755C79.1364 30.7889 75.1025 21.0194 67.922 13.8164C60.7414 6.61336 51.0026 2.56673 40.8478 2.56673C30.693 2.56673 20.9542 6.61336 13.7737 13.8164C6.59315 21.0194 2.55919 30.7889 2.55919 40.9755C2.55919 41.5764 2.79713 42.1526 3.22068 42.5775C3.64423 43.0024 4.21868 43.2411 4.81767 43.2411C5.41665 43.2411 5.99111 43.0024 6.41466 42.5775C6.8382 42.1526 7.07615 41.5764 7.07615 40.9755C7.08631 31.9937 10.6476 23.3827 16.9789 17.0317C23.3101 10.6806 31.8941 7.10806 40.8478 7.09787Z" fill="black"/>
<path d="M20.8093 84.717C19.7267 84.7146 18.6746 84.3571 17.8134 83.6989C16.9523 83.0407 16.3293 82.118 16.0397 81.0716L10.0096 59.3337C9.65767 58.0622 9.82317 56.7026 10.4697 55.5534C11.1163 54.4042 12.1911 53.5594 13.4581 53.2044L18.4709 51.8053C19.7384 51.4532 21.0934 51.6196 22.2387 52.2681C23.3841 52.9165 24.2264 53.9941 24.5809 55.2646L30.611 77.0154C30.962 78.2864 30.796 79.6452 30.1495 80.7937C29.503 81.9421 28.4288 82.7864 27.1625 83.1414L22.1465 84.5405C21.711 84.6609 21.261 84.7203 20.8093 84.717ZM19.8049 54.1864C19.5886 54.1885 19.3736 54.2187 19.1651 54.2763L14.1523 55.6754C13.8477 55.7596 13.5628 55.9032 13.3136 56.0981C13.0645 56.2929 12.8561 56.5351 12.7004 56.8108C12.5447 57.0865 12.4448 57.3903 12.4063 57.7049C12.3678 58.0194 12.3914 58.3384 12.476 58.6437L18.5061 80.3849C18.59 80.6899 18.7331 80.9752 18.9272 81.2246C19.1213 81.474 19.3626 81.6825 19.6372 81.8382C19.9119 81.9938 20.2144 82.0935 20.5275 82.1316C20.8407 82.1696 21.1582 82.1453 21.4619 82.06L26.4747 80.6608C26.7789 80.5766 27.0636 80.4331 27.3124 80.2385C27.5613 80.0438 27.7695 79.8019 27.9252 79.5266C28.0809 79.2512 28.1809 78.9478 28.2197 78.6337C28.2584 78.3195 28.2351 78.0008 28.151 77.6957L22.1145 55.9546C21.9728 55.4487 21.6708 55.0029 21.2541 54.6844C20.8374 54.366 20.3287 54.1923 19.8049 54.1896V54.1864Z" fill="black"/>
<path d="M11.0654 82.2256C10.0994 82.2235 9.16067 81.9047 8.39203 81.3178C7.62338 80.731 7.06698 79.9083 6.80753 78.9749L3.19908 65.9174C2.88849 64.7847 3.03793 63.5746 3.6147 62.5522C4.19148 61.5297 5.14858 60.7782 6.2765 60.462L11.2605 59.0469C11.4225 59.0015 11.5917 58.9885 11.7587 59.0088C11.9256 59.0291 12.0869 59.0822 12.2334 59.165C12.3799 59.2479 12.5086 59.3589 12.6123 59.4917C12.716 59.6245 12.7925 59.7765 12.8376 59.939L18.1447 79.0744C18.2323 79.3984 18.1898 79.7441 18.0264 80.0371C17.9439 80.184 17.8333 80.3132 17.701 80.4173C17.5688 80.5213 17.4173 80.5982 17.2554 80.6436L12.2586 82.0395C11.871 82.155 11.4696 82.2176 11.0654 82.2256ZM10.7135 61.874L6.95149 62.9266C6.47503 63.0599 6.07074 63.3773 5.82726 63.8093C5.58379 64.2412 5.52101 64.7524 5.6527 65.2307L9.27715 78.301C9.41343 78.7752 9.73094 79.1761 10.1605 79.4165C10.5901 79.6569 11.097 79.7173 11.5708 79.5846L15.3328 78.532L10.7135 61.874Z" fill="black"/>
<path d="M60.8861 84.7184C60.434 84.7183 59.984 84.6557 59.5489 84.5323L54.5329 83.1332C53.2688 82.7781 52.1963 81.9353 51.5501 80.7891C50.9038 79.6428 50.7364 78.2865 51.0844 77.0168L57.1145 55.2724C57.4691 54.002 58.3114 52.9243 59.4567 52.2759C60.6021 51.6274 61.9571 51.461 63.2246 51.8131L68.2374 53.2123C69.5044 53.5672 70.5791 54.412 71.2257 55.5612C71.8723 56.7104 72.0378 58.07 71.6859 59.3415L65.6558 81.0826C65.3644 82.1272 64.7407 83.0478 63.8797 83.7041C63.0187 84.3604 61.9675 84.7166 60.8861 84.7184ZM55.2207 80.659L60.2367 82.0581C60.5402 82.143 60.8575 82.167 61.1702 82.1287C61.483 82.0904 61.7851 81.9906 62.0594 81.835C62.3337 81.6794 62.5747 81.471 62.7685 81.2219C62.9624 80.9728 63.1054 80.6877 63.1894 80.383L69.2195 58.6419C69.3895 58.0266 69.3091 57.3687 68.996 56.8128C68.6829 56.2569 68.1627 55.8483 67.5496 55.6768L62.5368 54.2776C61.9234 54.1071 61.2676 54.1877 60.7134 54.5018C60.1592 54.8158 59.7519 55.3377 59.5809 55.9528L53.5508 77.6971C53.3808 78.3124 53.4612 78.9703 53.7743 79.5262C54.0873 80.0821 54.6076 80.4907 55.2207 80.6622V80.659Z" fill="black"/>
<path d="M70.6335 82.2227C70.2302 82.2223 69.8288 82.1672 69.4403 82.059L64.4434 80.6631C64.2809 80.6182 64.1289 80.5414 63.996 80.4373C63.8632 80.3333 63.7521 80.2039 63.6693 80.0566C63.5058 79.7636 63.4633 79.418 63.5509 79.0939L68.858 59.9585C68.9031 59.796 68.9797 59.644 69.0834 59.5112C69.1871 59.3784 69.3158 59.2674 69.4623 59.1846C69.6087 59.1017 69.7701 59.0486 69.937 59.0283C70.1039 59.0081 70.2732 59.021 70.4351 59.0664L75.432 60.4623C76.5599 60.7785 77.517 61.53 78.0938 62.5525C78.6705 63.5749 78.82 64.7849 78.5094 65.9177L74.8881 78.972C74.6288 79.9048 74.0729 80.7272 73.3049 81.3139C72.5369 81.9007 71.5989 82.2198 70.6335 82.2227ZM66.3628 78.5323L70.1248 79.5817C70.5991 79.7154 71.1068 79.6554 71.5371 79.4149C71.9675 79.1745 72.2855 78.7729 72.4217 78.2981L76.043 65.2406C76.1747 64.7623 76.1119 64.2511 75.8684 63.8192C75.6249 63.3872 75.2206 63.0698 74.7442 62.9365L70.9822 61.8839L66.3628 78.5323Z" fill="black"/>
<path d="M74.0885 62.6912C74.0178 62.6907 73.9473 62.6853 73.8773 62.6752C73.7113 62.6476 73.5524 62.5874 73.4096 62.498C73.2668 62.4087 73.1429 62.292 73.0452 62.1545C72.9474 62.0171 72.8776 61.8617 72.8398 61.6972C72.802 61.5327 72.7969 61.3623 72.8249 61.1958L75.6144 44.3164C75.67 43.9802 75.8564 43.6799 76.1327 43.4817C76.4089 43.2834 76.7524 43.2033 77.0875 43.259C77.4227 43.3148 77.722 43.5018 77.9197 43.7789C78.1173 44.056 78.1972 44.4006 78.1416 44.7368L75.3521 61.613C75.3034 61.914 75.1496 62.1878 74.918 62.3854C74.6865 62.5829 74.3924 62.6914 74.0885 62.6912Z" fill="black"/>
<path d="M7.49197 62.6905C7.18856 62.6899 6.89524 62.5811 6.66438 62.3836C6.43351 62.1861 6.28012 61.9128 6.23157 61.6123L3.44206 44.7329C3.41454 44.5664 3.41998 44.3961 3.45806 44.2318C3.49614 44.0674 3.56612 43.9122 3.664 43.775C3.86167 43.4979 4.161 43.3109 4.49612 43.2551C4.83125 43.1994 5.17473 43.2794 5.45099 43.4777C5.72726 43.676 5.91368 43.9763 5.96926 44.3125L8.75877 61.1919C8.7867 61.3584 8.78162 61.5288 8.74382 61.6933C8.70602 61.8578 8.63624 62.0132 8.53848 62.1506C8.44071 62.2881 8.31689 62.4048 8.17409 62.4941C8.03129 62.5835 7.87233 62.6437 7.7063 62.6713C7.63535 62.6824 7.56376 62.6888 7.49197 62.6905Z" fill="black"/>
</g>
<defs>
<clipPath id="clip0_867_21412">
<rect width="81.6956" height="84.7214" fill="white" transform="translate(0 -0.000488281)"/>
</clipPath>
</defs>
</svg>
