<svg width="76" height="113" viewBox="0 0 76 113" fill="none" xmlns="http://www.w3.org/2000/svg">
<path d="M2.56773 16.5396H14.8369L15.9782 22.5315H58.7776L60.4896 16.5396L73.0441 17.4778V110.413H1.99707L2.56773 16.5396Z" fill="#E8E8E8"/>
<path d="M61.0518 14.2583H68.7327C70.4803 14.2623 72.1553 14.9615 73.3911 16.2029C74.6269 17.4443 75.3229 19.1267 75.327 20.8823V106.357C75.3227 108.112 74.6265 109.795 73.3907 111.036C72.155 112.277 70.4802 112.976 68.7327 112.98H6.59431C4.84679 112.976 3.17199 112.277 1.93622 111.036C0.700452 109.795 0.00429015 108.112 0 106.357L0 20.8823C0.00405191 19.1267 0.700109 17.4443 1.93591 16.2029C3.1717 14.9615 4.84664 14.2623 6.59431 14.2583H14.2752V11.2522C14.2769 10.3536 14.633 9.49217 15.2656 8.85671C15.8982 8.22124 16.7558 7.8635 17.6504 7.86182H24.7492C25.287 7.87745 25.8179 7.73696 26.2783 7.45719C26.7386 7.17743 27.1089 6.77025 27.3447 6.28447C28.329 4.38936 29.8116 2.80149 31.6313 1.69343C33.451 0.585376 35.5382 -0.000488281 37.6662 -0.000488281C39.7941 -0.000488281 41.8814 0.585376 43.7011 1.69343C45.5208 2.80149 47.0034 4.38936 47.9877 6.28447C48.2232 6.76968 48.593 7.17647 49.0526 7.4562C49.5122 7.73592 50.0424 7.87674 50.5796 7.86182H57.6765C58.5713 7.86302 59.4292 8.22061 60.0619 8.85618C60.6946 9.49174 61.0506 10.3534 61.0518 11.2522V14.2583ZM14.2752 17.384H6.59431C5.67184 17.3878 4.78823 17.7576 4.13593 18.4128C3.48364 19.0681 3.1155 19.9556 3.1117 20.8823V106.357C3.1155 107.283 3.48367 108.171 4.13599 108.826C4.78831 109.481 5.67192 109.851 6.59431 109.854H68.7327C69.655 109.851 70.5387 109.481 71.191 108.826C71.8433 108.171 72.2115 107.283 72.2153 106.357V20.8823C72.2115 19.9556 71.8433 19.0681 71.191 18.4128C70.5387 17.7576 69.6551 17.3878 68.7327 17.384H61.0518V20.7381C61.0506 21.637 60.6946 22.4986 60.0619 23.1342C59.4292 23.7698 58.5713 24.1273 57.6765 24.1285H17.6504C16.7556 24.1273 15.8978 23.7698 15.2651 23.1342C14.6324 22.4986 14.2764 21.637 14.2752 20.7381V17.384ZM42.082 4.34541C41.0844 3.73729 39.9731 3.34158 38.8169 3.18284C37.6608 3.02409 36.4845 3.1057 35.361 3.42259C34.2376 3.73948 33.191 4.28489 32.2861 5.02499C31.3812 5.76509 30.6374 6.68408 30.1008 7.72494C29.5966 8.71294 28.8295 9.54107 27.8847 10.1172C26.9399 10.6934 25.8545 10.995 24.7492 10.9884H17.6504C17.5811 10.9903 17.5151 11.0187 17.4661 11.068C17.4171 11.1172 17.3887 11.1835 17.3869 11.2531V20.7418C17.3887 20.8114 17.4171 20.8777 17.4661 20.9269C17.5151 20.9762 17.5811 21.0046 17.6504 21.0065H57.6765C57.7459 21.0046 57.8118 20.9762 57.8609 20.9269C57.9099 20.8777 57.9382 20.8114 57.9401 20.7418V11.2522C57.9382 11.1826 57.9099 11.1163 57.8609 11.0671C57.8118 11.0178 57.7459 10.9894 57.6765 10.9875H50.5769C49.4718 10.9939 48.3866 10.6922 47.4419 10.1161C46.4973 9.53994 45.7303 8.71189 45.2261 7.72403C44.5044 6.33091 43.4171 5.16257 42.082 4.34541Z" fill="black"/>
<path d="M12.2909 36.379C12.1465 36.2339 12.032 36.0617 11.9538 35.8722C11.8757 35.6826 11.8354 35.4795 11.8354 35.2743C11.8354 35.0692 11.8757 34.8661 11.9538 34.6765C12.032 34.487 12.1465 34.3148 12.2909 34.1697C12.5826 33.8768 12.9781 33.7122 13.3906 33.7122C13.5948 33.7122 13.797 33.7526 13.9857 33.8311C14.1744 33.9096 14.3458 34.0247 14.4902 34.1697L17.2879 36.98L22.6431 30.4376C22.7706 30.2742 22.9293 30.138 23.11 30.0371C23.2906 29.9362 23.4895 29.8726 23.695 29.85C23.9004 29.8275 24.1083 29.8464 24.3064 29.9057C24.5044 29.965 24.6887 30.0635 24.8483 30.1954C25.0079 30.3273 25.1397 30.4899 25.2359 30.6737C25.332 30.8574 25.3906 31.0587 25.4083 31.2655C25.4259 31.4724 25.4021 31.6807 25.3384 31.8782C25.2747 32.0757 25.1724 32.2584 25.0374 32.4156L18.6813 40.1827C18.552 40.3718 18.3829 40.53 18.1859 40.646C17.9889 40.762 17.7689 40.8331 17.5415 40.8541C17.3141 40.8751 17.0849 40.8456 16.8701 40.7677C16.6553 40.6897 16.4603 40.5652 16.2988 40.403L12.2936 36.379H12.2909Z" fill="black"/>
<path d="M33.106 37.4871C32.8986 37.4921 32.6923 37.4554 32.4992 37.3791C32.3061 37.3029 32.1302 37.1886 31.9817 37.043C31.8333 36.8974 31.7153 36.7235 31.6347 36.5314C31.5542 36.3394 31.5127 36.1331 31.5127 35.9247C31.5127 35.7163 31.5542 35.51 31.6347 35.3179C31.7153 35.1259 31.8333 34.9519 31.9817 34.8063C32.1302 34.6608 32.3061 34.5465 32.4992 34.4702C32.6923 34.394 32.8986 34.3573 33.106 34.3623H61.9362C62.1436 34.3573 62.3499 34.394 62.543 34.4702C62.7361 34.5465 62.912 34.6608 63.0605 34.8063C63.2089 34.9519 63.3269 35.1259 63.4074 35.3179C63.488 35.51 63.5295 35.7163 63.5295 35.9247C63.5295 36.1331 63.488 36.3394 63.4074 36.5314C63.3269 36.7235 63.2089 36.8974 63.0605 37.043C62.912 37.1886 62.7361 37.3029 62.543 37.3791C62.3499 37.4554 62.1436 37.4921 61.9362 37.4871H33.106Z" fill="black"/>
<path d="M12.2907 55.2189C12.141 55.0751 12.0213 54.9026 11.9388 54.7117C11.8562 54.5207 11.8125 54.3151 11.8102 54.107C11.8078 53.8988 11.8469 53.6923 11.9251 53.4995C12.0033 53.3068 12.119 53.1316 12.2655 52.9844C12.412 52.8372 12.5863 52.7208 12.7782 52.6422C12.9701 52.5636 13.1757 52.5242 13.3829 52.5265C13.5901 52.5288 13.7948 52.5726 13.9849 52.6554C14.1751 52.7383 14.3468 52.8584 14.4901 53.0088L17.2877 55.819L22.6429 49.2766C22.9039 48.9577 23.2804 48.756 23.6894 48.7159C24.0985 48.6757 24.5067 48.8005 24.8242 49.0627C25.1417 49.3249 25.3425 49.703 25.3824 50.1139C25.4224 50.5248 25.2982 50.9348 25.0372 51.2538L18.6811 59.0227C18.6276 59.1011 18.5671 59.1745 18.5006 59.2421C18.2088 59.5351 17.8131 59.6998 17.4005 59.6998C16.9879 59.6998 16.5922 59.5351 16.3004 59.2421L12.2953 55.2189H12.2907Z" fill="black"/>
<path d="M12.2909 74.0538C11.9993 73.7608 11.8354 73.3635 11.8354 72.9492C11.8354 72.5348 11.9993 72.1375 12.2909 71.8445C12.5826 71.5516 12.9781 71.387 13.3906 71.387C13.803 71.387 14.1986 71.5516 14.4902 71.8445L17.2879 74.6548L22.6431 68.1124C22.7706 67.949 22.9293 67.8128 23.11 67.7119C23.2906 67.611 23.4895 67.5474 23.695 67.5249C23.9004 67.5023 24.1083 67.5212 24.3064 67.5805C24.5044 67.6398 24.6887 67.7383 24.8483 67.8702C25.0079 68.0021 25.1397 68.1647 25.2359 68.3485C25.332 68.5322 25.3906 68.7335 25.4083 68.9403C25.4259 69.1472 25.4021 69.3555 25.3384 69.553C25.2747 69.7505 25.1724 69.9332 25.0374 70.0904L18.6813 77.8612C18.552 78.0502 18.3829 78.2084 18.1859 78.3244C17.9889 78.4405 17.7689 78.5115 17.5415 78.5325C17.3141 78.5536 17.0849 78.5241 16.8701 78.4461C16.6553 78.3681 16.4603 78.2436 16.2988 78.0815L12.2909 74.0538Z" fill="black"/>
<path d="M12.2906 92.8932C12.0095 92.5981 11.8545 92.2041 11.859 91.7957C11.8634 91.3872 12.0269 90.9968 12.3144 90.7079C12.6018 90.419 12.9905 90.2546 13.3971 90.25C13.8037 90.2454 14.196 90.4008 14.4899 90.6831L17.2875 93.4933L22.6428 86.9509C22.9038 86.632 23.2802 86.4303 23.6893 86.3902C24.0984 86.3501 24.5065 86.4748 24.824 86.737C25.1415 86.9992 25.3423 87.3773 25.3823 87.7882C25.4222 88.1991 25.298 88.6091 25.037 88.9281L18.6809 96.697C18.6274 96.7754 18.567 96.8488 18.5005 96.9164C18.2087 97.2095 17.813 97.3741 17.4003 97.3741C16.9877 97.3741 16.592 97.2095 16.3002 96.9164L12.2951 92.8932H12.2906Z" fill="black"/>
<path d="M33.1061 56.3259C32.6935 56.3259 32.2978 56.1612 32.006 55.8682C31.7142 55.5751 31.5503 55.1775 31.5503 54.7631C31.5503 54.3486 31.7142 53.951 32.006 53.6579C32.2978 53.3649 32.6935 53.2002 33.1061 53.2002H61.9363C62.3489 53.2002 62.7447 53.3649 63.0365 53.6579C63.3282 53.951 63.4921 54.3486 63.4921 54.7631C63.4921 55.1775 63.3282 55.5751 63.0365 55.8682C62.7447 56.1612 62.3489 56.3259 61.9363 56.3259H33.1061Z" fill="black"/>
<path d="M33.106 75.1638C32.8986 75.1688 32.6923 75.1321 32.4992 75.0559C32.3061 74.9796 32.1302 74.8653 31.9817 74.7198C31.8333 74.5742 31.7153 74.4002 31.6347 74.2082C31.5542 74.0161 31.5127 73.8098 31.5127 73.6014C31.5127 73.393 31.5542 73.1867 31.6347 72.9947C31.7153 72.8026 31.8333 72.6287 31.9817 72.4831C32.1302 72.3375 32.3061 72.2232 32.4992 72.147C32.6923 72.0707 32.8986 72.034 33.106 72.039H61.9362C62.1436 72.034 62.3499 72.0707 62.543 72.147C62.7361 72.2232 62.912 72.3375 63.0605 72.4831C63.2089 72.6287 63.3269 72.8026 63.4074 72.9947C63.488 73.1867 63.5295 73.393 63.5295 73.6014C63.5295 73.8098 63.488 74.0161 63.4074 74.2082C63.3269 74.4002 63.2089 74.5742 63.0605 74.7198C62.912 74.8653 62.7361 74.9796 62.543 75.0559C62.3499 75.1321 62.1436 75.1688 61.9362 75.1638H33.106Z" fill="black"/>
<path d="M33.1061 94.0027C32.6935 94.0027 32.2978 93.838 32.006 93.5449C31.7142 93.2518 31.5503 92.8543 31.5503 92.4398C31.5503 92.0253 31.7142 91.6278 32.006 91.3347C32.2978 91.0416 32.6935 90.877 33.1061 90.877H61.9363C62.3489 90.877 62.7447 91.0416 63.0365 91.3347C63.3282 91.6278 63.4921 92.0253 63.4921 92.4398C63.4921 92.8543 63.3282 93.2518 63.0365 93.5449C62.7447 93.838 62.3489 94.0027 61.9363 94.0027H33.1061Z" fill="black"/>
<path fill-rule="evenodd" clip-rule="evenodd" d="M37.6638 9.42432C38.1069 9.42414 38.5401 9.55597 38.9086 9.80313C39.2771 10.0503 39.5643 10.4017 39.734 10.8129C39.9036 11.224 39.948 11.6765 39.8616 12.113C39.7752 12.5496 39.5619 12.9506 39.2486 13.2653C38.9353 13.58 38.5361 13.7943 38.1015 13.8811C37.6669 13.9679 37.2165 13.9233 36.8071 13.7529C36.3978 13.5825 36.048 13.2939 35.8019 12.9238C35.5559 12.5536 35.4246 12.1185 35.4248 11.6734C35.4248 11.3781 35.4827 11.0856 35.5952 10.8127C35.7078 10.5398 35.8727 10.2919 36.0806 10.0831C36.2885 9.87421 36.5353 9.70855 36.807 9.59552C37.0786 9.48249 37.3698 9.42432 37.6638 9.42432Z" fill="black"/>
</svg>
