<svg width="58" height="74" viewBox="0 0 58 99" fill="none" xmlns="http://www.w3.org/2000/svg">
<path d="M15.6136 25.7811H25.8471C26.0164 25.7863 26.185 25.7577 26.343 25.6969C26.5009 25.6361 26.645 25.5443 26.7666 25.4271C26.8883 25.3099 26.985 25.1696 27.051 25.0145C27.117 24.8595 27.151 24.6928 27.151 24.5244C27.151 24.356 27.117 24.1893 27.051 24.0342C26.985 23.8792 26.8883 23.7389 26.7666 23.6217C26.645 23.5044 26.5009 23.4127 26.343 23.3519C26.185 23.2911 26.0164 23.2625 25.8471 23.2677H15.6136V19.2689H25.8471C26.0164 19.2742 26.185 19.2455 26.343 19.1847C26.5009 19.1239 26.645 19.0322 26.7666 18.915C26.8883 18.7978 26.985 18.6575 27.051 18.5024C27.117 18.3473 27.151 18.1806 27.151 18.0123C27.151 17.8439 27.117 17.6772 27.051 17.5221C26.985 17.367 26.8883 17.2267 26.7666 17.1095C26.645 16.9923 26.5009 16.9006 26.343 16.8398C26.185 16.779 26.0164 16.7503 25.8471 16.7556H15.6136V16.6112C15.6136 12.9741 17.0669 9.48598 19.6539 6.91419C22.2408 4.34239 25.7495 2.89757 29.408 2.89757C33.0665 2.89757 36.5751 4.34239 39.1621 6.91419C41.749 9.48598 43.2023 12.9741 43.2023 16.6112V30.417C43.1749 30.5274 43.161 30.6407 43.1608 30.7544V34.9194H35.6154C35.4461 34.9142 35.2775 34.9428 35.1195 35.0036C34.9616 35.0644 34.8175 35.1561 34.6959 35.2734C34.5743 35.3906 34.4776 35.5309 34.4115 35.6859C34.3455 35.841 34.3115 36.0077 34.3115 36.1761C34.3115 36.3445 34.3455 36.5112 34.4115 36.6662C34.4776 36.8213 34.5743 36.9616 34.6959 37.0788C34.8175 37.196 34.9616 37.2878 35.1195 37.3486C35.2775 37.4094 35.4461 37.438 35.6154 37.4328H43.1645V41.4315H35.6154C35.4461 41.4263 35.2775 41.455 35.1195 41.5158C34.9616 41.5765 34.8175 41.6683 34.6959 41.7855C34.5743 41.9027 34.4776 42.043 34.4115 42.1981C34.3455 42.3531 34.3115 42.5198 34.3115 42.6882C34.3115 42.8566 34.3455 43.0233 34.4115 43.1784C34.4776 43.3334 34.5743 43.4737 34.6959 43.591C34.8175 43.7082 34.9616 43.7999 35.1195 43.8607C35.2775 43.9215 35.4461 43.9501 35.6154 43.9449H43.1596C42.5907 51.0214 36.5713 56.5529 29.4104 56.5529C25.7533 56.5484 22.2473 55.1021 19.6613 52.5313C17.0754 49.9605 15.6206 46.475 15.6161 42.8393V25.7811H15.6136ZM29.408 59.4449C33.6274 59.4452 37.6908 57.8585 40.7821 55.0034C43.8734 52.1484 45.7637 48.2363 46.0735 44.0529C46.0735 44.0177 46.0735 43.9837 46.0735 43.9485V35.2568C46.101 35.1464 46.115 35.0331 46.115 34.9194V16.6112C46.1153 14.43 45.6835 12.2701 44.8442 10.2549C44.0049 8.23966 42.7745 6.40849 41.2234 4.86596C39.6722 3.32342 37.8306 2.09973 35.8037 1.26474C33.7769 0.429756 31.6044 -0.000169562 29.4104 -0.000488281C20.2243 -0.000488281 12.7461 7.40242 12.7021 16.5286C12.7021 16.5359 12.7021 16.542 12.7021 16.5493V42.8393C12.7021 51.9995 20.1975 59.451 29.4116 59.451L29.408 59.4449Z" fill="#26383F"/>
<path d="M53.7359 47.9443C52.6182 51.5354 50.7621 54.8565 48.2853 57.6968C43.9504 62.7041 38.0103 66.0135 31.9872 66.7744C31.1119 66.886 30.2304 66.9424 29.3479 66.9431H29.2259C28.4276 66.9377 27.6304 66.8862 26.8381 66.789C20.7515 66.0499 14.7662 62.7004 10.4143 57.5997C7.97348 54.7588 6.15015 51.4467 5.05888 47.8715C3.88509 44.0171 3.61491 39.9466 4.26906 35.9723C4.2932 35.8021 4.35121 35.6384 4.4397 35.4907C4.52819 35.3431 4.64539 35.2144 4.78445 35.1123C4.92351 35.0102 5.08164 34.9367 5.24961 34.896C5.41758 34.8553 5.59202 34.8483 5.76274 34.8754C5.93346 34.9025 6.09704 34.9631 6.24392 35.0538C6.39081 35.1444 6.51805 35.2632 6.61822 35.4033C6.71839 35.5434 6.78948 35.7019 6.82734 35.8696C6.8652 36.0373 6.86907 36.2108 6.83872 36.38C5.70587 43.4516 7.68103 50.3934 12.4004 55.9249C16.8622 61.164 23.1588 64.3193 29.243 64.3558H29.3418C32.3082 64.3558 35.4284 63.596 38.3631 62.1592C41.3984 60.6584 44.0999 58.5673 46.3077 56.0099C51.1027 50.471 53.1243 43.499 51.9975 36.3776C51.9438 36.0385 52.0278 35.6921 52.2309 35.4145C52.4341 35.137 52.7399 34.9511 53.081 34.8976C53.422 34.8442 53.7705 34.9277 54.0497 35.1296C54.3289 35.3316 54.5159 35.6356 54.5696 35.9747C55.2194 39.9753 54.9341 44.0709 53.7359 47.9443ZM28.1089 82.8873V69.8072C28.4751 69.8266 28.8413 69.8376 29.2076 69.84H29.3418C29.7947 69.84 30.2525 69.8266 30.7103 69.7999V82.8873H28.1089ZM47.3734 88.13V89.2975H34.9218C34.5934 89.3077 34.2818 89.4445 34.0531 89.6791C33.8243 89.9136 33.6964 90.2275 33.6964 90.5542C33.6964 90.8809 33.8243 91.1947 34.0531 91.4293C34.2818 91.6639 34.5934 91.8007 34.9218 91.8109H47.3734V92.8643C47.3711 93.4718 47.1278 94.0539 46.6962 94.4841C46.2647 94.9143 45.6797 95.1577 45.0686 95.1616H13.8714C13.2592 95.1593 12.6727 94.9166 12.2399 94.4862C11.807 94.0559 11.5628 93.4729 11.5605 92.8643V88.1312C11.5631 87.5229 11.8074 86.9401 12.2403 86.51C12.6731 86.08 13.2594 85.8374 13.8714 85.8351H45.0686C45.6806 85.8374 46.2669 86.08 46.6997 86.51C47.1326 86.9401 47.3769 87.5229 47.3795 88.1312L47.3734 88.13ZM52.6226 32.0366C51.5194 32.2112 50.5309 32.8134 49.8735 33.7113C49.2161 34.6091 48.9435 35.7293 49.1154 36.8266C50.1066 43.0948 48.3231 49.2368 44.0945 54.1203C42.1439 56.3829 39.7561 58.233 37.0728 59.5609C34.5349 60.8036 31.859 61.4601 29.337 61.4601H29.2478C24.0096 61.4286 18.5371 58.6592 14.6075 54.0572C10.446 49.1798 8.70401 43.0645 9.70135 36.84C9.83287 36.0213 9.71709 35.1822 9.36867 34.429C9.02026 33.6758 8.45488 33.0423 7.7441 32.6087C7.03332 32.1751 6.20912 31.9609 5.37582 31.9932C4.54252 32.0255 3.73761 32.3029 3.06297 32.7902C2.61572 33.1121 2.23695 33.5187 1.94845 33.9867C1.65996 34.4547 1.46745 34.9749 1.38201 35.5172C0.657647 39.9238 0.958314 44.4369 2.26094 48.7101C3.46703 52.6652 5.48323 56.3294 8.18275 59.4723C12.6995 64.7672 18.8398 68.363 25.195 69.4735V82.9371H13.8714C12.4865 82.9387 11.1588 83.4863 10.1796 84.4598C9.20033 85.4333 8.64947 86.7533 8.64786 88.13V92.863C8.64915 94.24 9.19986 95.5602 10.1791 96.534C11.1584 97.5078 12.4863 98.0556 13.8714 98.0572H45.0686C46.4535 98.0556 47.7812 97.508 48.7604 96.5345C49.7397 95.5609 50.2906 94.241 50.2922 92.8643V88.1312C50.2909 86.7543 49.7402 85.434 48.7609 84.4603C47.7816 83.4865 46.4537 82.9387 45.0686 82.9371H33.6303V69.4528C39.9073 68.3242 45.9939 64.7793 50.4887 59.5863C53.2289 56.445 55.2817 52.7713 56.5167 48.7987C57.8475 44.5036 58.1657 39.9615 57.4469 35.5244C57.271 34.4277 56.665 33.4449 55.7616 32.7914C54.8583 32.1379 53.7313 31.8669 52.6274 32.0378L52.6226 32.0366Z" fill="#26383F"/>
</svg>
