<svg width="98" height="98" viewBox="0 0 98 98" fill="none" xmlns="http://www.w3.org/2000/svg">
<g clip-path="url(#clip0_867_21385)">
<path d="M39 17.9995H19.5L18.5 38.9995L39 37.9995V17.9995Z" fill="#E8E8E8"/>
<path d="M38.5 59.9995H19L18 80.9995L38.5 79.9995V59.9995Z" fill="#E8E8E8"/>
<path d="M81.5 17.9995H62L61 38.9995L81.5 37.9995V17.9995Z" fill="#E8E8E8"/>
<path d="M4.31511 19.329H0V-0.000488281H19.3308V4.31457H4.31511V19.329Z" fill="#E8E8E8"/>
<path d="M97.9995 19.3312H93.6833V4.31457H78.6709V-0.000488281H97.9995V19.3312Z" fill="#E8E8E8"/>
<path d="M97.9998 98.0009H78.6689V93.6858H93.6836V78.6714H97.9998V98.0009Z" fill="#E8E8E8"/>
<path d="M19.3276 97.9992H0V78.6675H4.31511V93.6841H19.3276V97.9992Z" fill="#E8E8E8"/>
<path d="M33.6652 23.269H24.1807V32.7568H33.6652V23.269Z" fill="#231F20"/>
<path d="M42.4922 13.7808H14.8203V41.4502H42.4922V13.7808ZM37.7472 36.7085H19.5642V18.5257H37.7472V36.7085Z" fill="#231F20"/>
<path d="M33.6652 66.0386H24.1807V75.5263H33.6652V66.0386Z" fill="#231F20"/>
<path d="M14.8203 84.2197H42.4922V56.5503H14.8203V84.2197ZM19.5642 61.2952H37.7472V79.4791H19.5642V61.2952Z" fill="#231F20"/>
<path d="M76.4367 23.269H66.9521V32.7568H76.4367V23.269Z" fill="#231F20"/>
<path d="M30.707 51.7061H52.3345V18.5229H47.7487V47.1214H30.707V51.7061Z" fill="#231F20"/>
<path d="M55.2805 72.7054H46.6113V84.2213H51.1961V77.2901H59.8653V63.7808H55.2805V72.7054Z" fill="#231F20"/>
<path d="M80.6793 79.6338H66.4043V84.2185H85.2641V65.3589H80.6793V79.6338Z" fill="#231F20"/>
<path d="M80.5187 47.1245H57.5918V51.7092H75.934V59.7232H85.2637V55.1385H80.5187V47.1245Z" fill="#231F20"/>
<path d="M66.4043 76.3425H70.989V71.7795H77.237V67.1948H66.4043V76.3425Z" fill="#231F20"/>
<path d="M26.643 47.1245H19.5645V51.7092H26.643V47.1245Z" fill="#231F20"/>
<path d="M57.5918 13.7808V41.4502H85.2637V13.7808H57.5918ZM80.5187 36.7085H62.3357V18.5257H80.5187V36.7085Z" fill="#231F20"/>
<path d="M59.8663 56.5503H46.6113V61.135H59.8663V56.5503Z" fill="#231F20"/>
<path d="M73.0313 56.5503H66.4043V61.135H73.0313V56.5503Z" fill="#231F20"/>
</g>
<defs>
<clipPath id="clip0_867_21385">
<rect width="98" height="98" fill="white" transform="translate(0 -0.000488281)"/>
</clipPath>
</defs>
</svg>
