<svg width="183" height="265" viewBox="0 0 183 265" fill="none" xmlns="http://www.w3.org/2000/svg">
<path d="M179.677 108.133H3.67676C3.12447 108.133 2.67676 108.581 2.67676 109.133V261.968C2.67676 262.521 3.12447 262.968 3.67676 262.968H179.677C180.229 262.968 180.677 262.521 180.677 261.968V109.133C180.677 108.581 180.229 108.133 179.677 108.133Z" fill="white" stroke="black" stroke-width="4"/>
<path d="M162.608 122.762H18.3066C17.7544 122.762 17.3066 123.209 17.3066 123.762V244.899C17.3066 245.451 17.7544 245.899 18.3066 245.899H162.608C163.16 245.899 163.608 245.451 163.608 244.899V123.762C163.608 123.209 163.16 122.762 162.608 122.762Z" fill="#E8E8E8" stroke="black" stroke-width="4"/>
<path d="M148.978 142.267H144.102V137.391H148.978V142.267Z" stroke="black" stroke-width="5"/>
<path d="M31.9373 142.267H27.0605V137.391H31.9373V142.267Z" stroke="black" stroke-width="5"/>
<path d="M31.9373 234.927H27.0605V230.051H31.9373V234.927Z" stroke="black" stroke-width="5"/>
<path d="M153.855 234.927H148.979V230.051H153.855V234.927Z" stroke="black" stroke-width="5"/>
<path d="M58.7588 166.554V139.932C58.7588 139.877 58.8036 139.832 58.8588 139.832H124.494C124.55 139.832 124.594 139.877 124.594 139.932V178.784C124.594 178.822 124.573 178.856 124.539 178.873L100.266 191.01C100.232 191.027 100.211 191.061 100.211 191.099V200.691C100.211 200.746 100.166 200.791 100.111 200.791H83.2424C83.1871 200.791 83.1424 200.746 83.1424 200.691V186.22C83.1424 186.184 83.1623 186.15 83.1945 186.132L109.912 171.559C109.944 171.542 109.964 171.508 109.964 171.471V154.562C109.964 154.507 109.919 154.462 109.864 154.462H73.4889C73.4337 154.462 73.3889 154.507 73.3889 154.562V166.554C73.3889 166.609 73.3442 166.654 73.2889 166.654H58.8588C58.8036 166.654 58.7588 166.609 58.7588 166.554Z" fill="white" stroke="black" stroke-width="4"/>
<path d="M100.211 229.952V215.522C100.211 215.467 100.166 215.422 100.111 215.422H83.2426C83.1873 215.422 83.1426 215.467 83.1426 215.522V229.952C83.1426 230.007 83.1874 230.052 83.2426 230.052H100.111C100.166 230.052 100.211 230.007 100.211 229.952Z" fill="white" stroke="black" stroke-width="4"/>
<g clip-path="url(#clip0_867_21453)">
<path d="M39.398 93.0379C36.1335 93.0344 33.0037 91.7432 30.6954 89.4476C28.387 87.1519 27.0886 84.0393 27.0851 80.7928C27.0618 80.4692 26.9161 80.1665 26.6773 79.9455C26.4386 79.7244 26.1245 79.6016 25.7983 79.6016C25.4721 79.6016 25.158 79.7244 24.9192 79.9455C24.6805 80.1665 24.5348 80.4692 24.5114 80.7928C24.5062 84.04 23.2063 87.1525 20.8969 89.448C18.5875 91.7434 15.4571 93.0344 12.192 93.0379C11.8666 93.0611 11.5622 93.206 11.3399 93.4435C11.1177 93.6809 10.9941 93.9933 10.9941 94.3177C10.9941 94.6421 11.1177 94.9544 11.3399 95.1919C11.5622 95.4293 11.8666 95.5743 12.192 95.5975C15.4571 95.601 18.5875 96.892 20.8969 99.1874C23.2063 101.483 24.5062 104.595 24.5114 107.843C24.4987 108.018 24.5226 108.195 24.5815 108.361C24.6405 108.527 24.7332 108.68 24.8539 108.809C24.9747 108.938 25.1208 109.04 25.2833 109.111C25.4458 109.181 25.6211 109.217 25.7983 109.217C25.9755 109.217 26.1508 109.181 26.3133 109.111C26.4757 109.04 26.6219 108.938 26.7426 108.809C26.8634 108.68 26.9561 108.527 27.015 108.361C27.074 108.195 27.0978 108.018 27.0851 107.843C27.0886 104.596 28.387 101.483 30.6954 99.1878C33.0037 96.8922 36.1335 95.601 39.398 95.5975C39.7233 95.5743 40.0278 95.4293 40.25 95.1919C40.4723 94.9544 40.5958 94.6421 40.5958 94.3177C40.5958 93.9933 40.4723 93.6809 40.25 93.4435C40.0278 93.206 39.7233 93.0611 39.398 93.0379ZM25.795 101.822C24.2919 98.4834 21.6043 95.8128 18.2458 94.321C21.6033 92.8244 24.2902 90.1523 25.795 86.8134C27.3019 90.1509 29.9881 92.8224 33.3441 94.321C29.9871 95.8149 27.3001 98.4848 25.795 101.822Z" fill="black" stroke="black"/>
<path d="M164.43 47.3654C162.366 47.3637 160.387 46.547 158.928 45.0948C157.469 43.6426 156.649 41.6738 156.649 39.6209C156.626 39.2974 156.48 38.9946 156.242 38.7736C156.003 38.5526 155.689 38.4297 155.363 38.4297C155.036 38.4297 154.722 38.5526 154.484 38.7736C154.245 38.9946 154.099 39.2974 154.076 39.6209C154.074 41.6744 153.253 43.6432 151.793 45.0952C150.333 46.5472 148.353 47.3637 146.288 47.3654C145.948 47.3654 145.622 47.4999 145.381 47.7393C145.14 47.9787 145.005 48.3034 145.005 48.6419C145.005 48.9805 145.14 49.3051 145.381 49.5445C145.622 49.7839 145.948 49.9184 146.288 49.9184C148.353 49.9201 150.333 50.7366 151.793 52.1886C153.253 53.6406 154.074 55.6095 154.076 57.6629C154.099 57.9865 154.245 58.2892 154.484 58.5102C154.722 58.7313 155.036 58.8541 155.363 58.8541C155.689 58.8541 156.003 58.7313 156.242 58.5102C156.48 58.2892 156.626 57.9865 156.649 57.6629C156.649 55.6101 157.469 53.6412 158.928 52.189C160.387 50.7369 162.366 49.9201 164.43 49.9184C164.771 49.9184 165.097 49.7839 165.338 49.5445C165.578 49.3051 165.714 48.9805 165.714 48.6419C165.714 48.3034 165.578 47.9787 165.338 47.7393C165.097 47.4999 164.771 47.3654 164.43 47.3654ZM155.359 52.6951C154.412 50.9894 152.999 49.5845 151.284 48.6419C152.999 47.6994 154.412 46.2944 155.359 44.5887C156.307 46.2944 157.72 47.6994 159.435 48.6419C157.72 49.5845 156.307 50.9894 155.359 52.6951Z" fill="black" stroke="black"/>
<path d="M122.558 91.844C133.386 84.8831 134.804 69.6078 134.16 62.8403C125.459 58.9732 113.857 69.6078 106.123 72.5082C98.3886 75.4086 93.5547 88.9436 93.5547 101.512C93.5547 114.08 109.023 100.545 122.558 91.844Z" fill="#E8E8E8" stroke="black"/>
<path d="M134.47 62.1248C131.738 59.4073 126.987 59.1573 121.085 61.4142C115.515 63.5395 109.481 67.6782 104.068 73.0539C92.4636 84.6016 87.6337 97.8797 93.0789 103.321L98.1867 108.407C99.7018 109.914 101.826 110.625 104.36 110.625C110.923 110.625 120.239 105.808 128.588 97.4652C134 92.0895 138.155 86.0755 140.299 80.5484C142.568 74.6792 142.284 69.9482 139.584 67.2308L134.47 62.1248ZM105.888 74.8502C111.049 69.718 116.772 65.7898 122.012 63.7895C124.003 62.9671 126.128 62.5101 128.284 62.4406C130.156 62.4406 131.658 62.9341 132.651 63.9211C134.596 65.849 134.636 69.7048 132.783 74.5015C130.798 79.7128 126.828 85.4043 121.661 90.5366C111.426 100.716 99.1659 105.716 94.8984 101.466C90.6309 97.2152 95.6659 85.0424 105.888 74.8502ZM137.897 79.5877C135.912 84.7924 131.943 90.484 126.769 95.6162C116.533 105.795 104.274 110.796 100.006 106.552L98.9211 105.473C99.0335 105.473 99.1328 105.473 99.2452 105.473C105.815 105.473 115.124 100.65 123.481 92.3132C128.893 86.9308 133.048 80.9234 135.185 75.3898C136.162 73.0308 136.672 70.5061 136.687 67.9546L137.752 69.0139C139.704 70.9418 139.75 74.8042 137.897 79.6009V79.5877Z" fill="black" stroke="black"/>
<path d="M52.3744 39.291C47.5471 31.5815 36.9539 30.5719 32.2607 31.0308C29.5789 37.2259 36.9539 45.4861 38.9653 50.9929C40.9766 56.4997 50.363 59.9414 59.079 59.9414C67.7949 59.9414 58.4085 48.9278 52.3744 39.291Z" fill="#E8E8E8"/>
<path d="M52.7898 66.4058C53.6232 66.4489 54.4568 66.3249 55.2411 66.0411C56.0253 65.7574 56.7442 65.3198 57.355 64.7543L60.9675 61.2012C62.9921 59.1812 63.2038 55.7267 61.5563 51.4696C60.0346 47.5217 57.097 43.2908 53.2728 39.4942C44.9893 31.2628 35.4089 27.9005 31.4392 31.8419L27.8333 35.3752C23.8636 39.3232 27.2511 48.8508 35.528 57.0888C41.4628 63.0106 48.0658 66.4058 52.7898 66.4058ZM33.2322 33.6447C33.9958 32.9933 34.9878 32.6691 35.9912 32.7433C39.6632 32.7433 45.6707 35.5924 51.4203 41.2971C54.993 44.8568 57.7322 48.7916 59.1216 52.3907C60.3588 55.6017 60.3588 58.1481 59.1216 59.3917C57.8843 60.6353 55.3106 60.6287 52.0819 59.3917C48.4628 58.0099 44.4997 55.2925 40.9269 51.7393C37.3541 48.1862 34.615 44.2449 33.2256 40.6391C31.9817 37.4413 31.9883 34.8883 33.2322 33.6447ZM29.6528 37.2044L29.7521 37.1057C29.8861 38.6372 30.2473 40.1406 30.8239 41.5669C32.339 45.5148 35.2832 49.7456 39.1074 53.5488C42.9316 57.352 47.2057 60.2734 51.149 61.7802C52.5942 62.3546 54.1215 62.6988 55.6745 62.8001L55.5289 62.9448C53.0479 65.4123 44.943 62.879 37.3409 55.2925C29.7388 47.7059 27.1717 39.6719 29.6528 37.2044Z" fill="black" stroke="black"/>
<path d="M97.2894 30.3442C100.703 30.3442 105.348 27.9491 109.615 23.6986C112.137 21.2853 114.14 18.3888 115.504 15.1842C116.715 12.0522 116.536 9.48608 115.001 7.94639C113.466 6.40671 110.899 6.24221 107.723 7.44633C104.501 8.80305 101.588 10.7952 99.1618 13.3024C93.141 19.3164 90.8253 26.0805 93.8026 29.0282C94.2651 29.4692 94.8123 29.813 95.4113 30.0391C96.0104 30.2652 96.6491 30.369 97.2894 30.3442ZM101.001 15.1316C103.172 12.8784 105.781 11.0875 108.669 9.86771C109.573 9.49338 110.536 9.28386 111.514 9.2492C112.111 9.19488 112.706 9.37694 113.168 9.75585C113.916 10.4994 113.89 12.1772 113.089 14.2433C111.862 17.1157 110.062 19.7103 107.796 21.8694C102.768 26.8766 97.21 28.8308 95.6155 27.2319C94.0209 25.633 95.9661 20.1125 101.008 15.1119L101.001 15.1316Z" fill="black" stroke="black"/>
</g>
<defs>
<clipPath id="clip0_867_21453">
<rect width="178" height="109.794" fill="white" transform="translate(2.67676)"/>
</clipPath>
</defs>
</svg>
