<svg width="107" height="114" viewBox="0 0 107 114" fill="none" xmlns="http://www.w3.org/2000/svg">
<path d="M94.7707 28.6564L105.229 39.1084C105.586 39.4649 105.869 39.8883 106.062 40.3544C106.255 40.8204 106.355 41.3199 106.355 41.8244C106.355 42.3289 106.255 42.8284 106.062 43.2945C105.869 43.7605 105.586 44.1839 105.229 44.5405L92.95 56.8176V100.697C92.9503 100.948 92.9011 101.196 92.8053 101.428C92.7095 101.66 92.5689 101.871 92.3915 102.048C92.2142 102.226 92.0035 102.366 91.7717 102.462C91.5399 102.558 91.2915 102.608 91.0406 102.607H81.9314V111.724C81.9311 112.23 81.7297 112.716 81.3714 113.074C81.0132 113.432 80.5274 113.633 80.0209 113.633H1.91107C1.40456 113.633 0.918769 113.432 0.560499 113.074C0.202228 112.716 0.000797888 112.23 0.000488281 111.724L0.000488281 13.0537C0.000488187 12.5469 0.201744 12.0609 0.560015 11.7024C0.918286 11.344 1.40425 11.1425 1.91107 11.1422H26.5992L37.0642 0.679653L37.0969 0.650461L37.1261 0.620101H37.1331L37.1635 0.594412L37.1962 0.564052L37.2055 0.557046L37.2324 0.53486L37.2429 0.527853L37.2686 0.508003L37.3048 0.481146L37.3223 0.468301L37.3445 0.455457L37.362 0.441444L37.3819 0.4286L37.4017 0.41809L37.4216 0.405246L37.4414 0.392401L37.4613 0.381892L37.4846 0.369047L37.501 0.358538L37.5243 0.345694L37.5442 0.336352L37.5664 0.325843L37.5839 0.316501L37.6061 0.305992L37.6259 0.296651L37.6493 0.286141L37.6692 0.279135L37.6925 0.269794L37.7357 0.249943L37.7556 0.242937L37.7789 0.237098L37.7988 0.230092L37.8245 0.219583L37.8443 0.213745L37.8677 0.206738L38.0078 0.167037L38.03 0.160031H38.0499L38.0721 0.149522H38.0919L38.2145 0.132006H38.2274H38.2648H38.2741L38.3605 0.125H91.0406C91.5471 0.12531 92.0328 0.326714 92.3908 0.684939C92.7489 1.04316 92.95 1.52889 92.95 2.03534V27.6358C93.6401 27.7997 94.2708 28.1532 94.7707 28.6564ZM78.1068 102.607H12.9343C12.4277 102.607 11.9419 102.406 11.5837 102.048C11.2254 101.689 11.024 101.204 11.0237 100.697V27.4571V27.4081V27.3614V27.3124L11.0307 27.2656V27.2154L11.0377 27.1699L11.0471 27.1232L11.0576 27.0765L11.0669 27.0309L11.0739 27.0076L11.0809 26.9842V26.9609L11.088 26.941L11.1043 26.8943L11.1183 26.8523L11.1347 26.8091L11.1545 26.7659L11.1709 26.7227L11.1907 26.6795L11.2106 26.6398L11.2339 26.5966L11.2573 26.5569L11.2795 26.5172L11.3028 26.4775L11.3297 26.4413L11.3566 26.4016L11.3694 26.3852L11.3823 26.3654L11.3963 26.3455L11.4091 26.3292L11.4255 26.3093L11.4395 26.2918L11.4558 26.2754L11.4687 26.2591L11.499 26.2229L11.5154 26.2066L11.5317 26.1902L11.5481 26.1739L11.5609 26.1563L22.757 14.9652H3.82049V109.813H78.1068V102.607ZM27.9773 42.2962C27.7225 42.3025 27.469 42.2577 27.2317 42.1646C26.9945 42.0714 26.7783 41.9318 26.5958 41.7538C26.4134 41.5759 26.2684 41.3632 26.1694 41.1284C26.0704 40.8935 26.0194 40.6413 26.0194 40.3864C26.0194 40.1316 26.0704 39.8793 26.1694 39.6445C26.2684 39.4096 26.4134 39.197 26.5958 39.019C26.7783 38.841 26.9945 38.7014 27.2317 38.6082C27.469 38.5151 27.7225 38.4703 27.9773 38.4767H68.9427C69.1975 38.4703 69.451 38.5151 69.6883 38.6082C69.9255 38.7014 70.1417 38.841 70.3241 39.019C70.5066 39.197 70.6516 39.4096 70.7506 39.6445C70.8495 39.8793 70.9005 40.1316 70.9005 40.3864C70.9005 40.6413 70.8495 40.8935 70.7506 41.1284C70.6516 41.3632 70.5066 41.5759 70.3241 41.7538C70.1417 41.9318 69.9255 42.0714 69.6883 42.1646C69.451 42.2577 69.1975 42.3025 68.9427 42.2962H27.9773ZM27.9773 86.8716C27.7225 86.8779 27.469 86.8332 27.2317 86.74C26.9945 86.6469 26.7783 86.5072 26.5958 86.3293C26.4134 86.1513 26.2684 85.9386 26.1694 85.7038C26.0704 85.469 26.0194 85.2167 26.0194 84.9619C26.0194 84.707 26.0704 84.4547 26.1694 84.2199C26.2684 83.9851 26.4134 83.7724 26.5958 83.5944C26.7783 83.4165 26.9945 83.2768 27.2317 83.1837C27.469 83.0905 27.7225 83.0458 27.9773 83.0521H41.9259C42.1807 83.0458 42.4342 83.0905 42.6715 83.1837C42.9087 83.2768 43.1249 83.4165 43.3073 83.5944C43.4898 83.7724 43.6348 83.9851 43.7338 84.2199C43.8327 84.4547 43.8837 84.707 43.8837 84.9619C43.8837 85.2167 43.8327 85.469 43.7338 85.7038C43.6348 85.9386 43.4898 86.1513 43.3073 86.3293C43.1249 86.5072 42.9087 86.6469 42.6715 86.74C42.4342 86.8332 42.1807 86.8779 41.9259 86.8716H27.9773ZM27.9773 53.4406C27.7225 53.4469 27.469 53.4022 27.2317 53.309C26.9945 53.2159 26.7783 53.0762 26.5958 52.8983C26.4134 52.7203 26.2684 52.5076 26.1694 52.2728C26.0704 52.038 26.0194 51.7857 26.0194 51.5309C26.0194 51.276 26.0704 51.0237 26.1694 50.7889C26.2684 50.5541 26.4134 50.3414 26.5958 50.1634C26.7783 49.9855 26.9945 49.8458 27.2317 49.7527C27.469 49.6595 27.7225 49.6148 27.9773 49.6211H58.2757C58.5305 49.6148 58.784 49.6595 59.0212 49.7527C59.2585 49.8458 59.4747 49.9855 59.6571 50.1634C59.8395 50.3414 59.9845 50.5541 60.0835 50.7889C60.1825 51.0237 60.2335 51.276 60.2335 51.5309C60.2335 51.7857 60.1825 52.038 60.0835 52.2728C59.9845 52.5076 59.8395 52.7203 59.6571 52.8983C59.4747 53.0762 59.2585 53.2159 59.0212 53.309C58.784 53.4022 58.5305 53.4469 58.2757 53.4406H27.9773ZM27.9773 75.7307C27.7225 75.737 27.469 75.6922 27.2317 75.5991C26.9945 75.5059 26.7783 75.3663 26.5958 75.1883C26.4134 75.0104 26.2684 74.7977 26.1694 74.5629C26.0704 74.328 26.0194 74.0758 26.0194 73.8209C26.0194 73.5661 26.0704 73.3138 26.1694 73.079C26.2684 72.8441 26.4134 72.6315 26.5958 72.4535C26.7783 72.2755 26.9945 72.1359 27.2317 72.0427C27.469 71.9496 27.7225 71.9049 27.9773 71.9112H43.4161C43.6709 71.9049 43.9244 71.9496 44.1616 72.0427C44.3989 72.1359 44.6151 72.2755 44.7975 72.4535C44.9799 72.6315 45.1249 72.8441 45.2239 73.079C45.3229 73.3138 45.3739 73.5661 45.3739 73.8209C45.3739 74.0758 45.3229 74.328 45.2239 74.5629C45.1249 74.7977 44.9799 75.0104 44.7975 75.1883C44.6151 75.3663 44.3989 75.5059 44.1616 75.5991C43.9244 75.6922 43.6709 75.737 43.4161 75.7307H27.9773ZM27.9773 64.5862C27.4705 64.5862 26.9846 64.385 26.6263 64.0267C26.268 63.6684 26.0667 63.1825 26.0667 62.6759C26.0667 62.1692 26.268 61.6833 26.6263 61.3251C26.9846 60.9668 27.4705 60.7655 27.9773 60.7655H47.458C47.9647 60.7655 48.4507 60.9668 48.809 61.3251C49.1673 61.6833 49.3686 62.1692 49.3686 62.6759C49.3686 63.1825 49.1673 63.6684 48.809 64.0267C48.4507 64.385 47.9647 64.5862 47.458 64.5862H27.9773ZM17.5484 25.597H36.5048V6.64072L28.741 14.4059L17.5484 25.597ZM89.13 60.6371L67.2482 82.5161C66.7752 82.9832 64.5108 83.6838 61.7827 84.3657C57.6953 85.3992 52.169 86.6462 51.1799 86.8354C50.7729 86.9131 50.3548 86.9131 49.9478 86.8354C49.233 86.6898 48.5767 86.3374 48.0605 85.8219C47.5443 85.3064 47.191 84.6506 47.0446 83.936C46.9633 83.5263 46.9633 83.1045 47.0446 82.6948C47.2536 81.6018 48.4682 76.1043 49.4877 72.0688C50.1662 69.3831 50.8587 67.1505 51.3644 66.6402L89.13 28.8642V3.93985H40.3248V27.5074C40.3248 27.7582 40.2754 28.0065 40.1794 28.2382C40.0833 28.4699 39.9426 28.6805 39.7652 28.8578C39.5877 29.0351 39.3771 29.1757 39.1453 29.2715C38.9135 29.3674 38.6651 29.4167 38.4142 29.4165H14.8449V98.7902H89.13V60.6371ZM92.0426 31.3572L92.0332 31.3631L88.448 34.9444L98.9352 45.4267C101.154 43.1988 102.531 41.8151 102.527 41.8069C101.617 40.8973 92.1851 31.4039 92.0426 31.3514V31.3572ZM89.5901 54.7881C89.6567 54.7116 89.7285 54.6398 89.805 54.5733L96.2305 48.1346L85.7433 37.6488L55.1786 68.2166L65.6623 78.7059C69.4601 74.9086 80.5522 63.8272 89.5866 54.794L89.5901 54.7881ZM61.9579 80.4003L53.4572 71.8971L53.1886 72.9866C52.2648 76.6508 51.2032 81.394 50.8646 83.0089C52.454 82.6714 57.1943 81.589 60.8554 80.6653C61.2502 80.5661 61.6169 80.4808 61.9579 80.4003Z" fill="black"/>
</svg>
