<svg width="104" height="104" viewBox="0 0 104 104" fill="none" xmlns="http://www.w3.org/2000/svg">
<g filter="url(#filter0_d_867_19537)">
<path d="M64.7177 47.6897C64.7177 51.1449 63.3451 54.4586 60.9019 56.9019C58.4586 59.3451 55.1449 60.7177 51.6897 60.7177C48.2344 60.7177 44.9207 59.3451 42.4775 56.9019C40.0342 54.4586 38.6616 51.1449 38.6616 47.6897C38.6616 46.9471 38.7398 46.2218 38.8744 45.5183H34.319V62.876C34.319 64.0832 35.2961 65.0603 36.5033 65.0603H66.8803C67.4589 65.0592 68.0134 64.8285 68.4221 64.419C68.8308 64.0095 69.0603 63.4546 69.0603 62.876V45.5183H64.5049C64.6395 46.2218 64.7177 46.9471 64.7177 47.6897ZM51.6897 56.375C52.8305 56.3747 53.9602 56.1497 55.0141 55.7129C56.068 55.276 57.0255 54.6359 57.832 53.8289C58.6385 53.022 59.2782 52.0642 59.7145 51.01C60.1509 49.9559 60.3753 48.8262 60.375 47.6853C60.3747 46.5445 60.1497 45.4148 59.7129 44.3609C59.276 43.307 58.6359 42.3495 57.8289 41.5429C57.022 40.7364 56.0642 40.0968 55.01 39.6604C53.9559 39.2241 52.8262 38.9997 51.6853 39C49.3812 39.0005 47.1718 39.9164 45.5429 41.546C43.9141 43.1757 42.9994 45.3856 43 47.6897C43.0005 49.9937 43.9164 52.2032 45.546 53.832C47.1757 55.4608 49.3856 56.3756 51.6897 56.375ZM62.1121 38.57H67.3189C67.6649 38.57 67.9967 38.4329 68.2417 38.1887C68.4867 37.9445 68.6249 37.6132 68.6261 37.2672V32.0604C68.6261 31.7137 68.4884 31.3812 68.2432 31.1361C67.9981 30.8909 67.6656 30.7532 67.3189 30.7532H62.1121C61.7654 30.7532 61.4329 30.8909 61.1878 31.1361C60.9426 31.3812 60.8049 31.7137 60.8049 32.0604V37.2672C60.8093 37.9838 61.3955 38.57 62.1121 38.57ZM51.6897 6C40.6329 6 30.0289 10.3923 22.2106 18.2106C14.3923 26.0289 10 36.6329 10 47.6897C10 58.7464 14.3923 69.3504 22.2106 77.1687C30.0289 84.987 40.6329 89.3793 51.6897 89.3793C57.1644 89.3793 62.5856 88.301 67.6436 86.2059C72.7016 84.1108 77.2975 81.0399 81.1687 77.1687C85.0399 73.2975 88.1108 68.7016 90.2059 63.6436C92.301 58.5856 93.3793 53.1644 93.3793 47.6897C93.3793 42.2149 92.301 36.7937 90.2059 31.7357C88.1108 26.6777 85.0399 22.0819 81.1687 18.2106C77.2975 14.3394 72.7016 11.2685 67.6436 9.17344C62.5856 7.07833 57.1644 6 51.6897 6ZM73.403 64.5783C73.403 67.2317 71.2317 69.403 68.5783 69.403H34.801C32.1476 69.403 29.9763 67.2317 29.9763 64.5783V30.801C29.9763 28.1476 32.1476 25.9763 34.801 25.9763H68.5783C71.2317 25.9763 73.403 28.1476 73.403 30.801V64.5783Z" fill="white"/>
</g>
<defs>
<filter id="filter0_d_867_19537" x="0" y="0" width="103.379" height="103.379" filterUnits="userSpaceOnUse" color-interpolation-filters="sRGB">
<feFlood flood-opacity="0" result="BackgroundImageFix"/>
<feColorMatrix in="SourceAlpha" type="matrix" values="0 0 0 0 0 0 0 0 0 0 0 0 0 0 0 0 0 0 127 0" result="hardAlpha"/>
<feOffset dy="4"/>
<feGaussianBlur stdDeviation="5"/>
<feComposite in2="hardAlpha" operator="out"/>
<feColorMatrix type="matrix" values="0 0 0 0 0 0 0 0 0 0 0 0 0 0 0 0 0 0 0.25 0"/>
<feBlend mode="normal" in2="BackgroundImageFix" result="effect1_dropShadow_867_19537"/>
<feBlend mode="normal" in="SourceGraphic" in2="effect1_dropShadow_867_19537" result="shape"/>
</filter>
</defs>
</svg>
