<svg width="47" height="47" viewBox="0 0 47 47" fill="none" xmlns="http://www.w3.org/2000/svg">
<path d="M23.5423 0.166992C36.2923 0.166992 46.7923 10.667 46.7923 23.417C46.7923 36.2607 36.2923 46.667 23.5423 46.667C10.6985 46.667 0.292252 36.2607 0.292252 23.417C0.292252 10.667 10.6985 0.166992 23.5423 0.166992ZM38.8235 10.9482C38.4485 11.5107 35.1673 15.7295 27.761 18.7295C28.511 20.2295 28.9798 21.3545 29.5423 22.667C36.1048 21.8232 42.6673 23.1357 43.3235 23.3232C43.3235 18.6357 41.636 14.3232 38.8235 10.9482ZM36.6673 8.60449C31.7923 4.29199 25.136 2.69824 18.8548 4.19824C19.4173 4.94824 22.9798 9.82324 26.261 15.8232C33.2923 13.1982 36.2923 9.16699 36.6673 8.60449ZM15.011 5.51074C9.47975 8.13574 5.35475 13.292 4.04225 19.3857C4.97975 19.4795 13.136 19.4795 22.4173 17.042C19.136 11.1357 15.5735 6.26074 15.011 5.51074ZM3.66725 23.5107C3.66725 28.5732 5.54225 33.2607 8.72975 36.7295C11.9173 31.292 18.4798 25.4795 25.6985 23.417C25.136 22.292 24.6673 21.167 24.011 20.042C14.1673 23.042 4.511 22.9482 3.66725 22.8545C3.66725 23.1357 3.66725 23.3232 3.66725 23.5107ZM11.261 39.167C17.1673 43.7607 24.8548 44.5107 31.2298 41.792C30.9485 40.0107 29.8235 33.917 27.011 26.6982C19.0423 29.417 13.4173 34.9482 11.261 39.167ZM34.6048 39.917C39.011 36.917 42.1985 32.1357 43.136 26.6045C42.386 26.417 36.9485 24.8232 30.761 25.7607C33.2923 32.9795 34.4173 38.792 34.6048 39.917Z" fill="white"/>
</svg>
