<svg width="48" height="46" viewBox="0 0 48 46" fill="none" xmlns="http://www.w3.org/2000/svg">
<path d="M16.0857 36.7295C16.0857 36.917 15.8982 37.0107 15.6169 37.0107C15.3357 37.1045 15.1482 36.917 15.1482 36.7295C15.1482 36.542 15.3357 36.3545 15.6169 36.3545C15.8982 36.3545 16.0857 36.542 16.0857 36.7295ZM13.1794 36.2607C13.2732 36.0732 13.5544 35.9795 13.8357 36.0732C14.1169 36.167 14.2107 36.3545 14.2107 36.542C14.1169 36.7295 13.8357 36.8232 13.6482 36.7295C13.3669 36.7295 13.1794 36.4482 13.1794 36.2607ZM17.3982 36.167C17.5857 36.0732 17.8669 36.2607 17.8669 36.4482C17.9607 36.6357 17.7732 36.7295 17.4919 36.8232C17.2107 36.917 16.9294 36.8232 16.9294 36.6357C16.9294 36.3545 17.1169 36.167 17.3982 36.167ZM23.4919 0.166992C36.5232 0.166992 47.1169 10.1045 47.1169 23.042C47.1169 33.4482 40.7419 42.3545 31.3669 45.4482C30.1482 45.7295 29.6794 44.9795 29.6794 44.3232C29.6794 43.5732 29.7732 39.6357 29.7732 36.542C29.7732 34.292 29.0232 32.8857 28.1794 32.1357C33.4294 31.5732 38.9607 30.8232 38.9607 21.8232C38.9607 19.1982 38.0232 17.9795 36.5232 16.292C36.7107 15.6357 37.5544 13.1982 36.2419 9.91699C34.2732 9.26074 29.7732 12.4482 29.7732 12.4482C27.8982 11.8857 25.9294 11.6982 23.8669 11.6982C21.8982 11.6982 19.9294 11.8857 18.0544 12.4482C18.0544 12.4482 13.4607 9.35449 11.5857 9.91699C10.2732 13.1982 11.0232 15.6357 11.3044 16.292C9.80443 17.9795 9.05443 19.1982 9.05443 21.8232C9.05443 30.8232 14.3982 31.5732 19.6482 32.1357C18.8982 32.792 18.3357 33.8232 18.1482 35.3232C16.7419 35.9795 13.3669 37.0107 11.3044 33.3545C9.99193 31.1045 7.64818 30.917 7.64818 30.917C5.39818 30.917 7.55443 32.417 7.55443 32.417C9.05443 33.0732 10.0857 35.792 10.0857 35.792C11.4919 40.0107 18.0544 38.6045 18.0544 38.6045C18.0544 40.5732 18.0544 43.7607 18.0544 44.417C18.0544 44.9795 17.6794 45.7295 16.4607 45.542C7.08568 42.3545 0.616932 33.4482 0.616932 23.042C0.616932 10.1045 10.5544 0.166992 23.4919 0.166992ZM9.71068 32.5107C9.80443 32.417 9.99193 32.5107 10.1794 32.6045C10.3669 32.792 10.3669 33.0732 10.2732 33.167C10.0857 33.2607 9.89818 33.167 9.71068 33.0732C9.61693 32.8857 9.52318 32.6045 9.71068 32.5107ZM8.67943 31.7607C8.77318 31.667 8.86693 31.667 9.05443 31.7607C9.24193 31.8545 9.33568 31.9482 9.33568 32.042C9.24193 32.2295 9.05443 32.2295 8.86693 32.1357C8.67943 32.042 8.58568 31.9482 8.67943 31.7607ZM11.6794 35.1357C11.8669 34.9482 12.1482 35.042 12.3357 35.2295C12.5232 35.417 12.5232 35.6982 12.4294 35.792C12.3357 35.9795 12.0544 35.8857 11.8669 35.6982C11.5857 35.5107 11.5857 35.2295 11.6794 35.1357ZM10.6482 33.7295C10.8357 33.6357 11.0232 33.7295 11.2107 33.917C11.3044 34.1045 11.3044 34.3857 11.2107 34.4795C11.0232 34.5732 10.8357 34.4795 10.6482 34.292C10.4607 34.1045 10.4607 33.8232 10.6482 33.7295Z" fill="white"/>
</svg>
