<svg width="43" height="43" viewBox="0 0 43 43" fill="none" xmlns="http://www.w3.org/2000/svg">
<path d="M21.63 10.6357C27.5362 10.6357 32.4112 15.5107 32.4112 21.417C32.4112 27.417 27.5362 32.1982 21.63 32.1982C15.63 32.1982 10.8487 27.417 10.8487 21.417C10.8487 15.5107 15.63 10.6357 21.63 10.6357ZM21.63 28.4482C25.4737 28.4482 28.5675 25.3545 28.5675 21.417C28.5675 17.5732 25.4737 14.4795 21.63 14.4795C17.6925 14.4795 14.5987 17.5732 14.5987 21.417C14.5987 25.3545 17.7862 28.4482 21.63 28.4482ZM35.3175 10.2607C35.3175 11.667 34.1925 12.792 32.7862 12.792C31.38 12.792 30.255 11.667 30.255 10.2607C30.255 8.85449 31.38 7.72949 32.7862 7.72949C34.1925 7.72949 35.3175 8.85449 35.3175 10.2607ZM42.4425 12.792C42.63 16.2607 42.63 26.667 42.4425 30.1357C42.255 33.5107 41.505 36.417 39.0675 38.9482C36.63 41.3857 33.63 42.1357 30.255 42.3232C26.7862 42.5107 16.38 42.5107 12.9112 42.3232C9.53624 42.1357 6.62999 41.3857 4.09874 38.9482C1.66124 36.417 0.911238 33.5107 0.723738 30.1357C0.536238 26.667 0.536238 16.2607 0.723738 12.792C0.911238 9.41699 1.66124 6.41699 4.09874 3.97949C6.62999 1.54199 9.53624 0.791992 12.9112 0.604492C16.38 0.416992 26.7862 0.416992 30.255 0.604492C33.63 0.791992 36.63 1.54199 39.0675 3.97949C41.505 6.41699 42.255 9.41699 42.4425 12.792ZM37.9425 33.792C39.0675 31.0732 38.7862 24.5107 38.7862 21.417C38.7862 18.417 39.0675 11.8545 37.9425 9.04199C37.1925 7.26074 35.7862 5.76074 34.005 5.10449C31.1925 3.97949 24.63 4.26074 21.63 4.26074C18.5362 4.26074 11.9737 3.97949 9.25499 5.10449C7.37999 5.85449 5.97374 7.26074 5.22374 9.04199C4.09874 11.8545 4.37999 18.417 4.37999 21.417C4.37999 24.5107 4.09874 31.0732 5.22374 33.792C5.97374 35.667 7.37999 37.0732 9.25499 37.8232C11.9737 38.9482 18.5362 38.667 21.63 38.667C24.63 38.667 31.1925 38.9482 34.005 37.8232C35.7862 37.0732 37.2862 35.667 37.9425 33.792Z" fill="white"/>
</svg>
