<svg width="43" height="43" viewBox="0 0 43 43" fill="none" xmlns="http://www.w3.org/2000/svg">
<path d="M9.82921 42.417H1.11046V14.3857H9.82921V42.417ZM5.42296 10.6357C2.70421 10.6357 0.454206 8.29199 0.454206 5.47949C0.454206 2.76074 2.70421 0.510742 5.42296 0.510742C8.23546 0.510742 10.4855 2.76074 10.4855 5.47949C10.4855 8.29199 8.23546 10.6357 5.42296 10.6357ZM42.3605 42.417H33.7355V28.8232C33.7355 25.542 33.6417 21.417 29.1417 21.417C24.6417 21.417 23.9855 24.8857 23.9855 28.542V42.417H15.2667V14.3857H23.6105V18.2295H23.7042C24.923 16.0732 27.7355 13.7295 31.9542 13.7295C40.7667 13.7295 42.4542 19.542 42.4542 27.042V42.417H42.3605Z" fill="white"/>
</svg>
