<svg width="49" height="39" viewBox="0 0 49 39" fill="none" xmlns="http://www.w3.org/2000/svg">
<path d="M43.7493 9.66699C43.7493 10.1357 43.7493 10.5107 43.7493 10.9795C43.7493 24.0107 33.9055 38.917 15.8118 38.917C10.1868 38.917 5.03053 37.3232 0.718033 34.5107C1.46803 34.6045 2.21803 34.6982 3.06178 34.6982C7.65553 34.6982 11.8743 33.1045 15.2493 30.4795C10.9368 30.3857 7.28053 27.5732 6.06178 23.6357C6.71803 23.7295 7.28053 23.8232 7.93678 23.8232C8.78053 23.8232 9.71803 23.6357 10.468 23.4482C5.96803 22.5107 2.59303 18.5732 2.59303 13.792V13.6982C3.90553 14.4482 5.49928 14.8232 7.09303 14.917C4.37428 13.1357 2.68678 10.1357 2.68678 6.76074C2.68678 4.88574 3.15553 3.19824 3.99928 1.79199C8.87428 7.69824 16.1868 11.6357 24.343 12.1045C24.1555 11.3545 24.0618 10.6045 24.0618 9.85449C24.0618 4.41699 28.468 0.0107422 33.9055 0.0107422C36.718 0.0107422 39.2493 1.13574 41.1243 3.10449C43.2805 2.63574 45.4368 1.79199 47.3118 0.666992C46.5618 3.01074 45.0618 4.88574 42.9993 6.10449C44.968 5.91699 46.9368 5.35449 48.6243 4.60449C47.3118 6.57324 45.6243 8.26074 43.7493 9.66699Z" fill="white"/>
</svg>
