<svg width="200" height="226" viewBox="0 0 200 226" fill="none" xmlns="http://www.w3.org/2000/svg">
<g clip-path="url(#clip0_865_15763)">
<path d="M162.699 127.741C158.974 122.048 149.676 118.249 149.676 112.556C147.813 101.172 153.401 85.9873 144.103 78.3876C132.181 67.6587 114.836 56.0357 99.7266 58.1219L98.9964 88.5056L98.2811 58.3752C91.957 59.7916 86.4162 63.5779 82.7987 68.9551C69.7154 85.9873 56.7066 99.2792 43.6829 114.464C28.7816 129.648 49.256 150.525 47.4082 169.494C47.2903 174.285 45.5872 178.902 42.5653 182.622C67.5249 182.205 91.963 175.35 98.9666 173.234C106.879 175.633 136.995 184.052 164.994 182.443C163.984 180.772 163.202 178.973 162.669 177.094C155.264 161.909 170.135 142.925 162.699 127.741Z" fill="#1E1815"/>
<path d="M43.6829 114.465C56.7066 99.281 69.7154 85.9891 82.7987 68.9569C86.4162 63.5797 91.957 59.7934 98.2811 58.377L97.402 22.2266L46.5142 27.4718C37.037 34.9224 29.035 44.6977 22.6721 64.1438C19.3939 74.068 23.1341 91.0704 20.1687 101.68C16.2497 115.538 6.45957 113.214 3.82205 130.648C2.89817 137.19 7.77088 153.387 8.29242 158.648C9.46962 172.401 2.94287 175.173 2.94287 175.173C6.59368 177.051 13.2843 180.165 20.1985 180.657L22.5827 169.63C24.2815 173.296 24.2964 180.91 24.2964 180.91C29.0052 181.372 37.8863 182.698 42.6696 182.624C45.6807 178.9 47.3733 174.283 47.4827 169.496C49.256 150.526 28.8115 129.65 43.6829 114.465Z" fill="#2E2521"/>
<path d="M189.671 158.648C190.133 153.387 195.989 141.496 195.02 134.955C192.427 117.535 180.64 110.964 176.751 97.1054C173.771 86.4957 178.659 74.0681 175.38 64.1438C168.973 44.6977 160.971 34.8777 151.538 27.4718L100.591 22.2266L99.7266 58.1237C114.836 55.9779 132.256 67.6605 144.103 78.3894C153.401 85.9891 147.813 101.173 149.676 112.558C149.676 118.25 158.974 122.05 162.699 127.742C170.15 142.927 155.249 161.911 162.699 177.095C163.232 178.974 164.014 180.774 165.024 182.445C168.988 182.221 177.258 180.955 181.058 180.344C183.233 179.956 179.895 169.63 179.895 169.63C181.788 169.138 185.066 179.286 186.869 178.571C189.104 177.766 193.068 176.171 195.139 175.113C195.139 175.173 188.508 172.401 189.671 158.648Z" fill="#2E2521"/>
<path d="M13.4186 176.632L7.36873 160.643C4.68287 154.185 2.68501 147.463 1.40822 140.586C0.0879117 133.577 1.02711 126.329 4.09045 119.888C6.12313 116.311 8.56878 112.985 11.3772 109.979C14.4915 106.358 17.7251 102.618 19.4685 98.2218C22.0316 91.6801 21.1077 84.8107 20.1093 77.5984C19.4907 73.7537 19.1521 69.8692 19.096 65.9755C19.2748 48.094 29.6908 26.7852 58.3906 20.2286C72.5617 16.995 79.3418 24.4159 87.9249 33.8036C89.3108 35.2938 90.7413 36.918 92.291 38.5273L91.6204 39.1383C90.0906 37.5091 88.6402 35.9246 87.2693 34.3848C78.5669 24.848 72.2786 17.9934 58.6291 21.078C30.4061 27.5153 20.2136 48.4814 20.005 65.9755C20.0613 69.8346 20.4 73.6844 21.0183 77.4941C21.9869 84.5275 22.9703 91.8143 20.3179 98.5645C18.5298 103.035 15.2366 106.909 12.0626 110.59C9.30817 113.542 6.90314 116.802 4.89512 120.305C1.8981 126.581 0.969403 133.645 2.24269 140.482C3.52702 147.299 5.52484 153.961 8.2032 160.36L14.2531 176.245L13.4186 176.632Z" fill="#1E1815"/>
<path d="M198.403 174.01C192.263 172.043 189.149 164.801 189.253 158.676C189.343 153.088 191.384 147.784 193.366 142.643C193.634 141.972 193.888 141.287 194.141 140.616C196.331 134.82 198.194 128.695 196.942 122.735C195.586 116.312 190.848 111.231 186.273 106.343C181.311 101.009 176.17 95.51 175.321 88.2382C175.092 84.8485 175.368 81.4436 176.14 78.1351C176.334 77.0921 176.528 76.049 176.677 74.991C177.866 66.5933 177.039 58.0331 174.264 50.0185C171.489 42.0039 166.845 34.7652 160.717 28.9014C154.529 23.2846 147.055 19.2759 138.953 17.2282C130.85 15.1806 122.369 15.1569 114.255 17.1592L114.091 16.2055C122.353 14.1613 130.99 14.1793 139.243 16.2581C147.495 18.3369 155.111 22.4126 161.418 28.1265C167.65 34.0948 172.373 41.4599 175.197 49.6138C178.022 57.7676 178.866 66.4763 177.66 75.0208C177.496 76.0639 177.317 77.1219 177.124 78.1798C176.362 81.3991 176.086 84.7139 176.304 88.0147C177.109 94.9885 181.922 100.144 187.018 105.598C191.682 110.605 196.51 115.776 197.911 122.437C199.207 128.636 197.315 134.969 195.08 140.884L194.29 142.926C192.338 147.977 190.326 153.223 190.237 158.647C190.132 164.443 193.038 171.268 198.76 173.101L198.403 174.01Z" fill="#1E1815"/>
<path d="M85.8834 21.9278C82.0255 18.6456 79.3679 14.1743 78.3285 9.21699C78.2592 8.9035 78.2827 8.57664 78.3961 8.27628C78.5095 7.97592 78.7078 7.71504 78.9669 7.52546C79.226 7.33588 79.5346 7.2258 79.8552 7.20864C80.1758 7.19149 80.4944 7.268 80.7723 7.42884C84.0949 9.4863 86.4763 12.7667 87.4033 16.5633C87.1351 12.7486 86.8768 8.93883 86.6285 5.13405C86.5391 3.64392 86.6285 1.75146 87.8355 0.842483C88.3862 0.506423 89.0311 0.358156 89.6733 0.419958C90.3155 0.48176 90.9203 0.750293 91.3969 1.18521C92.3536 2.05251 93.0631 3.15801 93.4532 4.38898C95.4297 9.53759 95.7986 15.1645 94.5112 20.527" fill="#2E2521"/>
<path d="M67.793 157.113C67.793 157.113 78.4623 152.896 100.755 153.954V168.452L77.5235 175.292L67.793 157.113Z" fill="#8A96AD"/>
<path d="M132.882 157.113C132.882 157.113 122.213 152.896 99.9204 153.954V168.452L123.166 175.292L132.882 157.113Z" fill="#8A96AD"/>
<path d="M13.8953 258.514C13.8953 256.696 9.9763 158.676 96.2844 158.676C194.394 158.676 181.818 258.514 181.818 258.514H13.8953Z" fill="#EFDDD2"/>
<path d="M98.8473 182.637C117.325 182.205 121.944 168.794 123.032 163.385C114.211 161.329 105.177 160.328 96.1204 160.404C88.9033 160.358 81.7044 161.132 74.6626 162.714C75.4375 167.632 79.3416 183.174 98.8473 182.637Z" fill="#A86254"/>
<path d="M81.3084 170.135L80.7868 258.515H10.8403C10.8403 258.515 13.6269 187.585 58.0922 166.932L81.3084 170.135Z" fill="#A6AFC5"/>
<path d="M80.8018 140.9L81.6958 151.494C92.6429 154.405 104.118 154.721 115.209 152.418L115.402 137.264L80.8018 140.9Z" fill="#914C40"/>
<path d="M81.6958 151.494L83.0369 167.588C83.0369 167.588 84.9443 176.245 98.1021 176.245C112.854 176.245 115.015 167.617 115.015 167.617L115.209 152.403C104.119 154.711 92.6441 154.399 81.6958 151.494Z" fill="#A86254"/>
<path d="M150.45 53.6365C150.45 53.6365 156.262 71.8905 153.341 98.2509C150.659 122.555 131.645 146.829 101.798 148.766C73.7387 150.584 49.7328 139.095 40.9857 99.741C32.2387 60.3868 46.1118 31.7018 82.1728 24.5045C117.668 17.3817 143.715 30.4948 150.45 53.6365Z" fill="#A86254"/>
<path d="M90.6367 16.6968C90.6367 16.6968 14.1039 5.93813 31.6427 93.3042C31.6427 93.3042 35.8299 88.1931 46.0075 89.0425C56.185 89.8918 94.0938 57.7349 95.271 46.6037C95.271 46.6037 126.877 88.9829 152.76 88.9829C158.199 88.9829 163.772 91.5757 164.934 93.3489C166.097 95.1222 179.404 55.3358 158.452 33.1925C132.718 5.93813 106.298 10.9301 90.6367 16.6968Z" fill="#2E2521"/>
<path d="M143.179 115.508L144.445 92.7983C144.445 92.7983 170.716 84.9007 171.879 106.493C173.041 128.084 150.287 129.172 143.179 115.508Z" fill="#A86254"/>
<path d="M150.555 116.759H150.734C150.786 116.735 150.833 116.7 150.872 116.658C150.91 116.616 150.941 116.566 150.96 116.512C150.979 116.458 150.988 116.4 150.985 116.343C150.982 116.285 150.967 116.229 150.942 116.177C150.942 116.073 146.278 105.746 153.52 100.874C154.574 100.083 155.779 99.5167 157.061 99.2117C158.343 98.9066 159.674 98.8688 160.971 99.1005C163.718 99.8849 166.092 101.63 167.661 104.018C167.723 104.115 167.82 104.183 167.932 104.208C168.043 104.234 168.161 104.213 168.257 104.152C168.307 104.123 168.35 104.084 168.384 104.038C168.418 103.992 168.442 103.939 168.454 103.883C168.467 103.827 168.468 103.769 168.457 103.713C168.446 103.657 168.424 103.603 168.392 103.556C166.708 100.968 164.138 99.0817 161.164 98.2512C159.751 97.989 158.299 98.0217 156.899 98.3474C155.499 98.673 154.181 99.2846 153.028 100.144C145.175 105.389 150.048 116.431 150.152 116.535C150.189 116.609 150.246 116.67 150.318 116.71C150.39 116.75 150.473 116.767 150.555 116.759Z" fill="#683937"/>
<path d="M161.209 108.295C161.277 108.295 161.344 108.28 161.405 108.252C161.467 108.223 161.522 108.182 161.567 108.131C161.63 108.036 161.655 107.921 161.639 107.809C161.622 107.696 161.565 107.593 161.477 107.52C161.477 107.52 154.146 102.171 148.752 107.52C148.674 107.602 148.631 107.711 148.632 107.823C148.634 107.936 148.679 108.044 148.759 108.124C148.839 108.204 148.946 108.249 149.059 108.25C149.172 108.252 149.281 108.209 149.362 108.131C154.22 103.258 160.881 108.131 160.956 108.131C161.021 108.21 161.11 108.267 161.209 108.295Z" fill="#683937"/>
<path d="M52.9962 115.507L46.4396 92.5595C46.4396 92.5595 25.4288 84.9002 24.341 106.492C23.2533 128.084 45.933 129.172 52.9962 115.507Z" fill="#A86254"/>
<path d="M45.6646 116.759H45.4858C45.3803 116.71 45.2979 116.622 45.2562 116.514C45.2145 116.405 45.2166 116.285 45.2622 116.178C45.2622 116.073 49.9263 105.747 42.6843 100.874C41.6311 100.082 40.4259 99.5157 39.1439 99.2106C37.8619 98.9055 36.5308 98.8681 35.2337 99.1008C32.4917 99.8883 30.1231 101.633 28.5579 104.018C28.4967 104.117 28.3987 104.187 28.2855 104.214C28.1723 104.241 28.0532 104.221 27.9544 104.16C27.8556 104.099 27.7852 104.001 27.7587 103.887C27.7321 103.774 27.7516 103.655 27.8129 103.556C29.5095 100.942 32.1084 99.0434 35.1145 98.2216C36.5255 97.9615 37.975 97.9954 39.3724 98.321C40.7698 98.6466 42.0849 99.257 43.2357 100.114C51.1035 105.359 46.2159 116.401 46.1265 116.505C46.0904 116.594 46.0247 116.668 45.9406 116.714C45.8564 116.76 45.759 116.776 45.6646 116.759Z" fill="#683937"/>
<path d="M34.9954 108.295C34.9299 108.294 34.8655 108.278 34.8064 108.25C34.7473 108.222 34.6949 108.181 34.6527 108.131C34.6179 108.085 34.5925 108.033 34.5782 107.977C34.5638 107.922 34.5607 107.864 34.569 107.807C34.5773 107.75 34.5969 107.695 34.6267 107.646C34.6564 107.597 34.6956 107.554 34.7421 107.52C34.8166 107.52 42.0735 102.171 47.4678 107.52C47.5095 107.56 47.5429 107.608 47.5659 107.66C47.5889 107.713 47.6012 107.77 47.6019 107.828C47.6026 107.885 47.5917 107.943 47.57 107.996C47.5483 108.049 47.5161 108.098 47.4753 108.139C47.4346 108.179 47.3861 108.212 47.3327 108.233C47.2793 108.255 47.2221 108.266 47.1645 108.265C47.1069 108.264 47.0499 108.252 46.9971 108.229C46.9443 108.206 46.8966 108.173 46.8568 108.131C41.9841 103.258 35.3233 108.131 35.2637 108.131C35.192 108.211 35.0988 108.268 34.9954 108.295Z" fill="#683937"/>
<path d="M100.546 119.233C93.93 119.233 93.17 113.735 93.0955 113.675C93.0828 113.563 93.1147 113.45 93.1844 113.361C93.254 113.271 93.3559 113.213 93.468 113.198C93.5822 113.185 93.6969 113.217 93.7885 113.286C93.88 113.355 93.9414 113.457 93.9598 113.571C93.9598 113.794 94.7495 118.98 101.679 118.309C101.792 118.304 101.903 118.341 101.991 118.412C102.079 118.484 102.137 118.585 102.155 118.697C102.162 118.754 102.157 118.811 102.14 118.866C102.124 118.921 102.097 118.972 102.061 119.016C102.025 119.06 101.981 119.097 101.93 119.124C101.88 119.151 101.825 119.168 101.768 119.174C101.381 119.218 100.948 119.233 100.546 119.233Z" fill="#683937"/>
<path d="M83.8567 118.339C83.0371 122.451 76.1379 124.538 68.4339 123.018C60.73 121.498 55.1569 116.923 55.9764 112.81C56.796 108.698 63.6953 106.596 71.3844 108.131C79.0734 109.666 84.6763 114.226 83.8567 118.339Z" fill="#914C40"/>
<path d="M61.9371 82.5309C61.9371 82.5309 57.6307 78.7013 66.7353 73.918C75.84 69.1347 79.0289 70.1927 80.5041 72.5769C81.9793 74.9611 79.7739 78.0308 74.5436 80.6087C68.3894 83.7081 64.2617 84.7214 61.9371 82.5309Z" fill="#1E1815"/>
<path d="M78.3281 98.1037C78.3281 101.084 76.3611 103.438 73.9471 103.438C71.5331 103.438 69.5811 101.054 69.5811 98.1037C69.5811 95.1532 71.5927 92.7988 74.0067 92.7988C76.4207 92.7988 78.3281 95.1681 78.3281 98.1037Z" fill="#040504"/>
<path d="M125.059 98.1037C125.059 101.084 123.092 103.438 120.678 103.438C118.264 103.438 116.312 101.054 116.312 98.1037C116.312 95.1532 118.264 92.7988 120.678 92.7988C123.092 92.7988 125.059 95.1681 125.059 98.1037Z" fill="#040504"/>
<path d="M112.363 118.339C113.167 122.451 120.082 124.538 127.771 123.018C135.46 121.498 141.048 116.923 140.243 112.81C139.438 108.698 132.524 106.596 124.82 108.131C117.116 109.666 111.543 114.226 112.363 118.339Z" fill="#914C40"/>
<path d="M132.122 81.7261C132.122 81.7261 136.443 77.8965 127.324 73.1132C118.204 68.3299 115.03 69.373 113.555 71.7721C112.08 74.1712 114.285 77.2259 119.515 79.8038C125.655 82.9033 129.782 83.857 132.122 81.7261Z" fill="#1E1815"/>
<path d="M102.006 108.788C101.91 108.785 101.817 108.75 101.743 108.688C101.669 108.627 101.617 108.542 101.596 108.448C101.576 108.353 101.587 108.255 101.629 108.168C101.671 108.081 101.741 108.011 101.828 107.968C103.944 106.929 105.698 105.278 106.864 103.229C108.071 100.801 107.699 97.1497 106.074 95.5553C105.559 95.0898 104.9 94.814 104.206 94.7734C103.513 94.7327 102.826 94.9297 102.26 95.3317L102.036 95.4659C96.7165 98.5504 94.3174 97.1646 93.2296 95.4659C91.2626 92.3217 93.021 79.0745 93.2296 76.2581C93.2409 76.1449 93.295 76.0402 93.3808 75.9654C93.4666 75.8906 93.5778 75.8514 93.6915 75.8558C93.8075 75.8672 93.9145 75.9234 93.9896 76.0124C94.0648 76.1015 94.1022 76.2164 94.0938 76.3326C93.5574 83.9025 92.4398 92.5452 93.9746 95.0039C95.2561 97.0305 97.8192 96.9411 101.619 94.7208L101.887 94.5718C102.616 94.0846 103.488 93.8578 104.361 93.9281C105.235 93.9984 106.059 94.3618 106.7 94.9592C108.578 96.807 109.025 100.92 107.654 103.632C106.405 105.867 104.487 107.654 102.17 108.743C102.119 108.769 102.064 108.785 102.006 108.788Z" fill="#683937"/>
<path d="M81.3086 170.136L71.1162 183.949C71.1162 183.949 60.8492 173.712 56.9302 164.578L67.7783 157.127C71.8113 161.934 76.3472 166.295 81.3086 170.136Z" fill="#A6AFC5"/>
<path d="M81.3086 170.136L71.1162 183.95C71.1162 183.95 60.8492 173.713 56.9302 164.578" stroke="#8A96AD" stroke-miterlimit="10"/>
<path d="M118.919 170.135L119.441 258.515H189.477C189.477 258.515 186.69 187.585 142.225 166.932L118.919 170.135Z" fill="#A6AFC5"/>
<path d="M118.919 170.136L129.112 183.949C129.112 183.949 139.379 173.712 143.298 164.578L132.45 157.127C128.417 161.934 123.881 166.295 118.919 170.136Z" fill="#A6AFC5"/>
<path d="M118.919 170.136L129.112 183.95C129.112 183.95 139.379 173.713 143.298 164.578" stroke="#8A96AD" stroke-miterlimit="10"/>
<path d="M168.675 95.9717C148.616 93.1947 129.909 84.2782 115.12 70.4459C100.395 56.5362 90.334 38.4125 86.3154 18.5597L87.1946 18.3809C91.1777 38.0456 101.145 55.9973 115.731 69.7753C130.38 83.4935 148.916 92.3423 168.794 95.1074L168.675 95.9717Z" fill="#1E1815"/>
<path d="M105.732 98.2373C105.809 93.7409 107.218 89.3683 109.78 85.6724C112.342 81.9766 115.943 79.1235 120.127 77.4738C124.31 75.8242 128.889 75.4521 133.284 76.4046C137.679 77.3571 141.693 79.5915 144.819 82.8251C147.944 86.0588 150.04 90.1465 150.842 94.5715C151.645 98.9965 151.117 103.56 149.326 107.685C147.534 111.81 144.56 115.311 140.779 117.746C136.998 120.181 132.58 121.44 128.084 121.364C122.055 121.254 116.316 118.758 112.126 114.422C107.936 110.087 105.636 104.266 105.732 98.2373ZM106.939 98.2373C106.863 102.496 108.052 106.682 110.355 110.265C112.659 113.849 115.973 116.668 119.879 118.367C123.785 120.066 128.108 120.568 132.299 119.81C136.491 119.052 140.364 117.068 143.428 114.109C146.491 111.149 148.608 107.348 149.511 103.185C150.414 99.0216 150.061 94.6845 148.499 90.7218C146.936 86.7592 144.233 83.3491 140.731 80.923C137.23 78.497 133.088 77.1639 128.829 77.0924C123.12 77.0047 117.61 79.1847 113.506 83.1542C109.403 87.1237 107.041 92.5587 106.939 98.2671V98.2373Z" fill="#1C1D28"/>
<path d="M43.5637 97.2678C43.638 92.7707 45.0443 88.3966 47.6048 84.6987C50.1653 81.0009 53.7648 78.1454 57.9483 76.4935C62.1317 74.8416 66.7111 74.4674 71.1072 75.4183C75.5033 76.3691 79.5187 78.6024 82.6455 81.8355C85.7723 85.0686 87.8701 89.1564 88.6735 93.5818C89.4769 98.0073 88.9499 102.572 87.1591 106.697C85.3682 110.823 82.3941 114.325 78.6127 116.761C74.8314 119.196 70.4127 120.456 65.9156 120.38C59.8896 120.27 54.153 117.776 49.9631 113.443C45.7732 109.111 43.472 103.294 43.5637 97.2678ZM44.7856 97.2678C44.7213 101.525 45.9207 105.706 48.2321 109.282C50.5434 112.858 53.8631 115.668 57.7714 117.358C61.6797 119.047 66.0011 119.54 70.1895 118.774C74.3778 118.008 78.245 116.017 81.3023 113.054C84.3595 110.09 86.4695 106.287 87.3656 102.124C88.2616 97.9618 87.9035 93.6271 86.3364 89.6681C84.7693 85.7092 82.0637 82.3036 78.5616 79.8821C75.0594 77.4605 70.9179 76.1316 66.6606 76.0634C60.9483 75.9757 55.435 78.1602 51.3329 82.1366C47.2308 86.1129 44.8758 91.5556 44.7856 97.2678Z" fill="#1C1D28"/>
<path d="M88.4907 95.3899C88.5953 95.3956 88.6992 95.3696 88.7888 95.3154C97.5358 90.398 106.223 95.5538 106.298 95.5985C106.365 95.6419 106.44 95.6714 106.519 95.6851C106.597 95.6988 106.678 95.6966 106.756 95.6785C106.834 95.6605 106.907 95.6269 106.972 95.5799C107.037 95.5329 107.091 95.4733 107.132 95.4048C107.216 95.2681 107.242 95.104 107.206 94.948C107.17 94.7919 107.074 94.6563 106.938 94.5704C106.834 94.5704 97.5358 88.9973 88.1927 94.2574C88.0554 94.3411 87.9555 94.4745 87.9139 94.6299C87.8723 94.7853 87.8921 94.9507 87.9692 95.0919C88.0207 95.1844 88.0966 95.261 88.1885 95.3135C88.2804 95.366 88.3849 95.3925 88.4907 95.3899Z" fill="#1C1D28"/>
<path d="M106.64 94.9577C105.999 94.3603 105.175 93.9969 104.301 93.9266C103.428 93.8563 102.556 94.0831 101.827 94.5703L101.559 94.7193C100.034 95.7573 98.2471 96.3459 96.4033 96.4181C96.4157 96.72 96.4607 97.0198 96.5374 97.3121C98.0276 101.067 101.827 107.937 101.783 107.967C101.696 108.009 101.626 108.08 101.584 108.167C101.543 108.254 101.531 108.352 101.552 108.446C101.572 108.541 101.624 108.625 101.698 108.687C101.772 108.748 101.865 108.783 101.961 108.786C102.02 108.8 102.081 108.8 102.14 108.786C104.446 107.692 106.353 105.905 107.594 103.675C109.01 100.844 108.563 96.8055 106.64 94.9577Z" fill="#A86254"/>
<path d="M106.64 94.9577C105.999 94.3603 105.175 93.9969 104.301 93.9266C103.428 93.8563 102.556 94.0831 101.827 94.5703L101.559 94.7193C100.034 95.7573 98.2471 96.3459 96.4033 96.4181C96.4157 96.72 96.4607 97.0198 96.5374 97.3121C98.4851 97.1925 100.367 96.5602 101.991 95.4793L102.215 95.3452C102.781 94.9431 103.468 94.7462 104.161 94.7868C104.855 94.8274 105.514 95.1032 106.03 95.5687C107.654 97.1631 108.026 100.814 106.819 103.243C105.651 105.286 103.897 106.932 101.783 107.967C101.696 108.009 101.626 108.08 101.584 108.167C101.543 108.254 101.531 108.352 101.552 108.446C101.572 108.541 101.624 108.625 101.698 108.687C101.772 108.748 101.865 108.783 101.961 108.786C102.02 108.8 102.081 108.8 102.14 108.786C104.446 107.692 106.353 105.905 107.594 103.675C109.01 100.844 108.563 96.8055 106.64 94.9577Z" fill="#683936"/>
</g>
<defs>
<clipPath id="clip0_865_15763">
<rect width="198.187" height="225.009" fill="white" transform="translate(0.841797 0.410156)"/>
</clipPath>
</defs>
</svg>
