<svg width="176" height="192" viewBox="0 0 176 192" fill="none" xmlns="http://www.w3.org/2000/svg">
<g clip-path="url(#clip0_867_23356)">
<path d="M175.404 127.853V64.1456C175.402 58.479 173.905 52.9127 171.063 48.0058C168.221 43.0988 164.135 39.024 159.214 36.1904L103.892 4.32452C98.9694 1.49143 93.3858 0 87.7021 0C82.0185 0 76.4349 1.49143 71.5121 4.32452L16.1931 36.1781C11.2698 39.0118 7.1813 43.0884 4.33876 47.9978C1.49622 52.9072 -0.000184462 58.4765 1.7055e-08 64.1456L1.7055e-08 127.853C0.00166605 133.519 1.49863 139.086 4.34051 143.993C7.18239 148.9 11.2691 152.975 16.19 155.808L71.5121 187.674C76.4349 190.507 82.0185 191.998 87.7021 191.998C93.3858 191.998 98.9694 190.507 103.892 187.674L159.214 155.82C164.137 152.986 168.224 148.909 171.066 143.999C173.908 139.09 175.404 133.521 175.404 127.853Z" fill="url(#paint0_radial_867_23356)"/>
<path d="M159.217 36.1763L103.892 4.32892C98.9705 1.49429 93.3872 0.00195312 87.7037 0.00195313C82.0202 0.00195312 76.4369 1.49429 71.5152 4.32892L16.19 36.1763C11.2677 39.011 7.18018 43.0878 4.33826 47.997C1.49633 52.9063 0.000127801 58.4751 0 64.1438L0 127.857C0.00228988 133.524 1.49952 139.09 4.34133 143.997C7.18315 148.904 11.2695 152.979 16.19 155.812L71.5152 187.672C76.4369 190.507 82.0202 191.999 87.7037 191.999C93.3872 191.999 98.9705 190.507 103.892 187.672L159.217 155.825C164.138 152.991 168.224 148.916 171.066 144.009C173.908 139.102 175.405 133.536 175.407 127.869V64.1438C175.407 58.4751 173.911 52.9063 171.069 47.997C168.227 43.0878 164.14 39.011 159.217 36.1763ZM170.996 125.952C170.997 131.62 169.5 137.187 166.658 142.094C163.816 147.002 159.729 151.076 154.806 153.908L113.9 177.461C108.978 180.295 103.395 181.788 97.7116 181.788C92.0281 181.788 86.4448 180.295 81.5231 177.461L40.6168 153.908C35.696 151.074 31.6095 147 28.7677 142.093C25.9258 137.186 24.4287 131.619 24.4267 125.952V70.7118C24.4267 62.2699 29.6632 56.9646 37.2192 52.8942L85.2995 25.6455C93.1173 21.3201 103.886 21.5567 113.9 27.3413L154.806 50.9035C159.73 53.734 163.818 57.8082 166.66 62.7158C169.503 67.6234 170.998 73.1913 170.996 78.8587V125.952Z" fill="#CE3F00"/>
<path d="M87.7021 16.1372C90.5448 16.1341 93.3383 16.8757 95.8033 18.2876L151.122 50.1565C153.582 51.5775 155.625 53.6174 157.046 56.0724C158.468 58.5274 159.219 61.3115 159.224 64.1464V127.854C159.219 130.689 158.468 133.473 157.046 135.928C155.625 138.383 153.582 140.422 151.122 141.843L95.7972 173.697C93.3349 175.116 90.5413 175.863 87.6975 175.863C84.8538 175.863 82.0602 175.116 79.5979 173.697L24.282 141.843C21.8226 140.422 19.7803 138.382 18.3592 135.927C16.9381 133.472 16.188 130.688 16.1839 127.854V64.1464C16.188 61.3117 16.9381 58.5277 18.3592 56.0727C19.7803 53.6177 21.8226 51.5777 24.282 50.1565L79.6041 18.303C82.0678 16.8907 84.8605 16.1492 87.7021 16.1526V16.1372ZM87.7021 2.11894e-06C82.0182 -0.00118379 76.4343 1.49064 71.5121 4.32538L16.1931 36.1789C11.2698 39.0127 7.1813 43.0892 4.33876 47.9986C1.49622 52.9081 -0.000184462 58.4773 1.7055e-08 64.1464L1.7055e-08 127.854C0.00166605 133.52 1.49863 139.087 4.34051 143.994C7.18239 148.901 11.2691 152.976 16.19 155.809L71.5121 187.675C76.4347 190.508 82.0184 192 87.7021 192C93.3859 192 98.9696 190.508 103.892 187.675L159.214 155.821C164.135 152.987 168.221 148.913 171.063 144.006C173.905 139.099 175.402 133.532 175.404 127.866V64.1464C175.402 58.4798 173.905 52.9135 171.063 48.0066C168.221 43.0997 164.135 39.0248 159.214 36.1912L103.892 4.32538C98.9704 1.48984 93.3862 -0.00205231 87.7021 2.11894e-06Z" fill="#FDBB1E"/>
<path d="M154.412 147.431L136.854 157.446C124.453 164.287 108.981 173.267 96.4655 179.601C93.3468 180.885 89.9686 181.417 86.6049 181.155C83.2413 180.893 79.9869 179.844 77.1059 178.093C65.6821 170.954 54.3302 163.683 43.0501 156.282C36.0209 151.539 28.8192 147.026 21.9902 141.976C17.9211 138.572 15.6386 132.972 16.2208 127.844C16.2255 130.682 16.9774 133.469 18.4013 135.927C19.8252 138.384 21.871 140.425 24.3343 141.847L79.6564 173.697C82.12 175.112 84.913 175.857 87.756 175.857C90.5989 175.857 93.392 175.112 95.8556 173.697L151.184 141.847C153.642 140.424 155.684 138.384 157.105 135.929C158.526 133.474 159.276 130.691 159.282 127.857V64.1434C159.276 61.3089 158.526 58.5255 157.105 56.0708C155.684 53.6161 153.642 51.5758 151.184 50.1535L95.8587 18.303C115.154 26.9292 133.965 36.3786 152.727 46.0278C155.585 47.4312 158.08 49.4727 160.018 51.9936C162.713 55.486 164.231 59.7386 164.355 64.1434C164.589 70.8649 164.808 77.5864 164.971 84.2988C165.369 98.5743 165.553 112.868 165.683 127.129C165.982 135.312 161.555 143.349 154.412 147.431Z" fill="#FFDC48"/>
<path d="M175.407 64.1443C174.56 53.2172 168.304 43.3161 158.749 38.232C157.517 37.507 153.346 35.4672 151.973 34.733C135.441 26.1621 118.705 17.198 102.38 8.24004C93.3083 2.94084 81.5446 3.32484 72.8089 9.01725C60.1797 16.4546 41.3684 27.3079 28.5697 34.5947C25.8591 36.2075 18.2785 40.195 15.8112 42.0259C8.59402 47.1991 4.22308 55.9113 4.21692 64.7587C3.798 83.3719 3.21275 102.299 2.39031 120.869C2.33178 123.563 1.87898 128.171 2.05764 130.868C2.5012 140.815 7.81779 150.062 16.1931 155.816C11.2711 152.982 7.18355 148.906 4.34113 143.998C1.49871 139.09 0.0015212 133.522 0 127.854L0 64.1443C0.001978 58.4776 1.49908 52.9112 4.34092 48.0042C7.18277 43.0972 11.2693 39.0224 16.19 36.1891L71.5152 4.32938C76.4378 1.49569 82.0215 0.00390625 87.7052 0.00390625C93.389 0.00390625 98.9727 1.49569 103.895 4.32938L159.22 36.1768C164.142 39.0118 168.229 43.0888 171.07 47.998C173.912 52.9073 175.408 58.4759 175.407 64.1443Z" fill="#FFDC48"/>
<path d="M39.357 83.8463C39.2238 84.1058 39.1857 84.4035 39.2492 84.6881C39.6558 86.6879 40.7647 88.4666 41.7381 90.2392C45.2681 96.3217 49.2756 102.122 53.3077 107.885C58.6705 115.374 63.9224 123.146 69.9659 130.071C70.0695 130.184 70.184 130.287 70.3078 130.378C70.219 130.303 70.123 130.237 70.0214 130.181C69.864 130.091 69.6965 130.02 69.5224 129.969L69.778 129.994C78.2427 130.642 86.9784 130.243 95.4831 130.015C98.8375 129.843 102.13 129.797 105.399 129.303L105.605 129.263H105.71C105.563 129.304 105.419 129.356 105.278 129.416C105.042 129.518 104.82 129.652 104.619 129.813C110.724 122.265 115.952 113.725 121.21 105.525C123.695 101.59 126.101 97.5997 128.353 93.5969C129.949 90.6785 131.741 87.6095 132.628 84.5621C132.656 84.9426 132.763 85.3132 132.942 85.6501C133.121 85.9871 133.369 86.283 133.669 86.519C133.837 86.6551 134.028 86.7592 134.233 86.8262C134.489 86.9091 134.495 86.8815 134.449 86.8753C132.653 86.8753 130.712 87.5634 128.904 88.1041C126.748 88.783 124.592 89.5818 122.396 90.402C118.231 91.938 113.081 94.0546 108.759 95.1881C105.346 96.0821 103.193 95.8302 101.567 92.3373C98.9423 86.946 95.7295 76.1786 93.7273 70.4493C92.5814 67.1285 91.4571 63.7923 89.9047 60.6466C89.3379 59.7004 88.8574 58.4225 87.7115 58.0938C90.4838 58.401 94.3896 67.0763 95.7973 69.583C97.935 73.8162 99.8571 78.1385 101.893 82.3625C103.344 85.2349 104.588 88.4513 106.514 90.9181C106.529 90.9181 106.538 90.9181 106.369 90.786C106.196 90.6725 106.004 90.5903 105.802 90.5433C108.072 89.9289 111.002 88.6171 113.534 87.4713C117.396 85.7417 122.691 83.2043 126.653 81.7113C130.136 80.5562 134.612 78.4427 138.117 80.8788C139.445 81.8342 140.046 83.705 139.852 85.2594C139.801 85.7271 139.725 86.1916 139.624 86.6511C138.598 90.5648 136.824 93.7812 135.105 97.228C130.608 105.753 125.602 113.789 120.35 121.736C117.051 126.458 114.094 131.281 110.081 135.545C109.474 136.141 108.735 136.587 107.924 136.848C107.224 137.014 106.514 137.137 105.799 137.216C102.435 137.563 99.0008 137.634 95.6741 137.662C88.4754 137.698 81.3599 137.551 74.1767 137.013C72.0205 136.814 69.9721 136.691 67.7543 136.132C66.9522 135.873 66.2363 135.4 65.6843 134.765C64.71 133.666 63.8087 132.506 62.986 131.29C60.9314 128.335 58.997 125.321 57.1334 122.268C52.1434 114.199 47.5883 105.87 43.4877 97.3171C42.0092 94.073 40.506 90.8136 39.5388 87.3699C39.2923 86.264 38.7594 84.9123 39.3847 83.8586L39.357 83.8463Z" fill="#CE3F00"/>
<path d="M136.051 83.8648C133.174 80.4364 108.26 94.4109 105.103 92.9671C101.946 91.5233 91.8946 58.0938 87.7054 58.0938C83.5162 58.0938 73.4621 91.5263 70.3048 92.9671C67.1475 94.4079 42.2372 80.421 39.3571 83.8648C36.477 87.3085 66.0971 132.322 68.5737 133.051C72.5966 134.233 102.811 134.233 106.834 133.051C109.311 132.307 138.921 87.2747 136.051 83.8648Z" fill="#FDBB1E"/>
<path d="M82.5332 110.831C80.5003 108.858 79.6901 105.406 80.9746 102.73C82.6257 99.1602 87.4956 96.7333 91.0287 99.108C91.8216 99.6286 92.504 100.3 93.0371 101.083C90.0553 98.8069 86.4853 98.9021 83.8547 101.501C81.1286 103.836 81.0393 107.645 82.5332 110.831Z" fill="#FF6E00"/>
<path d="M93.0248 101.084C96.3762 103.569 95.5506 108.921 92.7507 111.572C90.5944 113.649 87.0644 114.567 84.4061 112.964C83.5784 112.457 82.9218 111.714 82.521 110.832C88.4752 116.407 97.1863 107.379 93.0248 101.084Z" fill="white"/>
<path d="M106.834 133.033C102.814 134.216 72.5931 134.216 68.5733 133.033C67.6338 132.756 62.7885 126.099 57.2871 117.756C88.5891 124.05 116.638 113.698 127.684 84.9285C131.809 83.4693 135.111 82.732 136.05 83.8503C138.921 87.2725 109.31 132.302 106.834 133.033Z" fill="#FF6E00"/>
<path d="M101.518 86.6307C84.5759 98.8265 64.6156 102.043 44.6491 97.1554C40.8542 90.3355 38.4361 84.9595 39.3572 83.8659C42.2372 80.4375 67.1507 94.4151 70.3049 92.9713C73.4591 91.5275 83.5163 58.0918 87.7085 58.0918C90.8135 58.0764 97.1651 76.5392 101.518 86.6307Z" fill="#FFDC48"/>
<path d="M87.7051 58.0792C86.9596 58.2513 86.5469 58.967 86.1649 59.563C85.0252 61.4769 84.2336 63.5812 83.4265 65.6609C82.3453 68.4442 81.3658 71.2765 80.3462 74.0966C78.2917 79.7583 76.3419 85.3893 73.6589 90.9926C73.0983 92.0187 72.4853 93.2782 71.4781 94.0892C70.9656 94.4543 70.3489 94.645 69.7192 94.6329C67.7478 94.5346 66.0475 93.8281 64.2856 93.1799C58.6147 90.9312 53.2889 88.1879 47.7444 85.7764C45.6991 84.9009 43.6414 83.9823 41.4544 83.5676C40.749 83.4601 39.9512 83.3587 39.3506 83.8472C39.5928 83.5349 39.9373 83.3174 40.324 83.2328C42.9946 82.7197 45.7145 83.6536 48.2804 84.2803C54.0806 85.9453 59.6775 88.3384 65.3236 90.3168C66.7437 90.8298 68.7397 91.435 69.673 91.4903C69.6187 91.5108 69.567 91.5376 69.519 91.5702C69.519 91.5702 69.519 91.5702 69.5467 91.5333C69.5826 91.5002 69.6147 91.4631 69.6422 91.4227C71.6136 88.3876 72.8734 84.821 74.3828 81.4264C76.7638 75.8968 79.1018 70.3211 81.9757 64.9974C83.1 63.0098 84.2274 60.9823 85.7645 59.265C86.2881 58.7397 86.9011 58.0639 87.6989 58.0762L87.7051 58.0792Z" fill="white"/>
</g>
<defs>
<radialGradient id="paint0_radial_867_23356" cx="0" cy="0" r="1" gradientUnits="userSpaceOnUse" gradientTransform="translate(87.7022 95.9992) scale(92.0793 91.8313)">
<stop stop-color="#FDBB1E"/>
<stop offset="1" stop-color="#FF6E00"/>
</radialGradient>
<clipPath id="clip0_867_23356">
<rect width="175.407" height="192" fill="white"/>
</clipPath>
</defs>
</svg>
