<svg width="139" height="153" viewBox="0 0 139 153" fill="none" xmlns="http://www.w3.org/2000/svg">
<g clip-path="url(#clip0_867_23369)">
<path d="M138.216 101.353V51.0169C138.214 46.5396 137.043 42.1415 134.819 38.2645C132.595 34.3874 129.398 31.1677 125.548 28.9289L82.2582 3.75089C78.4061 1.5124 74.037 0.333984 69.5896 0.333984C65.1421 0.333984 60.773 1.5124 56.9209 3.75089L13.6339 28.9191C9.78146 31.1582 6.58224 34.3791 4.35796 38.2582C2.13368 42.1372 0.962746 46.5376 0.962891 51.0169L0.962891 101.353C0.964194 105.831 2.13557 110.229 4.35933 114.106C6.58309 117.983 9.78091 121.203 13.6315 123.441L56.9209 148.619C60.773 150.858 65.1421 152.036 69.5896 152.036C74.037 152.036 78.4061 150.858 82.2582 148.619L125.548 123.451C129.399 121.211 132.598 117.99 134.822 114.111C137.045 110.232 138.216 105.832 138.216 101.353Z" fill="url(#paint0_radial_867_23369)"/>
<path d="M125.55 28.9162L82.2582 3.75282C78.407 1.51312 74.0381 0.333984 69.5908 0.333984C65.1435 0.333984 60.7745 1.51312 56.9233 3.75282L13.6315 28.9162C9.77983 31.1559 6.58136 34.3771 4.35756 38.256C2.13377 42.135 0.962991 46.535 0.962891 51.014L0.962891 101.355C0.964682 105.833 2.13626 110.231 4.35997 114.108C6.58368 117.985 9.78124 121.205 13.6315 123.443L56.9233 148.617C60.7745 150.856 65.1435 152.035 69.5908 152.035C74.0381 152.035 78.407 150.856 82.2582 148.617L125.55 123.453C129.4 121.214 132.598 117.995 134.822 114.118C137.045 110.24 138.217 105.842 138.219 101.365V51.014C138.219 46.535 137.048 42.135 134.824 38.256C132.6 34.3771 129.402 31.1559 125.55 28.9162ZM134.767 99.8504C134.767 104.328 133.596 108.727 131.373 112.604C129.149 116.482 125.95 119.701 122.098 121.939L90.0893 140.548C86.2381 142.788 81.8692 143.967 77.4219 143.967C72.9746 143.967 68.6057 142.788 64.7544 140.548L32.7454 121.939C28.8949 119.7 25.6972 116.48 23.4735 112.603C21.2498 108.726 20.0783 104.328 20.0767 99.8504V56.2035C20.0767 49.5334 24.1743 45.3415 30.0868 42.1254L67.7095 20.5956C73.8269 17.178 82.2534 17.3649 90.0893 21.9354L122.098 40.5525C125.951 42.7889 129.15 46.008 131.374 49.8857C133.598 53.7633 134.768 58.1626 134.767 62.6406V99.8504Z" fill="#707070"/>
<path d="M69.5896 13.0844C71.8139 13.0819 73.9999 13.6678 75.9287 14.7835L119.216 39.9638C121.14 41.0866 122.739 42.6984 123.851 44.6381C124.964 46.5778 125.551 48.7776 125.555 51.0176V101.354C125.551 103.594 124.964 105.794 123.851 107.734C122.739 109.673 121.14 111.285 119.216 112.408L75.9239 137.576C73.9971 138.697 71.8112 139.287 69.5859 139.287C67.3607 139.287 65.1747 138.697 63.248 137.576L19.9635 112.408C18.039 111.285 16.4409 109.673 15.3289 107.733C14.2169 105.794 13.6299 103.594 13.6267 101.354V51.0176C13.6299 48.7778 14.2169 46.5781 15.3289 44.6383C16.4409 42.6986 18.039 41.0867 19.9635 39.9638L63.2528 14.7956C65.1807 13.6797 67.3659 13.0938 69.5896 13.0965M69.5896 0.346122C65.1419 0.345185 60.7725 1.52391 56.9209 3.7637L13.6339 28.9198C9.78146 31.1588 6.58224 34.3798 4.35796 38.2588C2.13368 42.1379 0.962746 46.5383 0.962891 51.0176L0.962891 101.354C0.964194 105.832 2.13557 110.23 4.35933 114.107C6.58309 117.984 9.78091 121.204 13.6315 123.442L56.9209 148.62C60.7728 150.859 65.142 152.038 69.5896 152.038C74.0371 152.038 78.4063 150.859 82.2582 148.62L125.548 123.452C129.398 121.213 132.595 117.993 134.819 114.116C137.043 110.239 138.214 105.841 138.216 101.364V51.0176C138.214 46.5403 137.043 42.1422 134.819 38.2651C132.595 34.388 129.398 31.1684 125.548 28.9295L82.2582 3.75157C78.4069 1.51114 74.0373 0.332363 69.5896 0.333986V0.346122Z" fill="#E6E6E6"/>
<path d="M121.744 116.826L108.02 124.739C98.3135 130.144 86.2088 137.232 76.4061 142.244C73.9652 143.258 71.3214 143.679 68.689 143.471C66.0566 143.264 63.5097 142.436 61.2548 141.052C52.3173 135.411 43.4353 129.667 34.6087 123.819C29.1059 120.071 23.473 116.508 18.1293 112.515C14.9453 109.826 13.1592 105.401 13.6148 101.35C13.6195 103.589 14.2071 105.789 15.3189 107.729C16.4307 109.669 18.028 111.281 19.9515 112.406L63.2529 137.579C65.1802 138.698 67.366 139.288 69.5909 139.288C71.8158 139.288 74.0015 138.698 75.9288 137.579L119.218 112.415C121.142 111.291 122.74 109.679 123.852 107.739C124.965 105.799 125.553 103.599 125.557 101.359V51.0179C125.552 48.7782 124.964 46.5789 123.852 44.6394C122.74 42.6998 121.142 41.0879 119.218 39.9642L75.924 14.8008C91.0222 21.6141 105.742 29.0803 120.423 36.7068C123.09 38.0346 125.346 40.0699 126.949 42.5934C128.552 45.117 129.441 48.0331 129.52 51.0276C129.705 56.3385 129.865 61.6477 130.002 66.9553C130.313 78.2323 130.457 89.5167 130.559 100.796C130.797 107.25 127.336 113.6 121.744 116.826Z" fill="white"/>
<path d="M138.219 51.015C137.553 42.3812 132.66 34.5582 125.184 30.5411C124.207 29.9682 120.953 28.3565 119.881 27.7764C106.947 21.0044 93.8494 13.9216 81.0747 6.84373C73.9787 2.65671 64.7737 2.96011 57.9356 7.45783C48.0533 13.3342 33.3335 21.9097 23.3186 27.6672C21.1975 28.9415 15.2657 32.0921 13.3351 33.5387C7.68769 37.6262 4.26985 44.5099 4.26262 51.5004C3.93241 66.2072 3.47686 81.1616 2.83089 95.8343C2.78509 97.963 2.43078 101.604 2.57057 103.74C2.92007 111.599 7.07788 118.905 13.6315 123.452C9.77983 121.212 6.58136 117.991 4.35756 114.112C2.13377 110.233 0.962991 105.833 0.962891 101.354L0.962891 51.015C0.964438 46.5376 2.13591 42.1395 4.35965 38.2624C6.58338 34.3852 9.78108 31.1656 13.6315 28.9269L56.9233 3.75383C60.7748 1.51484 65.1436 0.336121 69.5908 0.336121C74.0379 0.336121 78.4067 1.51484 82.2582 3.75383L125.55 28.9172C129.402 31.1567 132.6 34.3779 134.824 38.2569C137.048 42.1358 138.219 46.536 138.219 51.015Z" fill="white"/>
<path d="M104.628 48.6795C107.357 46.3785 111.298 49.665 109.868 52.9272C106.494 59.7551 100.762 65.2019 94.2397 69.0321C91.1636 70.8487 87.8255 72.172 84.3453 72.9546L84.6562 67.7966C86.8834 68.3792 89.4359 68.2068 91.745 67.6801C98.3155 65.7383 102.673 74.2022 97.214 78.4402C89.5227 84.785 79.5391 87.8895 69.6568 87.8871L71.5441 82.399C72.8625 83.4937 74.598 84.2219 76.5696 84.5399C77.4112 84.6125 78.2387 84.8028 79.0281 85.1054C82.3086 86.4477 83.6656 90.8362 81.6795 93.8023C80.7154 95.3363 79.045 96.0694 77.459 96.681C76.2673 97.1526 75.0506 97.5578 73.8146 97.8947C68.9747 99.2345 63.9709 99.6496 59.0032 99.4165C54.3633 98.9554 49.844 98.9626 45.5681 101.055C43.5217 102.062 41.5693 103.453 40.2822 105.507C40.6849 104.344 41.3006 103.268 42.0972 102.334C45.368 98.4699 50.4176 96.4674 55.3829 96.0232C62.7922 95.732 70.2522 94.6494 76.801 91.0692C76.9649 90.9891 76.9119 90.9842 76.9528 90.9624C76.9938 90.9406 77.0035 90.9333 77.0035 90.9114C77.0035 90.8896 77.0227 90.8556 77.0372 90.8435C77.0396 90.7818 77.029 90.7203 77.0061 90.663C76.9833 90.6057 76.9487 90.5539 76.9046 90.5109C73.6772 90.2488 70.3413 89.3264 67.7165 87.2026C65.4749 85.4841 66.6993 81.7752 69.4784 81.7194C77.365 81.5058 85.266 79.2606 91.8101 74.7823C92.4247 74.3769 93.09 73.8381 93.6491 73.4255C93.6299 73.4255 93.6491 73.4522 93.6371 73.4594C93.625 73.4667 93.6371 73.5031 93.6612 73.4861C93.6853 73.4691 93.625 73.3381 93.6154 73.3041C93.6154 73.3041 93.6323 73.2677 93.5937 73.2798C90.1253 73.8648 86.476 74.0565 82.9883 72.8284C80.3779 71.9473 80.7539 68.1049 83.439 67.719C89.4841 66.816 95.387 63.8863 100.355 60.1945C103.265 58.0403 105.877 55.5031 108.118 52.6505C108.338 52.3992 108.516 52.1129 108.644 51.8034C109.507 49.5437 106.699 47.4659 104.626 48.6795H104.628Z" fill="#7C7C7C"/>
<path d="M83.8947 70.3404C86.857 71.2409 90.0314 71.0394 92.8804 70.4132C96.0499 69.719 98.0553 73.7556 95.5486 75.8381C89.7638 80.6368 80.5467 84.7001 69.6376 84.8044C71.831 86.5763 74.4848 87.3239 76.9771 87.5594C80.0671 87.8482 80.9131 91.9915 78.1557 93.4261C72.771 96.232 65.0701 97.8752 56.5448 97.6009C49.1933 97.3582 42.3865 100.926 40.2872 105.511C27.2232 91.9746 34.2614 66.6971 50.936 59.6872C71.4912 51.0461 88.0404 59.6872 104.628 48.6795C107.429 46.8203 110.763 50.0704 108.967 52.9248C103.356 61.8596 92.755 68.7821 83.8947 70.3404Z" fill="#E6E6E6"/>
<path d="M108.969 52.9239C103.356 61.8635 92.7576 68.786 83.9021 70.3419C86.8668 71.24 90.0436 71.0361 92.8878 70.4123C96.0598 69.7181 98.0651 73.7595 95.5584 75.8372C89.7736 80.6383 80.5542 84.6992 69.6451 84.8181C71.8433 86.5827 74.4946 87.3352 76.9893 87.573C80.0793 87.8594 80.9205 92.0028 78.1679 93.4373C72.7809 96.2432 65.0823 97.8864 56.5546 97.6122C49.2031 97.3694 42.3964 100.942 40.2946 105.525C36.2621 101.343 34.141 96.0393 33.6421 90.493C57.403 91.7066 78.2933 79.7694 88.6697 54.4191C94.0761 53.7055 99.3571 52.1957 104.638 48.6883C107.427 46.8242 110.763 50.0694 108.969 52.9239Z" fill="#B3B3B3"/>
<path d="M67.6155 55.6582C59.6469 68.6513 48.022 76.7608 34.5049 79.9745C36.7465 71.1562 42.6542 63.1681 50.9336 59.6875C56.7835 57.2262 62.3176 56.1606 67.6155 55.6582Z" fill="white"/>
<path d="M40.2874 105.512C29.5494 95.6253 31.0438 77.6175 39.7451 66.8089C48.7573 55.2527 64.892 54.1435 78.3801 54.1022C87.4502 54.1022 96.6624 53.4978 104.629 48.6797C97.2626 54.4444 87.4911 55.7527 78.4428 56.0901C65.6078 56.7649 50.3433 57.5465 41.5986 68.3308C33.1312 78.5253 31.186 95.0306 40.2874 105.512Z" fill="white"/>
</g>
<defs>
<radialGradient id="paint0_radial_867_23369" cx="0" cy="0" r="1" gradientUnits="userSpaceOnUse" gradientTransform="translate(69.5896 76.1852) scale(72.0517 72.5581)">
<stop stop-color="#E6E6E6"/>
<stop offset="1" stop-color="#A0A0A0"/>
</radialGradient>
<clipPath id="clip0_867_23369">
<rect width="137.256" height="151.704" fill="white" transform="translate(0.962891 0.333984)"/>
</clipPath>
</defs>
</svg>
