<svg width="154" height="53" viewBox="0 0 154 53" fill="none" xmlns="http://www.w3.org/2000/svg">
<g clip-path="url(#clip0_70_2569)">
<path d="M22.3394 50.1837C22.3394 51.4575 23.2951 52.5 24.4588 52.5C25.6225 52.5 26.5783 51.4575 26.5783 50.1837V2.81635C26.5783 1.54251 25.6225 0.5 24.4588 0.5C23.2951 0.5 22.3394 1.54251 22.3394 2.81635V50.1837Z" fill="#373737"/>
<path d="M52.125 44.6631C52.125 45.938 53.0808 46.9805 54.2445 46.9805C55.4082 46.9805 56.364 45.938 56.364 44.6631V8.33201C56.364 7.05817 55.4082 6.01567 54.2445 6.01567C53.0808 6.01567 52.125 7.05817 52.125 8.33201V44.6631Z" fill="#373737"/>
<path d="M67.016 39.1475C67.016 40.4223 67.9718 41.4648 69.1355 41.4648C70.2992 41.4648 71.255 40.4223 71.255 39.1475V13.8516C71.255 12.5777 70.2992 11.5352 69.1355 11.5352C67.9718 11.5352 67.016 12.5777 67.016 13.8516V39.1475Z" fill="#373737"/>
<path d="M81.9119 33.628C81.9119 34.9018 82.8666 35.9453 84.0313 35.9453C85.1961 35.9453 86.1508 34.9018 86.1508 33.628V19.3642C86.1508 18.0894 85.195 17.0469 84.0313 17.0469C82.8677 17.0469 81.9119 18.0894 81.9119 19.3642V33.628Z" fill="#373737"/>
<path d="M0 28.1133C0 29.3872 0.955786 30.4297 2.11948 30.4297C3.28318 30.4297 4.23897 29.3872 4.23897 28.1133V24.8889C4.23897 23.614 3.28419 22.5715 2.11948 22.5715C0.954777 22.5715 0 23.61 0 24.8889V28.1133Z" fill="#373737"/>
<path d="M7.44629 33.628C7.44629 34.9018 8.40207 35.9453 9.56577 35.9453C10.7295 35.9453 11.6853 34.9018 11.6853 33.628V19.3642C11.6853 18.0894 10.7295 17.0469 9.56577 17.0469C8.40207 17.0469 7.44629 18.0894 7.44629 19.3642V33.628Z" fill="#373737"/>
<path d="M37.2324 33.628C37.2324 34.9018 38.1882 35.9453 39.3519 35.9453C40.5156 35.9453 41.4714 34.9018 41.4714 33.628V19.3642C41.4714 18.0894 40.5156 17.0469 39.3519 17.0469C38.1882 17.0469 37.2324 18.0894 37.2324 19.3642V33.628Z" fill="#373737"/>
<path d="M96.8049 28.1133C96.8049 29.3872 97.7597 30.4297 98.9244 30.4297C100.089 30.4297 101.044 29.3872 101.044 28.1133V24.8889C101.044 23.614 100.089 22.5715 98.9244 22.5715C97.7597 22.5715 96.8049 23.614 96.8049 24.8889V28.1133Z" fill="#373737"/>
<path d="M111.698 33.628C111.698 34.9018 112.653 35.9453 113.817 35.9453C114.982 35.9453 115.937 34.9018 115.937 33.628V19.3642C115.937 18.0894 114.982 17.0469 113.817 17.0469C112.653 17.0469 111.698 18.0894 111.698 19.3642V33.628Z" fill="#373737"/>
<path d="M141.484 33.628C141.484 34.9018 142.439 35.9453 143.603 35.9453C144.767 35.9453 145.723 34.9018 145.723 33.628V19.3642C145.723 18.0894 144.768 17.0469 143.603 17.0469C142.438 17.0469 141.484 18.0894 141.484 19.3642V33.628Z" fill="#373737"/>
<path d="M126.591 39.1475C126.591 40.4223 127.546 41.4648 128.71 41.4648C129.874 41.4648 130.83 40.4223 130.83 39.1475V13.8516C130.83 12.5777 129.875 11.5352 128.71 11.5352C127.545 11.5352 126.591 12.5777 126.591 13.8516V39.1475Z" fill="#373737"/>
<path d="M14.8929 39.1475C14.8929 40.4223 15.8487 41.4648 17.0124 41.4648C18.1761 41.4648 19.1319 40.4223 19.1319 39.1475V13.8516C19.1319 12.5777 18.1761 11.5352 17.0124 11.5352C15.8487 11.5352 14.8929 12.5777 14.8929 13.8516V39.1475Z" fill="#373737"/>
<path d="M29.7856 44.6631C29.7856 45.938 30.7414 46.9805 31.9051 46.9805C33.0688 46.9805 34.0246 45.938 34.0246 44.6631V8.33201C34.0246 7.05817 33.0688 6.01567 31.9051 6.01567C30.7414 6.01567 29.7856 7.05817 29.7856 8.33201V44.6631Z" fill="#373737"/>
<path d="M44.6787 50.1837C44.6787 51.4575 45.6345 52.5 46.7982 52.5C47.9619 52.5 48.9177 51.4575 48.9177 50.1837V2.81635C48.9177 1.54251 47.9619 0.5 46.7982 0.5C45.6345 0.5 44.6787 1.54251 44.6787 2.81635V50.1837Z" fill="#373737"/>
<path d="M74.4653 44.6631C74.4653 45.938 75.4201 46.9805 76.5848 46.9805C77.7495 46.9805 78.7043 45.938 78.7043 44.6631V8.33201C78.7043 7.05817 77.7485 6.01567 76.5848 6.01567C75.4211 6.01567 74.4653 7.05817 74.4653 8.33201V44.6631Z" fill="#373737"/>
<path d="M59.5717 39.1475C59.5717 40.4223 60.5274 41.4648 61.6911 41.4648C62.8548 41.4648 63.8106 40.4223 63.8106 39.1475V13.8516C63.8106 12.5777 62.8548 11.5352 61.6911 11.5352C60.5274 11.5352 59.5717 12.5777 59.5717 13.8516V39.1475Z" fill="#373737"/>
<path d="M89.3584 33.628C89.3584 34.9018 90.3132 35.9453 91.4779 35.9453C92.6426 35.9453 93.5974 34.9018 93.5974 33.628V19.3642C93.5974 18.0894 92.6416 17.0469 91.4779 17.0469C90.3142 17.0469 89.3584 18.0894 89.3584 19.3642V33.628Z" fill="#373737"/>
<path d="M104.251 28.1133C104.251 29.3872 105.206 30.4297 106.371 30.4297C107.535 30.4297 108.49 29.3872 108.49 28.1133V24.8889C108.49 23.614 107.535 22.5715 106.371 22.5715C105.206 22.5715 104.251 23.614 104.251 24.8889V28.1133Z" fill="#373737"/>
<path d="M119.144 31.2451C119.144 32.52 120.099 33.5625 121.264 33.5625C122.428 33.5625 123.383 32.52 123.383 31.2451V21.7495C123.383 20.4756 122.428 19.4331 121.264 19.4331C120.099 19.4331 119.144 20.4756 119.144 21.7495V31.2451Z" fill="#373737"/>
<path d="M148.93 31.2451C148.93 32.52 149.886 33.5625 151.049 33.5625C152.213 33.5625 153.169 32.52 153.169 31.2451V21.7495C153.169 20.4756 152.213 19.4331 151.049 19.4331C149.886 19.4331 148.93 20.4756 148.93 21.7495V31.2451Z" fill="#373737"/>
<path d="M134.037 34.379C134.037 35.6528 134.993 36.6953 136.157 36.6953C137.32 36.6953 138.276 35.6528 138.276 34.379V18.6202C138.276 17.3463 137.321 16.3038 136.157 16.3038C134.992 16.3038 134.037 17.3463 134.037 18.6202V34.379Z" fill="#373737"/>
</g>
<defs>
<clipPath id="clip0_70_2569">
<rect width="154" height="53" fill="white" transform="matrix(1 0 0 -1 0 53)"/>
</clipPath>
</defs>
</svg>
