<svg width="292" height="292" viewBox="0 0 292 292" fill="none" xmlns="http://www.w3.org/2000/svg">
<path d="M286.719 254.404L286.719 254.404C294.738 270.437 283.081 289.304 265.157 289.304H26.6391C8.72286 289.304 -2.93631 270.438 5.07748 254.404C5.0775 254.404 5.07752 254.404 5.07755 254.404L124.34 15.8258L124.34 15.8257C133.223 -1.94711 158.58 -1.9471 167.463 15.8257L169.699 14.708L167.463 15.8257L286.719 254.404ZM156.766 197.079H159.053L159.257 194.801L167.874 98.5232L168.118 95.8003H165.384H126.419H123.685L123.929 98.5232L132.546 194.801L132.75 197.079H135.036H156.766ZM126.54 238.406C126.54 249.097 135.21 257.767 145.901 257.767C156.593 257.767 165.263 249.097 165.263 238.406C165.263 227.714 156.593 219.044 145.901 219.044C135.21 219.044 126.54 227.714 126.54 238.406Z" fill="#FFAB02" stroke="#CC8800" stroke-width="5"/>
</svg>
