<svg width="290" height="295" viewBox="0 0 290 295" fill="none" xmlns="http://www.w3.org/2000/svg">
<g clip-path="url(#clip0_1183_4248)">
<path d="M245.491 44.1592C301.078 99.7075 301.078 189.769 245.491 245.317C189.903 300.866 99.7788 300.866 44.1916 245.317C-11.3956 189.769 -11.3956 99.7075 44.1916 44.1592C99.7788 -11.3892 189.903 -11.3892 245.491 44.1592Z" fill="#E0131C" stroke="#9B080F" stroke-width="5"/>
<path d="M173.654 146.511L219.916 192.741L192.874 219.764L146.609 173.532L144.842 171.766L143.075 173.532L96.8019 219.764L69.7682 192.742L116.031 146.511L117.8 144.743L116.031 142.975L69.7683 96.7361L96.8016 69.7216L143.075 115.954L144.842 117.72L146.609 115.954L192.874 69.7215L219.916 96.7363L173.653 142.975L171.884 144.743L173.654 146.511Z" fill="white" stroke="#9B080F" stroke-width="5"/>
</g>
<defs>
<clipPath id="clip0_1183_4248">
<rect width="289.684" height="294.211" fill="white"/>
</clipPath>
</defs>
</svg>
