<svg width="299" height="290" viewBox="0 0 299 290" fill="none" xmlns="http://www.w3.org/2000/svg">
<path d="M295.646 144.542C295.646 222.918 230.097 286.584 149.073 286.584C68.0498 286.584 2.50006 222.918 2.50006 144.542C2.50006 66.1666 68.0498 2.5 149.073 2.5C230.097 2.5 295.646 66.1666 295.646 144.542Z" fill="#0791CF" stroke="#006B9B" stroke-width="5"/>
<g clip-path="url(#clip0_1178_4231)">
<path d="M133.504 131.256V128.756H131.004H123.027V120.258H131.004H165.171V131.256V193.903V196.403H167.671H175.648V216.269H167.671H131.004H123.027V196.403H131.004H133.504V193.903V131.256Z" fill="white" stroke="#006B9B" stroke-width="5"/>
<path d="M147.59 106.734C157.371 106.734 165.171 99.0654 165.171 89.7634C165.171 80.4655 157.375 72.7969 147.59 72.7969C137.809 72.7969 130.01 80.4649 130.009 89.7665L147.59 106.734ZM147.59 106.734C137.81 106.734 130.013 99.0662 130.009 89.7675L147.59 106.734Z" fill="white" stroke="#006B9B" stroke-width="5"/>
</g>
<defs>
<clipPath id="clip0_1178_4231">
<rect width="57.6205" height="148.472" fill="white" transform="translate(120.527 70.2969)"/>
</clipPath>
</defs>
</svg>
