<svg width="60" height="59" viewBox="0 0 60 59" fill="none" xmlns="http://www.w3.org/2000/svg">
<g clip-path="url(#clip0_70_2565)">
<path d="M31.7244 0.17237C31.3638 0.0131382 30.965 -0.0372444 30.5764 0.0273619C30.1879 0.0919682 29.8264 0.268773 29.5361 0.536231L14.2595 14.6075H2.02995C1.76344 14.6073 1.49951 14.6599 1.25323 14.7623C1.00696 14.8646 0.783164 15.0148 0.594647 15.2041C0.40613 15.3935 0.256582 15.6183 0.154549 15.8657C0.0525167 16.1132 -6.95676e-08 16.3784 0 16.6463L0 42.3523C0 42.8934 0.213869 43.4123 0.594558 43.795C0.975247 44.1776 1.49157 44.3925 2.02995 44.3925H14.2595L29.5361 58.4623C29.8264 58.7302 30.1879 58.9072 30.5766 58.9719C30.9654 59.0366 31.3644 58.9861 31.7251 58.8266C32.0857 58.6671 32.3923 58.4054 32.6074 58.0736C32.8226 57.7419 32.9369 57.3543 32.9365 56.9583V2.04029C32.9364 1.64434 32.8218 1.25695 32.6066 0.925308C32.3913 0.593661 32.0848 0.332064 31.7244 0.17237Z" fill="#FFFFFF"/>
<path d="M40.2941 48.0721C39.7437 48.0707 39.2041 47.9184 38.7333 47.6318C38.2626 47.3452 37.8784 46.9351 37.6222 46.4455C37.366 45.9559 37.2474 45.4054 37.2791 44.8531C37.3109 44.3008 37.4918 43.7677 37.8024 43.311C43.4233 35.0497 43.4233 23.9498 37.8024 15.6885C37.5613 15.3595 37.3886 14.9851 37.2945 14.5876C37.2004 14.1901 37.1869 13.7776 37.2548 13.3748C37.3228 12.9719 37.4707 12.5869 37.6899 12.2428C37.909 11.8986 38.1948 11.6023 38.5303 11.3716C38.8658 11.1408 39.2441 10.9804 39.6427 10.8997C40.0412 10.8191 40.4518 10.8199 40.85 10.9022C41.2483 10.9844 41.6259 11.1465 41.9605 11.3786C42.295 11.6107 42.5797 11.9081 42.7974 12.2532C49.8165 22.565 49.8165 36.4301 42.7974 46.7463C42.5192 47.1556 42.1457 47.4903 41.7094 47.7214C41.2731 47.9525 40.7872 48.0729 40.2941 48.0721Z" fill="#FFFFFF"/>
<path d="M48.8329 56.4527C48.2667 56.4523 47.7121 56.2924 47.2318 55.9911C46.7515 55.6898 46.3649 55.2593 46.1158 54.7483C45.8667 54.2373 45.7651 53.6663 45.8226 53.1002C45.8801 52.5342 46.0943 51.9956 46.4409 51.5457C51.3045 45.2369 53.9439 37.4822 53.9439 29.5012C53.9439 21.5201 51.3045 13.7655 46.4409 7.45667C45.9492 6.81885 45.7297 6.01083 45.8307 5.21036C45.9317 4.40988 46.345 3.68253 46.9796 3.18829C47.6141 2.69406 48.4181 2.47345 49.2145 2.57497C50.0109 2.6765 50.7346 3.09186 51.2263 3.72967C56.9126 11.1049 59.9984 20.1707 59.9984 29.5012C59.9984 38.8317 56.9126 47.8975 51.2263 55.2727C50.9439 55.6404 50.5812 55.938 50.1662 56.1426C49.7512 56.3472 49.2951 56.4533 48.8329 56.4527Z" fill="#FFFFFF"/>
</g>
<defs>
<clipPath id="clip0_70_2565">
<rect width="60" height="59" fill="white"/>
</clipPath>
</defs>
</svg>
