<svg width="127" height="126" viewBox="0 0 127 126" fill="none" xmlns="http://www.w3.org/2000/svg">
<path d="M58.3021 67.4466C54.4993 63.6698 51.5725 59.2671 49.6017 54.4666L2.20059 101.544C1.8107 101.931 1.5757 102.451 1.53831 102.997L0.283183 122.671C0.240455 123.319 0.480799 123.95 0.945463 124.411C1.37274 124.836 1.94957 125.074 2.55309 125.074C2.60116 125.074 2.64923 125.074 2.6973 125.069L22.5123 123.823C23.0624 123.785 23.5858 123.552 23.9757 123.165L31.2822 115.908C31.6774 115.516 31.9124 114.996 31.9444 114.439L32.5693 103.48L43.6251 102.843C44.7467 102.78 45.6547 101.91 45.7562 100.796L46.6588 91.0409L56.374 90.2399C56.9081 90.1975 57.4155 89.9641 57.7947 89.5875L71.3928 76.0823C66.6233 74.1514 62.1583 71.2764 58.3021 67.4466Z" fill="white"/>
<path d="M114.537 11.5958C99.0322 -3.80309 73.8068 -3.80309 58.302 11.5958C50.7926 19.0539 46.6533 28.9732 46.6533 39.5238C46.6533 50.0744 50.7872 59.9885 58.302 67.4466C66.0571 75.1487 76.2369 78.9944 86.4168 78.9944C96.6021 78.9944 106.787 75.1434 114.537 67.4466C130.037 52.0477 130.037 26.9947 114.537 11.5958ZM97.1415 39.0305C91.5014 39.0305 86.9082 34.474 86.9082 28.8671C86.9082 23.2656 91.5014 18.7091 97.1415 18.7091C102.782 18.7091 107.375 23.2656 107.375 28.8671C107.375 34.474 102.782 39.0305 97.1415 39.0305Z" fill="white"/>
</svg>
