<svg width="609" height="54" viewBox="0 0 609 54" fill="none" xmlns="http://www.w3.org/2000/svg">
<g clip-path="url(#clip0_52_280)">
<path d="M32.1807 51.0674C32.1807 52.3413 33.5523 53.3838 35.2223 53.3838C36.8922 53.3838 38.2639 52.3413 38.2639 51.0674V3.70013C38.2639 2.4263 36.8922 1.38379 35.2223 1.38379C33.5523 1.38379 32.1807 2.4263 32.1807 3.70013V51.0674Z" fill="black"/>
<path d="M74.9248 45.5469C74.9248 46.8218 76.2964 47.8643 77.9664 47.8643C79.6364 47.8643 81.008 46.8218 81.008 45.5469V9.2158C81.008 7.94196 79.6364 6.89946 77.9664 6.89946C76.2964 6.89946 74.9248 7.94196 74.9248 9.2158V45.5469Z" fill="black"/>
<path d="M96.2944 40.0313C96.2944 41.3061 97.666 42.3486 99.336 42.3486C101.006 42.3486 102.378 41.3061 102.378 40.0313V14.7354C102.378 13.4615 101.006 12.419 99.336 12.419C97.666 12.419 96.2944 13.4615 96.2944 14.7354V40.0313Z" fill="black"/>
<path d="M117.671 34.5117C117.671 35.7856 119.041 36.8291 120.712 36.8291C122.384 36.8291 123.754 35.7856 123.754 34.5117V20.248C123.754 18.9732 122.382 17.9307 120.712 17.9307C119.043 17.9307 117.671 18.9732 117.671 20.248V34.5117Z" fill="black"/>
<path d="M0.12207 28.9971C0.12207 30.271 1.49369 31.3135 3.16367 31.3135C4.83365 31.3135 6.20526 30.271 6.20526 28.9971V25.7726C6.20526 24.4978 4.83509 23.4553 3.16367 23.4553C1.49224 23.4553 0.12207 24.4938 0.12207 25.7726V28.9971Z" fill="black"/>
<path d="M10.8076 34.5117C10.8076 35.7856 12.1792 36.8291 13.8492 36.8291C15.5192 36.8291 16.8908 35.7856 16.8908 34.5117V20.248C16.8908 18.9732 15.5192 17.9307 13.8492 17.9307C12.1792 17.9307 10.8076 18.9732 10.8076 20.248V34.5117Z" fill="black"/>
<path d="M53.5527 34.5117C53.5527 35.7856 54.9243 36.8291 56.5943 36.8291C58.2643 36.8291 59.6359 35.7856 59.6359 34.5117V20.248C59.6359 18.9732 58.2643 17.9307 56.5943 17.9307C54.9243 17.9307 53.5527 18.9732 53.5527 20.248V34.5117Z" fill="black"/>
<path d="M139.043 28.9971C139.043 30.271 140.414 31.3135 142.085 31.3135C143.756 31.3135 145.127 30.271 145.127 28.9971V25.7726C145.127 24.4978 143.756 23.4553 142.085 23.4553C140.414 23.4553 139.043 24.4978 139.043 25.7726V28.9971Z" fill="black"/>
<path d="M160.416 34.5117C160.416 35.7856 161.786 36.8291 163.457 36.8291C165.129 36.8291 166.499 35.7856 166.499 34.5117V20.248C166.499 18.9732 165.129 17.9307 163.457 17.9307C161.786 17.9307 160.416 18.9732 160.416 20.248V34.5117Z" fill="black"/>
<path d="M203.16 34.5117C203.16 35.7856 204.532 36.8291 206.202 36.8291C207.872 36.8291 209.243 35.7856 209.243 34.5117V20.248C209.243 18.9732 207.873 17.9307 206.202 17.9307C204.53 17.9307 203.16 18.9732 203.16 20.248V34.5117Z" fill="black"/>
<path d="M181.788 40.0313C181.788 41.3061 183.16 42.3486 184.83 42.3486C186.5 42.3486 187.871 41.3061 187.871 40.0313V14.7354C187.871 13.4615 186.501 12.419 184.83 12.419C183.158 12.419 181.788 13.4615 181.788 14.7354V40.0313Z" fill="black"/>
<path d="M21.4941 40.0313C21.4941 41.3061 22.8658 42.3486 24.5357 42.3486C26.2057 42.3486 27.5773 41.3061 27.5773 40.0313V14.7354C27.5773 13.4615 26.2057 12.419 24.5357 12.419C22.8658 12.419 21.4941 13.4615 21.4941 14.7354V40.0313Z" fill="black"/>
<path d="M42.8662 45.5469C42.8662 46.8218 44.2378 47.8643 45.9078 47.8643C47.5778 47.8643 48.9494 46.8218 48.9494 45.5469V9.2158C48.9494 7.94196 47.5778 6.89946 45.9078 6.89946C44.2378 6.89946 42.8662 7.94196 42.8662 9.2158V45.5469Z" fill="black"/>
<path d="M64.2388 51.0674C64.2388 52.3413 65.6104 53.3838 67.2804 53.3838C68.9503 53.3838 70.322 52.3413 70.322 51.0674V3.70013C70.322 2.4263 68.9503 1.38379 67.2804 1.38379C65.6104 1.38379 64.2388 2.4263 64.2388 3.70013V51.0674Z" fill="black"/>
<path d="M106.985 45.5469C106.985 46.8218 108.355 47.8643 110.026 47.8643C111.698 47.8643 113.068 46.8218 113.068 45.5469V9.2158C113.068 7.94196 111.696 6.89946 110.026 6.89946C108.356 6.89946 106.985 7.94196 106.985 9.2158V45.5469Z" fill="black"/>
<path d="M85.6113 40.0313C85.6113 41.3061 86.9829 42.3486 88.6529 42.3486C90.3229 42.3486 91.6945 41.3061 91.6945 40.0313V14.7354C91.6945 13.4615 90.3229 12.419 88.6529 12.419C86.9829 12.419 85.6113 13.4615 85.6113 14.7354V40.0313Z" fill="black"/>
<path d="M128.357 34.5117C128.357 35.7856 129.728 36.8291 131.399 36.8291C133.07 36.8291 134.441 35.7856 134.441 34.5117V20.248C134.441 18.9732 133.069 17.9307 131.399 17.9307C129.729 17.9307 128.357 18.9732 128.357 20.248V34.5117Z" fill="black"/>
<path d="M149.729 28.9971C149.729 30.271 151.1 31.3135 152.771 31.3135C154.443 31.3135 155.813 30.271 155.813 28.9971V25.7726C155.813 24.4978 154.443 23.4553 152.771 23.4553C151.1 23.4553 149.729 24.4978 149.729 25.7726V28.9971Z" fill="black"/>
<path d="M171.102 32.1289C171.102 33.4038 172.472 34.4463 174.144 34.4463C175.815 34.4463 177.185 33.4038 177.185 32.1289V22.6333C177.185 21.3594 175.815 20.3169 174.144 20.3169C172.472 20.3169 171.102 21.3594 171.102 22.6333V32.1289Z" fill="black"/>
<path d="M213.846 32.1289C213.846 33.4038 215.218 34.4463 216.888 34.4463C218.558 34.4463 219.929 33.4038 219.929 32.1289V22.6333C219.929 21.3594 218.558 20.3169 216.888 20.3169C215.218 20.3169 213.846 21.3594 213.846 22.6333V32.1289Z" fill="black"/>
<path d="M192.474 35.2628C192.474 36.5366 193.846 37.5791 195.516 37.5791C197.186 37.5791 198.557 36.5366 198.557 35.2628V19.504C198.557 18.2301 197.187 17.1876 195.516 17.1876C193.844 17.1876 192.474 18.2301 192.474 19.504V35.2628Z" fill="black"/>
</g>
<g clip-path="url(#clip1_52_280)">
<path d="M263.181 51.0674C263.181 52.3413 264.552 53.3838 266.222 53.3838C267.892 53.3838 269.264 52.3413 269.264 51.0674V3.70013C269.264 2.4263 267.892 1.38379 266.222 1.38379C264.552 1.38379 263.181 2.4263 263.181 3.70013V51.0674Z" fill="black"/>
<path d="M305.925 45.5469C305.925 46.8218 307.296 47.8643 308.966 47.8643C310.636 47.8643 312.008 46.8218 312.008 45.5469V9.2158C312.008 7.94196 310.636 6.89946 308.966 6.89946C307.296 6.89946 305.925 7.94196 305.925 9.2158V45.5469Z" fill="black"/>
<path d="M327.294 40.0313C327.294 41.3061 328.666 42.3486 330.336 42.3486C332.006 42.3486 333.378 41.3061 333.378 40.0313V14.7354C333.378 13.4615 332.006 12.419 330.336 12.419C328.666 12.419 327.294 13.4615 327.294 14.7354V40.0313Z" fill="black"/>
<path d="M348.671 34.5117C348.671 35.7856 350.041 36.8291 351.712 36.8291C353.384 36.8291 354.754 35.7856 354.754 34.5117V20.248C354.754 18.9732 353.382 17.9307 351.712 17.9307C350.043 17.9307 348.671 18.9732 348.671 20.248V34.5117Z" fill="black"/>
<path d="M231.122 28.9971C231.122 30.271 232.494 31.3135 234.164 31.3135C235.834 31.3135 237.205 30.271 237.205 28.9971V25.7726C237.205 24.4978 235.835 23.4553 234.164 23.4553C232.492 23.4553 231.122 24.4938 231.122 25.7726V28.9971Z" fill="black"/>
<path d="M241.808 34.5117C241.808 35.7856 243.18 36.8291 244.85 36.8291C246.52 36.8291 247.891 35.7856 247.891 34.5117V20.248C247.891 18.9732 246.52 17.9307 244.85 17.9307C243.18 17.9307 241.808 18.9732 241.808 20.248V34.5117Z" fill="black"/>
<path d="M284.553 34.5117C284.553 35.7856 285.925 36.8291 287.595 36.8291C289.265 36.8291 290.636 35.7856 290.636 34.5117V20.248C290.636 18.9732 289.265 17.9307 287.595 17.9307C285.925 17.9307 284.553 18.9732 284.553 20.248V34.5117Z" fill="black"/>
<path d="M370.043 28.9971C370.043 30.271 371.414 31.3135 373.085 31.3135C374.756 31.3135 376.127 30.271 376.127 28.9971V25.7726C376.127 24.4978 374.756 23.4553 373.085 23.4553C371.414 23.4553 370.043 24.4978 370.043 25.7726V28.9971Z" fill="black"/>
<path d="M391.416 34.5117C391.416 35.7856 392.786 36.8291 394.457 36.8291C396.129 36.8291 397.499 35.7856 397.499 34.5117V20.248C397.499 18.9732 396.129 17.9307 394.457 17.9307C392.786 17.9307 391.416 18.9732 391.416 20.248V34.5117Z" fill="black"/>
<path d="M434.16 34.5117C434.16 35.7856 435.532 36.8291 437.202 36.8291C438.872 36.8291 440.243 35.7856 440.243 34.5117V20.248C440.243 18.9732 438.873 17.9307 437.202 17.9307C435.53 17.9307 434.16 18.9732 434.16 20.248V34.5117Z" fill="black"/>
<path d="M412.788 40.0313C412.788 41.3061 414.16 42.3486 415.83 42.3486C417.5 42.3486 418.871 41.3061 418.871 40.0313V14.7354C418.871 13.4615 417.501 12.419 415.83 12.419C414.158 12.419 412.788 13.4615 412.788 14.7354V40.0313Z" fill="black"/>
<path d="M252.494 40.0313C252.494 41.3061 253.866 42.3486 255.536 42.3486C257.206 42.3486 258.577 41.3061 258.577 40.0313V14.7354C258.577 13.4615 257.206 12.419 255.536 12.419C253.866 12.419 252.494 13.4615 252.494 14.7354V40.0313Z" fill="black"/>
<path d="M273.866 45.5469C273.866 46.8218 275.238 47.8643 276.908 47.8643C278.578 47.8643 279.949 46.8218 279.949 45.5469V9.2158C279.949 7.94196 278.578 6.89946 276.908 6.89946C275.238 6.89946 273.866 7.94196 273.866 9.2158V45.5469Z" fill="black"/>
<path d="M295.239 51.0674C295.239 52.3413 296.61 53.3838 298.28 53.3838C299.95 53.3838 301.322 52.3413 301.322 51.0674V3.70013C301.322 2.4263 299.95 1.38379 298.28 1.38379C296.61 1.38379 295.239 2.4263 295.239 3.70013V51.0674Z" fill="black"/>
<path d="M337.985 45.5469C337.985 46.8218 339.355 47.8643 341.026 47.8643C342.698 47.8643 344.068 46.8218 344.068 45.5469V9.2158C344.068 7.94196 342.696 6.89946 341.026 6.89946C339.356 6.89946 337.985 7.94196 337.985 9.2158V45.5469Z" fill="black"/>
<path d="M316.611 40.0313C316.611 41.3061 317.983 42.3486 319.653 42.3486C321.323 42.3486 322.695 41.3061 322.695 40.0313V14.7354C322.695 13.4615 321.323 12.419 319.653 12.419C317.983 12.419 316.611 13.4615 316.611 14.7354V40.0313Z" fill="black"/>
<path d="M359.357 34.5117C359.357 35.7856 360.728 36.8291 362.399 36.8291C364.07 36.8291 365.441 35.7856 365.441 34.5117V20.248C365.441 18.9732 364.069 17.9307 362.399 17.9307C360.729 17.9307 359.357 18.9732 359.357 20.248V34.5117Z" fill="black"/>
<path d="M380.729 28.9971C380.729 30.271 382.1 31.3135 383.771 31.3135C385.443 31.3135 386.813 30.271 386.813 28.9971V25.7726C386.813 24.4978 385.443 23.4553 383.771 23.4553C382.1 23.4553 380.729 24.4978 380.729 25.7726V28.9971Z" fill="black"/>
<path d="M402.102 32.1289C402.102 33.4038 403.472 34.4463 405.144 34.4463C406.815 34.4463 408.185 33.4038 408.185 32.1289V22.6333C408.185 21.3594 406.815 20.3169 405.144 20.3169C403.472 20.3169 402.102 21.3594 402.102 22.6333V32.1289Z" fill="black"/>
<path d="M444.846 32.1289C444.846 33.4038 446.218 34.4463 447.888 34.4463C449.558 34.4463 450.929 33.4038 450.929 32.1289V22.6333C450.929 21.3594 449.558 20.3169 447.888 20.3169C446.218 20.3169 444.846 21.3594 444.846 22.6333V32.1289Z" fill="black"/>
<path d="M423.474 35.2628C423.474 36.5366 424.846 37.5791 426.516 37.5791C428.186 37.5791 429.557 36.5366 429.557 35.2628V19.504C429.557 18.2301 428.187 17.1876 426.516 17.1876C424.844 17.1876 423.474 18.2301 423.474 19.504V35.2628Z" fill="black"/>
</g>
<g clip-path="url(#clip2_52_280)">
<path d="M494.426 51.0674C494.426 52.3413 495.798 53.3838 497.468 53.3838C499.138 53.3838 500.509 52.3413 500.509 51.0674V3.70013C500.509 2.4263 499.138 1.38379 497.468 1.38379C495.798 1.38379 494.426 2.4263 494.426 3.70013V51.0674Z" fill="black"/>
<path d="M537.171 45.5469C537.171 46.8218 538.543 47.8643 540.212 47.8643C541.882 47.8643 543.254 46.8218 543.254 45.5469V9.2158C543.254 7.94196 541.882 6.89946 540.212 6.89946C538.543 6.89946 537.171 7.94196 537.171 9.2158V45.5469Z" fill="black"/>
<path d="M558.54 40.0313C558.54 41.3061 559.912 42.3486 561.582 42.3486C563.252 42.3486 564.623 41.3061 564.623 40.0313V14.7354C564.623 13.4615 563.252 12.419 561.582 12.419C559.912 12.419 558.54 13.4615 558.54 14.7354V40.0313Z" fill="black"/>
<path d="M579.917 34.5117C579.917 35.7856 581.287 36.8291 582.959 36.8291C584.63 36.8291 586 35.7856 586 34.5117V20.248C586 18.9732 584.629 17.9307 582.959 17.9307C581.289 17.9307 579.917 18.9732 579.917 20.248V34.5117Z" fill="black"/>
<path d="M462.368 28.9971C462.368 30.271 463.74 31.3135 465.41 31.3135C467.08 31.3135 468.451 30.271 468.451 28.9971V25.7726C468.451 24.4978 467.081 23.4553 465.41 23.4553C463.738 23.4553 462.368 24.4938 462.368 25.7726V28.9971Z" fill="black"/>
<path d="M473.054 34.5117C473.054 35.7856 474.425 36.8291 476.095 36.8291C477.765 36.8291 479.137 35.7856 479.137 34.5117V20.248C479.137 18.9732 477.765 17.9307 476.095 17.9307C474.425 17.9307 473.054 18.9732 473.054 20.248V34.5117Z" fill="black"/>
<path d="M515.799 34.5117C515.799 35.7856 517.17 36.8291 518.84 36.8291C520.51 36.8291 521.882 35.7856 521.882 34.5117V20.248C521.882 18.9732 520.51 17.9307 518.84 17.9307C517.17 17.9307 515.799 18.9732 515.799 20.248V34.5117Z" fill="black"/>
<path d="M601.289 28.9971C601.289 30.271 602.659 31.3135 604.331 31.3135C606.002 31.3135 607.372 30.271 607.372 28.9971V25.7726C607.372 24.4978 606.002 23.4553 604.331 23.4553C602.659 23.4553 601.289 24.4978 601.289 25.7726V28.9971Z" fill="black"/>
<path d="M483.74 40.0313C483.74 41.3061 485.112 42.3486 486.782 42.3486C488.452 42.3486 489.823 41.3061 489.823 40.0313V14.7354C489.823 13.4615 488.452 12.419 486.782 12.419C485.112 12.419 483.74 13.4615 483.74 14.7354V40.0313Z" fill="black"/>
<path d="M505.112 45.5469C505.112 46.8218 506.484 47.8643 508.154 47.8643C509.824 47.8643 511.195 46.8218 511.195 45.5469V9.2158C511.195 7.94196 509.824 6.89946 508.154 6.89946C506.484 6.89946 505.112 7.94196 505.112 9.2158V45.5469Z" fill="black"/>
<path d="M526.485 51.0674C526.485 52.3413 527.856 53.3838 529.526 53.3838C531.196 53.3838 532.568 52.3413 532.568 51.0674V3.70013C532.568 2.4263 531.196 1.38379 529.526 1.38379C527.856 1.38379 526.485 2.4263 526.485 3.70013V51.0674Z" fill="black"/>
<path d="M569.23 45.5469C569.23 46.8218 570.601 47.8643 572.272 47.8643C573.943 47.8643 575.314 46.8218 575.314 45.5469V9.2158C575.314 7.94196 573.942 6.89946 572.272 6.89946C570.602 6.89946 569.23 7.94196 569.23 9.2158V45.5469Z" fill="black"/>
<path d="M547.857 40.0313C547.857 41.3061 549.229 42.3486 550.899 42.3486C552.569 42.3486 553.94 41.3061 553.94 40.0313V14.7354C553.94 13.4615 552.569 12.419 550.899 12.419C549.229 12.419 547.857 13.4615 547.857 14.7354V40.0313Z" fill="black"/>
<path d="M590.603 34.5117C590.603 35.7856 591.973 36.8291 593.645 36.8291C595.316 36.8291 596.686 35.7856 596.686 34.5117V20.248C596.686 18.9732 595.315 17.9307 593.645 17.9307C591.975 17.9307 590.603 18.9732 590.603 20.248V34.5117Z" fill="black"/>
</g>
<defs>
<clipPath id="clip0_52_280">
<rect width="221" height="53" fill="white" transform="matrix(1 0 0 -1 0.12207 53.8838)"/>
</clipPath>
<clipPath id="clip1_52_280">
<rect width="221" height="53" fill="white" transform="matrix(1 0 0 -1 231.122 53.8838)"/>
</clipPath>
<clipPath id="clip2_52_280">
<rect width="146" height="52" fill="white" transform="matrix(1 0 0 -1 462.122 53.3838)"/>
</clipPath>
</defs>
</svg>
