<svg width="711" height="596" viewBox="0 0 711 596" fill="none" xmlns="http://www.w3.org/2000/svg">
<path d="M544 63.8833L312.468 64.3015C297.905 64.3015 287.641 78.7125 281.642 90.711V90.8718L188.619 263L144 206.964L230.897 42.4276C234.351 35.8546 238.549 29.7023 243.407 24.0921C256.237 9.26288 262.653 3.76224 283.054 0.223816C287.572 -0.0746054 292.104 -0.0746054 296.622 0.223816H492.067L544 63.8833Z" fill="white"/>
<path d="M271 441L178.656 439.65L47.752 254.548L47.4945 253.97C43.4276 245.512 40.2768 236.644 38.0959 227.518C38.0959 227.164 38.0959 226.843 37.8706 226.489C34.3301 209.583 42.2802 193.801 49.2648 179.884C50.2626 177.924 51.2604 175.931 52.226 173.97L125.773 22.4885L208.139 6L116.503 192.869C111.257 206.433 116.503 224.754 124.228 234.074L124.55 234.46L271 441Z" fill="white"/>
<path d="M466 458.923L429.675 523.99H165.729C164.348 523.99 162.999 523.99 161.682 523.99C153.541 524.146 145.473 522.417 138.107 518.938C131.514 515.606 125.76 510.82 121.278 504.94L0 347.195L9.6354 242L159.273 448.98C167.849 457.443 170.836 459.406 179.604 459.438L466 458.923Z" fill="white"/>
<path d="M711 139L572.219 409.792L571.705 410.855L502.684 556.768C496.614 569.439 486.984 580.053 474.979 587.303C466.668 592.331 457.171 595.044 447.467 595.163L441.528 595.71H440.918L253.951 596L197 545.14L427.178 543.24C430.005 543.243 432.791 542.562 435.3 541.256C437.809 539.949 439.967 538.055 441.592 535.735L486.536 447.897L371.929 217.754L454.883 218.237L522.652 355.904L636.585 139H711Z" fill="white"/>
</svg>
