<svg width="20" height="20" viewBox="0 0 74 74" fill="none" xmlns="http://www.w3.org/2000/svg">
<path fill-rule="evenodd" clip-rule="evenodd" d="M15.9 5H57.83C63.8499 5 68.73 9.8801 68.73 15.9V57.83C68.73 63.8499 63.8499 68.73 57.83 68.73H15.9C9.8801 68.73 5 63.8499 5 57.83V15.9C5 9.8801 9.8801 5 15.9 5Z" fill="#F0F0F0"/>
<path d="M57.83 0H15.9V10H57.83V0ZM73.73 15.9C73.73 7.11867 66.6113 0 57.83 0V10C61.0885 10 63.73 12.6415 63.73 15.9H73.73ZM73.73 57.83V15.9H63.73V57.83H73.73ZM57.83 73.73C66.6113 73.73 73.73 66.6113 73.73 57.83H63.73C63.73 61.0885 61.0885 63.73 57.83 63.73V73.73ZM15.9 73.73H57.83V63.73H15.9V73.73ZM0 57.83C0 66.6113 7.11867 73.73 15.9 73.73V63.73C12.6415 63.73 10 61.0885 10 57.83H0ZM0 15.9V57.83H10V15.9H0ZM15.9 0C7.11867 0 0 7.11867 0 15.9H10C10 12.6415 12.6415 10 15.9 10V0Z" fill="white"/>
<g clip-path="url(#clip0_865_15650)">
<path d="M57.83 5H15.9C9.8801 5 5 9.8801 5 15.9V57.83C5 63.8499 9.8801 68.73 15.9 68.73H57.83C63.8499 68.73 68.73 63.8499 68.73 57.83V15.9C68.73 9.8801 63.8499 5 57.83 5Z" fill="#00923E"/>
<path d="M5.35986 36.86L36.8599 56.98L68.3599 36.86L36.8599 16.75L5.35986 36.86Z" fill="#F8C100"/>
<path d="M36.8601 23.3809C39.5286 23.3809 42.1372 24.1723 44.3558 25.655C46.5744 27.1378 48.3035 29.2452 49.3242 31.7108C50.3449 34.1763 50.6115 36.8892 50.0902 39.5063C49.5689 42.1234 48.2831 44.5271 46.3954 46.4133C44.5078 48.2995 42.1032 49.5835 39.4858 50.1029C36.8683 50.6223 34.1556 50.3537 31.6908 49.3311C29.226 48.3086 27.1198 46.578 25.6387 44.3582C24.1576 42.1385 23.3681 39.5294 23.3701 36.8609C23.3728 33.2848 24.7952 29.8562 27.3248 27.3285C29.8544 24.8007 33.2841 23.3809 36.8601 23.3809Z" fill="#28166F"/>
<path d="M50.28 38.2196C46.691 35.3506 42.5371 33.2709 38.0897 32.1164C33.6423 30.9619 29.0014 30.7586 24.47 31.5196C24.1786 32.1954 23.9445 32.8945 23.77 33.6096C25.4172 33.2715 27.0896 33.0708 28.77 33.0096C36.4816 32.7342 44.0155 35.3644 49.88 40.3796C50.0756 39.6725 50.2095 38.9498 50.28 38.2196Z" fill="#F0F0F0"/>
<path d="M24.8601 32.4201C24.8383 32.3281 24.8359 32.2326 24.8532 32.1396C24.8704 32.0466 24.9068 31.9582 24.9601 31.8801C25.0032 31.8229 25.0577 31.7753 25.1201 31.7401C25.2032 31.6905 25.2947 31.6566 25.3901 31.6401C25.4756 31.6253 25.5633 31.6283 25.6476 31.6489C25.732 31.6696 25.8111 31.7074 25.8801 31.7601C26.0198 31.8826 26.106 32.0549 26.1201 32.2401C26.1388 32.3275 26.1396 32.4177 26.1224 32.5054C26.1052 32.5931 26.0704 32.6763 26.0201 32.7501C25.9695 32.8183 25.905 32.8749 25.8309 32.9163C25.7567 32.9576 25.6747 32.9828 25.5901 32.9901C25.5056 33.012 25.417 33.0134 25.3318 32.9943C25.2466 32.9752 25.1672 32.936 25.1001 32.8801C25.0287 32.8258 24.9702 32.7564 24.9288 32.6769C24.8873 32.5974 24.8638 32.5097 24.8601 32.4201ZM25.1201 32.3701C25.133 32.4926 25.1899 32.6063 25.2801 32.6901C25.3145 32.7253 25.3578 32.7504 25.4054 32.7627C25.4529 32.775 25.503 32.7741 25.5501 32.7601C25.5995 32.7564 25.6474 32.7419 25.6906 32.7178C25.7338 32.6936 25.7711 32.6603 25.8001 32.6201C25.8571 32.5093 25.8747 32.3823 25.8501 32.2601C25.8398 32.139 25.7866 32.0255 25.7001 31.9401C25.6605 31.9103 25.6153 31.8887 25.5672 31.8767C25.5191 31.8647 25.4691 31.8624 25.4201 31.8701C25.3238 31.8874 25.2378 31.9411 25.1801 32.0201C25.122 32.127 25.1009 32.25 25.1201 32.3701Z" fill="#00923E"/>
<path d="M26.7101 32.8201L26.6001 31.5201L27.1501 31.4601C27.2561 31.443 27.3641 31.443 27.4701 31.4601C27.5325 31.4815 27.5878 31.5195 27.6301 31.5701C27.6757 31.6344 27.7001 31.7113 27.7001 31.7902C27.7125 31.8781 27.6911 31.9674 27.6401 32.0402C27.5753 32.1124 27.4864 32.1586 27.3901 32.1701C27.4487 32.1985 27.5027 32.2356 27.5501 32.2802C27.6131 32.3375 27.6701 32.4012 27.7201 32.4701L27.9001 32.7201H27.5801L27.3601 32.4601C27.3218 32.3913 27.2709 32.3302 27.2101 32.2802C27.188 32.2503 27.1562 32.2291 27.1201 32.2201H26.9301L26.9801 32.7701L26.7101 32.8201ZM26.9201 32.0501H27.1101C27.1898 32.0598 27.2704 32.0598 27.3501 32.0501L27.4201 31.9801C27.4257 31.9471 27.4257 31.9132 27.4201 31.8801C27.4158 31.839 27.3983 31.8004 27.3701 31.7701C27.3375 31.7601 27.3027 31.7601 27.2701 31.7701H26.8701L26.9201 32.0501Z" fill="#00923E"/>
<path d="M28.3101 31.3809H29.0501C29.1297 31.4009 29.2023 31.4424 29.2601 31.5009C29.3114 31.5656 29.355 31.6361 29.3901 31.7109C29.4197 31.8117 29.4365 31.9158 29.4401 32.0209C29.4576 32.1134 29.4576 32.2084 29.4401 32.3009C29.4151 32.3895 29.3707 32.4715 29.3101 32.5409C29.2562 32.5897 29.1908 32.6241 29.1201 32.6409C29.0444 32.6587 28.9657 32.6587 28.8901 32.6409H28.3901L28.3101 31.3809ZM28.5901 31.5909V32.4609H29.0001C29.043 32.4556 29.0824 32.4341 29.1101 32.4009C29.1377 32.3615 29.158 32.3174 29.1701 32.2709C29.1778 32.191 29.1778 32.1107 29.1701 32.0309C29.1768 31.951 29.1768 31.8707 29.1701 31.7909C29.1493 31.7472 29.1224 31.7068 29.0901 31.6709L28.9601 31.6109C28.8905 31.6001 28.8196 31.6001 28.7501 31.6109L28.5901 31.5909Z" fill="#00923E"/>
<path d="M30 32.6598V31.3398H31V31.5698H30.29V31.8598H30.95V32.0798H30.3V32.4398H31V32.6598H30Z" fill="#00923E"/>
<path d="M31.5 32.6909L31.6 31.3809H31.99L32.17 32.3009L32.47 31.4209H32.86L32.77 32.7509H32.53L32.6 31.7509L32.26 32.7509H32.01L31.82 31.7009L31.75 32.7009L31.5 32.6909Z" fill="#00923E"/>
<path d="M34.1299 32.9409L34.3399 31.6309L35.3399 31.7809V32.0009L34.6299 31.8909V32.1909L35.2899 32.2909V32.5009L34.6399 32.4109V32.7609L35.3699 32.8709V33.1009L34.1299 32.9409Z" fill="#00923E"/>
<path d="M36.4302 33.3405L36.7302 32.0605L37.1402 32.1405C37.2463 32.1647 37.35 32.1981 37.4502 32.2405C37.5192 32.277 37.5726 32.3375 37.6002 32.4105C37.6315 32.4978 37.6315 32.5933 37.6002 32.6805C37.5824 32.7459 37.5518 32.8071 37.5102 32.8605C37.4713 32.9062 37.4237 32.9436 37.3702 32.9705C37.3213 32.9853 37.2691 32.9853 37.2202 32.9705C37.148 32.9876 37.0743 32.9976 37.0002 33.0005H36.8302L36.7202 33.4905L36.4302 33.3405ZM36.9302 32.3405L36.8502 32.7005H36.9902C37.0596 32.7127 37.1307 32.7127 37.2002 32.7005C37.2198 32.7019 37.2394 32.698 37.257 32.6892C37.2746 32.6804 37.2895 32.6671 37.3002 32.6505C37.3159 32.6442 37.3292 32.6331 37.3382 32.6187C37.3472 32.6043 37.3514 32.5875 37.3502 32.5705C37.3599 32.5503 37.365 32.5281 37.365 32.5055C37.365 32.483 37.3599 32.4608 37.3502 32.4405C37.3502 32.4405 37.3502 32.3805 37.2602 32.3705C37.2057 32.3367 37.144 32.3162 37.0802 32.3105L36.9302 32.3405Z" fill="#00923E"/>
<path d="M37.9302 33.7097L38.2902 32.4297L38.8302 32.5797C38.9278 32.6089 39.0217 32.6492 39.1102 32.6997C39.1692 32.7402 39.2117 32.8005 39.2302 32.8697C39.2402 32.9427 39.2402 33.0167 39.2302 33.0897C39.2007 33.1723 39.1488 33.2451 39.0802 33.2997C38.9869 33.336 38.8834 33.336 38.7902 33.2997C38.8306 33.3433 38.8674 33.3901 38.9002 33.4397C38.9002 33.4997 38.9502 33.5797 38.9802 33.6897L39.0702 33.9897L38.7602 33.8897L38.6502 33.5697C38.6502 33.4497 38.5902 33.3797 38.5802 33.3397L38.5202 33.2697L38.3802 33.2097L38.2302 33.7497L37.9302 33.7097ZM38.3902 33.0397L38.5802 33.0997H38.8102C38.8392 33.1104 38.8711 33.1104 38.9002 33.0997C38.9002 33.0997 39.0002 33.0597 39.0002 32.9997C39.0108 32.9604 39.0108 32.919 39.0002 32.8797C38.9841 32.8442 38.9557 32.8157 38.9202 32.7997H38.7302L38.5402 32.7397L38.3902 33.0397Z" fill="#00923E"/>
<path d="M39.6401 33.5292C39.6757 33.4187 39.7335 33.3166 39.8101 33.2292C39.8575 33.1663 39.9242 33.1206 40.0001 33.0992C40.0605 33.0623 40.1294 33.0416 40.2001 33.0392C40.2991 33.0371 40.3976 33.0541 40.4901 33.0892C40.5729 33.1117 40.6498 33.152 40.7154 33.2073C40.7811 33.2626 40.8338 33.3315 40.8701 33.4092C40.9277 33.5803 40.9265 33.7657 40.8667 33.936C40.8069 34.1063 40.692 34.2517 40.5401 34.3492C40.4638 34.3864 40.38 34.4057 40.2951 34.4057C40.2102 34.4057 40.1264 34.3864 40.0501 34.3492C39.9672 34.3273 39.8897 34.2885 39.8226 34.2351C39.7555 34.1818 39.7001 34.1151 39.6601 34.0392C39.5864 33.8785 39.5792 33.6952 39.6401 33.5292ZM39.9001 33.6092C39.855 33.7216 39.855 33.8469 39.9001 33.9592C39.9409 34.051 40.0164 34.123 40.1101 34.1592C40.1541 34.1791 40.2018 34.1894 40.2501 34.1894C40.2984 34.1894 40.3461 34.1791 40.3901 34.1592C40.4955 34.0894 40.5706 33.9822 40.6001 33.8592C40.6442 33.7467 40.6442 33.6217 40.6001 33.5092C40.5814 33.464 40.5528 33.4234 40.5165 33.3906C40.4802 33.3577 40.437 33.3333 40.3901 33.3192C40.3444 33.2991 40.295 33.2887 40.2451 33.2887C40.1952 33.2887 40.1458 33.2991 40.1001 33.3192C40.0029 33.3908 39.9325 33.4929 39.9001 33.6092Z" fill="#00923E"/>
<path d="M41.8699 34.5302L41.9499 34.3302L42.4899 34.5402L42.2799 35.0202C42.1957 35.0598 42.1027 35.077 42.0099 35.0702C41.9015 35.0608 41.7943 35.0407 41.6899 35.0102C41.5681 34.9623 41.4611 34.8829 41.3799 34.7802C41.3095 34.6914 41.2676 34.5833 41.2599 34.4702C41.2531 34.3462 41.2772 34.2225 41.3299 34.1102C41.3762 33.9901 41.4518 33.8835 41.5499 33.8002C41.6418 33.7269 41.753 33.6818 41.8699 33.6702C41.9796 33.6674 42.0887 33.6879 42.1899 33.7302C42.3213 33.771 42.4322 33.8604 42.4999 33.9802C42.5601 34.0752 42.5816 34.1897 42.5599 34.3002H42.2999C42.3098 34.233 42.295 34.1646 42.2582 34.1076C42.2214 34.0505 42.1652 34.0088 42.0999 33.9902C42.0541 33.9706 42.0048 33.9606 41.9549 33.9606C41.9051 33.9606 41.8558 33.9706 41.8099 33.9902C41.7062 34.0576 41.6259 34.1554 41.5799 34.2702C41.5371 34.3863 41.5371 34.514 41.5799 34.6302C41.598 34.6781 41.626 34.7216 41.6623 34.7578C41.6985 34.794 41.742 34.8221 41.7899 34.8402C41.8422 34.8552 41.8976 34.8552 41.9499 34.8402C42.0056 34.8555 42.0643 34.8555 42.1199 34.8402L42.1799 34.6902L41.8699 34.5302Z" fill="#00923E"/>
<path d="M42.7202 35.4305L43.2902 34.2305L43.7902 34.4705C43.8875 34.5089 43.976 34.5667 44.0502 34.6405C44.0994 34.6888 44.1311 34.7521 44.1402 34.8205C44.1603 34.8856 44.1603 34.9553 44.1402 35.0205C44.1255 35.0647 44.1007 35.1049 44.0677 35.1379C44.0347 35.1709 43.9945 35.1957 43.9502 35.2105C43.9062 35.2303 43.8585 35.2406 43.8102 35.2406C43.7619 35.2406 43.7142 35.2303 43.6702 35.2105L43.7502 35.3705C43.7607 35.4568 43.7607 35.5441 43.7502 35.6305V35.9305L43.4602 35.8005V35.4505C43.467 35.3706 43.467 35.2903 43.4602 35.2105C43.4602 35.2105 43.4602 35.1505 43.4602 35.1305C43.4602 35.1105 43.4002 35.1305 43.3402 35.0605L43.1002 35.5605L42.7202 35.4305ZM43.2902 34.8405L43.4702 34.9405C43.5415 34.9723 43.6151 34.9991 43.6902 35.0205H43.7802L43.8502 34.9305C43.8574 34.9148 43.8611 34.8977 43.8611 34.8805C43.8611 34.8632 43.8574 34.8462 43.8502 34.8305C43.8392 34.79 43.8145 34.7546 43.7802 34.7305L43.6102 34.6505L43.4202 34.5505L43.2902 34.8405Z" fill="#00923E"/>
<path d="M44.1802 36.13L44.8002 35L45.6602 35.47L45.5602 35.66L44.9302 35.32L44.7902 35.59L45.3802 35.9L45.2702 36.09L44.6802 35.78L44.5202 36.09L45.1602 36.45L45.0602 36.64L44.1802 36.13Z" fill="#00923E"/>
<path d="M45.6699 36.4704L45.9099 36.5704C45.8861 36.6452 45.8861 36.7256 45.9099 36.8004C45.9196 36.832 45.9364 36.861 45.9589 36.8853C45.9814 36.9095 46.0091 36.9284 46.0399 36.9404C46.0989 36.9803 46.1687 37.0012 46.2399 37.0004C46.2873 36.9931 46.3301 36.9681 46.3599 36.9304C46.369 36.9045 46.369 36.8763 46.3599 36.8504C46.3658 36.814 46.3658 36.7768 46.3599 36.7404C46.3038 36.6899 46.2504 36.6365 46.1999 36.5804C46.1211 36.5062 46.0567 36.418 46.0099 36.3204C45.9876 36.2735 45.9761 36.2223 45.9761 36.1704C45.9761 36.1185 45.9876 36.0673 46.0099 36.0204C46.0448 35.9623 46.0974 35.9168 46.1599 35.8904C46.2257 35.8751 46.2941 35.8751 46.3599 35.8904C46.4497 35.8978 46.536 35.9289 46.6099 35.9804C46.7296 36.0414 46.8223 36.1448 46.8699 36.2704C46.8944 36.3184 46.9073 36.3715 46.9073 36.4254C46.9073 36.4793 46.8944 36.5324 46.8699 36.5804L46.6299 36.4604C46.6482 36.4052 46.6482 36.3456 46.6299 36.2904C46.5975 36.2373 46.553 36.1928 46.4999 36.1604C46.4413 36.142 46.3785 36.142 46.3199 36.1604C46.294 36.1513 46.2658 36.1513 46.2399 36.1604C46.2299 36.193 46.2299 36.2278 46.2399 36.2604C46.2771 36.3358 46.332 36.4009 46.3999 36.4504C46.4715 36.5262 46.5383 36.6063 46.5999 36.6904C46.6317 36.7488 46.6489 36.814 46.6499 36.8804C46.6526 36.9535 46.6276 37.025 46.5799 37.0804C46.5426 37.1477 46.4872 37.2032 46.4199 37.2404C46.3473 37.2552 46.2725 37.2552 46.1999 37.2404C46.1024 37.2257 46.0099 37.188 45.9299 37.1304C45.8058 37.0723 45.709 36.9684 45.6599 36.8404C45.6147 36.7205 45.6183 36.5877 45.6699 36.4704Z" fill="#00923E"/>
<path d="M47.0002 37.2799L47.2402 37.4099C47.2264 37.4414 47.2193 37.4755 47.2193 37.5099C47.2193 37.5443 47.2264 37.5784 47.2402 37.6099C47.2568 37.6799 47.2998 37.7408 47.3602 37.7799C47.386 37.8024 47.4162 37.8193 47.4489 37.8297C47.4816 37.84 47.5161 37.8435 47.5502 37.8399C47.5758 37.8395 47.6011 37.833 47.6237 37.8208C47.6463 37.8086 47.6657 37.7912 47.6802 37.7699C47.6893 37.744 47.6893 37.7158 47.6802 37.6899C47.6908 37.6574 47.6908 37.6224 47.6802 37.5899L47.5402 37.4199C47.4595 37.3455 47.3978 37.2529 47.3602 37.1499C47.3476 37.1008 47.3455 37.0495 47.3542 36.9996C47.3628 36.9496 47.3819 36.902 47.4102 36.8599C47.4487 36.8011 47.5046 36.7556 47.5702 36.7299C47.6013 36.7149 47.6355 36.707 47.6701 36.707C47.7048 36.707 47.739 36.7149 47.7702 36.7299C47.8576 36.7415 47.9404 36.776 48.0101 36.8299C48.1262 36.8974 48.2147 37.0036 48.2601 37.1299C48.2847 37.1779 48.2975 37.231 48.2975 37.2849C48.2975 37.3388 48.2847 37.3919 48.2601 37.4399L48.0301 37.3099C48.042 37.2831 48.0481 37.2542 48.0481 37.2249C48.0481 37.1956 48.042 37.1667 48.0301 37.1399C48.0068 37.0869 47.9686 37.0417 47.9201 37.0099C47.8647 36.9781 47.8035 36.9577 47.7402 36.9499C47.7402 36.9499 47.6802 36.9499 47.6602 36.9499C47.6531 36.9639 47.6495 36.9793 47.6495 36.9949C47.6495 37.0105 47.6531 37.026 47.6602 37.0399C47.6954 37.1223 47.7463 37.197 47.8102 37.2599C47.8819 37.3304 47.9426 37.4113 47.9902 37.4999C48.0141 37.561 48.0141 37.6288 47.9902 37.6899C47.9892 37.7642 47.9607 37.8354 47.9102 37.8899C47.8938 37.9213 47.8711 37.9491 47.8436 37.9714C47.8161 37.9938 47.7843 38.0103 47.7502 38.0199C47.6754 38.0443 47.5949 38.0443 47.5202 38.0199C47.4134 38.0381 47.3038 38.0312 47.2002 37.9999C47.0759 37.935 46.9824 37.8236 46.9401 37.6899C46.9203 37.6212 46.9153 37.5491 46.9257 37.4784C46.936 37.4077 46.9614 37.34 47.0002 37.2799Z" fill="#00923E"/>
<path d="M48.4201 38.001C48.4907 37.9115 48.5751 37.8338 48.6701 37.771C48.7373 37.7399 48.8077 37.7165 48.8801 37.701C48.9459 37.6856 49.0143 37.6856 49.0801 37.701C49.1759 37.7356 49.2666 37.7827 49.3501 37.841C49.4216 37.8891 49.4812 37.9528 49.5245 38.0273C49.5678 38.1017 49.5936 38.1851 49.6001 38.271C49.6097 38.3609 49.6004 38.4517 49.5728 38.5378C49.5453 38.6239 49.5001 38.7033 49.4401 38.771C49.3369 38.9188 49.1845 39.0251 49.0101 39.071C48.9225 39.0805 48.8339 39.0721 48.7497 39.0463C48.6655 39.0205 48.5874 38.9779 48.5201 38.921C48.45 38.8705 48.3908 38.8064 48.3461 38.7325C48.3015 38.6587 48.2722 38.5765 48.2601 38.491C48.2492 38.3132 48.3064 38.138 48.4201 38.001ZM48.6401 38.171C48.5599 38.2619 48.517 38.3798 48.5201 38.501C48.5245 38.5502 48.5392 38.5979 48.5634 38.641C48.5875 38.684 48.6205 38.7215 48.6601 38.751C48.6985 38.7827 48.744 38.8048 48.7928 38.8152C48.8415 38.8257 48.8921 38.8242 48.9401 38.811C49.0591 38.7844 49.163 38.7127 49.2301 38.611C49.3072 38.5182 49.3496 38.4016 49.3501 38.281C49.3464 38.2316 49.3319 38.1837 49.3077 38.1405C49.2836 38.0973 49.2502 38.0599 49.2101 38.031C49.171 37.9999 49.1261 37.9768 49.0781 37.9631C49.03 37.9494 48.9798 37.9452 48.9301 37.951C48.815 37.986 48.7137 38.0558 48.6401 38.151V38.171Z" fill="#00923E"/>
<path d="M41.1501 31.75L41.2701 32.12H41.6701L41.3501 32.36L41.4701 32.74L41.1501 32.5L40.8301 32.74L40.9501 32.36L40.6201 32.12H41.0201L41.1501 31.75Z" fill="#F0F0F0"/>
<path d="M36.9199 42.6406L37.0399 43.0206H37.4499L37.1199 43.2606L37.2399 43.6406L36.9199 43.4006L36.5899 43.6406L36.7199 43.2606L36.3999 43.0206H36.7999L36.9199 42.6406Z" fill="#F0F0F0"/>
<path d="M46.49 41.3008L46.62 41.6808H47.02L46.7 41.9208L46.83 42.3208L46.49 42.0808L46.16 42.3208L46.29 41.9208L45.96 41.6808H46.37L46.49 41.3008Z" fill="#F0F0F0"/>
<path d="M48.3898 41.6191L48.4598 41.8691H48.7298L48.5198 42.0291L48.5898 42.2691L48.3898 42.1191L48.1798 42.2691L48.2498 42.0291L48.0498 41.8691H48.3098L48.3898 41.6191Z" fill="#F0F0F0"/>
<path d="M47.0401 42.5898L47.1501 42.9198H47.5101L47.2201 43.1298L47.3301 43.4598L47.0401 43.2598L46.7601 43.4598L46.8701 43.1298L46.5801 42.9198H46.9301L47.0401 42.5898Z" fill="#F0F0F0"/>
<path d="M46.2 43.6992L46.31 44.0392H46.65L46.37 44.2392L46.48 44.5592L46.2 44.3692L45.92 44.5592L46.03 44.2392L45.75 44.0392H46.09L46.2 43.6992Z" fill="#F0F0F0"/>
<path d="M45.12 44.5098L45.2 44.7598H45.47L45.26 44.9198L45.33 45.1698L45.12 45.0198L44.9 45.1698L44.98 44.9198L44.77 44.7598H45.04L45.12 44.5098Z" fill="#F0F0F0"/>
<path d="M43.7001 44.2402L43.7801 44.4902H44.0401L43.8401 44.6402L43.9101 44.9002L43.7001 44.7402L43.4801 44.9002L43.5701 44.6402L43.3501 44.4902H43.6201L43.7001 44.2402Z" fill="#F0F0F0"/>
<path d="M42.17 44.6895L42.26 44.9795H42.54L42.31 45.1495L42.4 45.4095L42.17 45.2395L41.94 45.4095L42.03 45.1495L41.79 44.9795H42.09L42.17 44.6895Z" fill="#F0F0F0"/>
<path d="M43.7199 46.9297L43.8099 47.1897H44.0699L43.8499 47.3397L43.9399 47.5897L43.7199 47.4397L43.5099 47.5897L43.5899 47.3397L43.3799 47.1897H43.6399L43.7199 46.9297Z" fill="#F0F0F0"/>
<path d="M40.9702 45.75L41.0802 46.1H41.4502L41.1502 46.32L41.2602 46.66L40.9702 46.45L40.6702 46.66L40.7902 46.32L40.4902 46.1H40.8602L40.9702 45.75Z" fill="#F0F0F0"/>
<path d="M39.9098 44.3496L39.9998 44.6096H40.2798L40.0598 44.7796L40.1398 45.0396L39.9098 44.8696L39.6898 45.0396L39.7798 44.7796L39.5498 44.6096H39.8298L39.9098 44.3496Z" fill="#F0F0F0"/>
<path d="M43.7698 45.4609L43.8798 45.7909H44.2398L43.9398 45.9909L44.0498 46.3309L43.7698 46.1209L43.4798 46.3309L43.5898 45.9909L43.2998 45.7909H43.6598L43.7698 45.4609Z" fill="#F0F0F0"/>
<path d="M36.9002 47.6191L36.9402 47.7391H37.0702L36.9602 47.8091L37.0102 47.9391L36.9002 47.8691L36.8002 47.9391L36.8402 47.8091L36.7402 47.7391H36.8602L36.9002 47.6191Z" fill="#F0F0F0"/>
<path d="M40.4901 35.8594L40.5801 36.1294H40.8601L40.6301 36.2994L40.7201 36.5694L40.4901 36.3894L40.2501 36.5694L40.3401 36.2994L40.1001 36.1294H40.4001L40.4901 35.8594Z" fill="#F0F0F0"/>
<path d="M36.91 38.8203L37.01 39.1203H37.32L37.07 39.2903L37.16 39.5803L36.91 39.4003L36.67 39.5803L36.76 39.2903L36.52 39.1203H36.82L36.91 38.8203Z" fill="#F0F0F0"/>
<path d="M38.4898 40.0508L38.5898 40.3608H38.9198L38.6598 40.5508L38.7698 40.8708L38.4898 40.6708L38.2298 40.8708L38.3398 40.5508L38.0698 40.3608H38.3998L38.4898 40.0508Z" fill="#F0F0F0"/>
<path d="M35.5402 40.0801L35.6202 40.3301H35.8802L35.6702 40.4901L35.7502 40.7401L35.5402 40.5801L35.3302 40.7401L35.4102 40.4901L35.2002 40.3301H35.4602L35.5402 40.0801Z" fill="#F0F0F0"/>
<path d="M36.2002 41.1895L36.2502 41.3695H36.4302L36.2802 41.4695L36.3402 41.6395L36.2002 41.5295L36.0602 41.6395L36.1102 41.4695L35.9702 41.3695H36.1502L36.2002 41.1895Z" fill="#F0F0F0"/>
<path d="M25.7202 34.0898L25.8402 34.4698H26.2402L25.9102 34.7098L26.0402 35.0898L25.7202 34.8498L25.3902 35.0898L25.5102 34.7098L25.2002 34.4698H25.5902L25.7202 34.0898Z" fill="#F0F0F0"/>
<path d="M31.6202 37.1602L31.7202 37.4702H32.0502L31.7902 37.6602L31.8802 37.9802L31.6202 37.7802L31.3502 37.9802L31.4502 37.6602L31.1802 37.4702H31.5202L31.6202 37.1602Z" fill="#F0F0F0"/>
<path d="M26.9302 39.8203L27.0602 40.2003H27.4602L27.1402 40.4403L27.2702 40.8203L26.9302 40.5903L26.6102 40.8203L26.7402 40.4403L26.4102 40.2003H26.8102L26.9302 39.8203Z" fill="#F0F0F0"/>
<path d="M28.26 39.2598L28.32 39.4498H28.53L28.37 39.5698L28.43 39.7498L28.26 39.6298L28.1 39.7498L28.16 39.5698L28 39.4498H28.2L28.26 39.2598Z" fill="#F0F0F0"/>
<path d="M29.8001 41.25L29.9101 41.59H30.2501L29.9701 41.79L30.0701 42.11L29.8001 41.91L29.5201 42.11L29.6301 41.79L29.3501 41.59H29.6901L29.8001 41.25Z" fill="#F0F0F0"/>
<path d="M31.4101 43.7695L31.5301 44.1395H31.9301L31.6101 44.3795L31.7301 44.7595L31.4101 44.5395L31.0801 44.7595L31.2101 44.3795L30.8901 44.1395H31.2901L31.4101 43.7695Z" fill="#F0F0F0"/>
<path d="M29.3602 42.6309L29.4602 42.9509H29.8002L29.5302 43.1509L29.6302 43.4709L29.3602 43.2709L29.0802 43.4709L29.1802 43.1509L28.9102 42.9509H29.2502L29.3602 42.6309Z" fill="#F0F0F0"/>
<path d="M25.2399 41.2207L25.3299 41.4707H25.5999L25.3799 41.6207L25.4599 41.8707L25.2399 41.7207L25.0299 41.8707L25.1099 41.6207L24.8999 41.4707H25.1599L25.2399 41.2207Z" fill="#F0F0F0"/>
</g>
<defs>
<clipPath id="clip0_865_15650">
<rect width="63.73" height="63.73" fill="white" transform="translate(5 5)"/>
</clipPath>
</defs>
</svg>
