<svg width="20" height="20" viewBox="0 0 74 74" fill="none" xmlns="http://www.w3.org/2000/svg">
<path fill-rule="evenodd" clip-rule="evenodd" d="M64.0914 6.9985C65.875 8.26133 67.2371 10.0321 68 12.08C68.4678 13.2931 68.715 14.58 68.73 15.88V19.16H68.72V26.24V33.32H43.63V33.33H68.72V40.41H68.73V47.49V54.57H68.71V57.85C68.7014 59.1488 68.461 60.4357 68 61.65C67.2297 63.7168 65.8493 65.5007 64.042 66.7652C62.2346 68.0296 60.0857 68.7148 57.88 68.73H15.88C13.6647 68.7242 11.5038 68.0435 9.68514 66.7786C7.86646 65.5138 6.47636 63.7248 5.7 61.65C5.24243 60.4351 5.00538 59.1482 5 57.85V54.57V47.49V40.41V15.82C5.02877 12.9541 6.18207 10.2141 8.21148 8.19034C10.2409 6.16654 12.984 5.02083 15.85 5H43.63H58C60.1851 5.03927 62.3077 5.73567 64.0914 6.9985Z" fill="#F0F0F0"/>
<path d="M68 12.08L63.3146 13.8255L63.3246 13.8524L63.3349 13.8791L68 12.08ZM64.0914 6.9985L61.2022 11.0793L64.0914 6.9985ZM68.73 15.88H73.73V15.8512L73.7297 15.8224L68.73 15.88ZM68.73 19.16V24.16H73.73V19.16H68.73ZM68.72 19.16V14.16H63.72V19.16H68.72ZM68.72 33.32V38.32H73.72V33.32H68.72ZM43.63 33.32V28.32H38.63V33.32H43.63ZM43.63 33.33H38.63V38.33H43.63V33.33ZM68.72 33.33H73.72V28.33H68.72V33.33ZM68.72 40.41H63.72V45.41H68.72V40.41ZM68.73 40.41H73.73V35.41H68.73V40.41ZM68.73 54.57V59.57H73.73V54.57H68.73ZM68.71 54.57V49.57H63.71V54.57H68.71ZM68.71 57.85L73.7099 57.883L73.71 57.8665V57.85H68.71ZM68 61.65L63.3255 59.8755L63.3201 59.8896L63.3148 59.9038L68 61.65ZM64.042 66.7652L66.9082 70.8621H66.9082L64.042 66.7652ZM57.88 68.73V73.73H57.8972L57.9144 73.7299L57.88 68.73ZM15.88 68.73L15.8668 73.73H15.88V68.73ZM9.68514 66.7786L12.54 62.6738L9.68514 66.7786ZM5.7 61.65L10.3829 59.8977L10.3791 59.8877L5.7 61.65ZM5 57.85H0V57.8604L4.29153e-05 57.8707L5 57.85ZM5 15.82L0.00025177 15.7698L0 15.7949V15.82H5ZM8.21148 8.19034L4.68084 4.64992L4.68084 4.64992L8.21148 8.19034ZM15.85 5V0H15.8318L15.8137 0.000132084L15.85 5ZM58 5L58.0898 0.000807285L58.0449 0H58V5ZM72.6854 10.3345C71.5719 7.34538 69.5839 4.76091 66.9806 2.91774L61.2022 11.0793C62.1662 11.7618 62.9022 12.7187 63.3146 13.8255L72.6854 10.3345ZM73.7297 15.8224C73.7078 13.9266 73.3473 12.0499 72.6651 10.2809L63.3349 13.8791C63.5883 14.5362 63.7222 15.2333 63.7303 15.9376L73.7297 15.8224ZM73.73 19.16V15.88H63.73V19.16H73.73ZM68.72 24.16H68.73V14.16H68.72V24.16ZM73.72 26.24V19.16H63.72V26.24H73.72ZM73.72 33.32V26.24H63.72V33.32H73.72ZM43.63 38.32H68.72V28.32H43.63V38.32ZM48.63 33.33V33.32H38.63V33.33H48.63ZM68.72 28.33H43.63V38.33H68.72V28.33ZM73.72 40.41V33.33H63.72V40.41H73.72ZM68.73 35.41H68.72V45.41H68.73V35.41ZM73.73 47.49V40.41H63.73V47.49H73.73ZM73.73 54.57V47.49H63.73V54.57H73.73ZM68.71 59.57H68.73V49.57H68.71V59.57ZM73.71 57.85V54.57H63.71V57.85H73.71ZM72.6745 63.4246C73.3467 61.6537 73.6974 59.7771 73.7099 57.883L63.7101 57.817C63.7055 58.5206 63.5752 59.2177 63.3255 59.8755L72.6745 63.4246ZM66.9082 70.8621C69.5461 69.0166 71.5608 66.4129 72.6852 63.3962L63.3148 59.9038C62.8985 61.0208 62.1525 61.9849 61.1758 62.6682L66.9082 70.8621ZM57.9144 73.7299C61.1337 73.7077 64.2703 72.7076 66.9082 70.8621L61.1758 62.6682C60.199 63.3516 59.0376 63.7219 57.8456 63.7301L57.9144 73.7299ZM15.88 73.73H57.88V63.73H15.88V73.73ZM6.83029 70.8835C9.48323 72.7285 12.6354 73.7215 15.8668 73.73L15.8932 63.73C14.6941 63.7269 13.5244 63.3584 12.54 62.6738L6.83029 70.8835ZM1.0171 63.4023C2.14959 66.4288 4.17736 69.0384 6.83029 70.8835L12.54 62.6738C11.5556 61.9891 10.8031 61.0208 10.3829 59.8977L1.0171 63.4023ZM4.29153e-05 57.8707C0.00789452 59.7639 0.353583 61.6405 1.02085 63.4123L10.3791 59.8877C10.1313 59.2296 10.0029 58.5325 9.99996 57.8293L4.29153e-05 57.8707ZM0 54.57V57.85H10V54.57H0ZM0 47.49V54.57H10V47.49H0ZM0 40.41V47.49H10V40.41H0ZM0 15.82V40.41H10V15.82H0ZM4.68084 4.64992C1.72306 7.59952 0.0421805 11.5929 0.00025177 15.7698L9.99975 15.8702C10.0154 14.3153 10.6411 12.8288 11.7421 11.7308L4.68084 4.64992ZM15.8137 0.000132084C11.6366 0.0304956 7.63862 1.70032 4.68084 4.64992L11.7421 11.7308C12.8432 10.6328 14.3314 10.0112 15.8863 9.99987L15.8137 0.000132084ZM43.63 0H15.85V10H43.63V0ZM58 0H43.63V10H58V0ZM66.9806 2.91774C64.3772 1.07456 61.2791 0.0581169 58.0898 0.000807285L57.9102 9.99919C59.0911 10.0204 60.2382 10.3968 61.2022 11.0793L66.9806 2.91774Z" fill="white"/>
<g clip-path="url(#clip0_744_14013)">
<path d="M68.73 47.4902H5V54.5702H68.73V47.4902Z" fill="#BF0A30"/>
<path d="M68.73 40.4102H5V47.4902H68.73V40.4102Z" fill="#F0F0F0"/>
<path d="M68.72 33.3301H43.63V40.4101H68.72V33.3301Z" fill="#BF0A30"/>
<path d="M5 54.5703V57.8503C5.00538 59.1485 5.24243 60.4354 5.7 61.6503H68C68.461 60.436 68.7014 59.1491 68.71 57.8503V54.5703H5Z" fill="#F0F0F0"/>
<path d="M68 61.6504H5.7C6.47635 63.7252 7.86646 65.5142 9.68514 66.779C11.5038 68.0439 13.6647 68.7246 15.88 68.7304H57.88C60.0857 68.7152 62.2346 68.03 64.042 66.7655C65.8493 65.5011 67.2297 63.7172 68 61.6504Z" fill="#BF0A30"/>
<path d="M43.63 12.0801V19.1601H68.73V15.8801C68.715 14.58 68.4678 13.2931 68 12.0801H43.63Z" fill="#F0F0F0"/>
<path d="M68.72 19.1602H43.63V26.2402H68.72V19.1602Z" fill="#BF0A30"/>
<path d="M43.63 12.08H68C67.2371 10.0321 65.875 8.26133 64.0914 6.9985C62.3077 5.73567 60.1851 5.03927 58 5L43.63 5V12.08Z" fill="#BF0A30"/>
<path d="M68.72 26.2402H43.63V33.3202H68.72V26.2402Z" fill="#F0F0F0"/>
<path d="M15.85 5C12.984 5.02083 10.2409 6.16654 8.21148 8.19034C6.18207 10.2141 5.02877 12.9541 5 15.82V40.41H43.63V5H15.85Z" fill="#002868"/>
<path d="M27.08 9.20977L26.62 7.75977L26.14 9.20977H24.62L25.85 10.1098L25.39 11.5598L26.62 10.6698L27.85 11.5598L27.39 10.1098L28.62 9.20977H27.08Z" fill="#F0F0F0"/>
<path d="M25.39 24.6208L26.62 23.7208L27.85 24.6208L27.39 23.1608L28.62 22.2708H27.08L26.62 20.8008L26.14 22.2708H24.62L25.85 23.1608L25.39 24.6208Z" fill="#F0F0F0"/>
<path d="M24.62 34.7303L25.85 35.6203L25.39 37.0703L26.62 36.1803L27.85 37.0703L27.39 35.6203L28.62 34.7303H27.08L26.64 33.3203H26.61L26.14 34.7303H24.62Z" fill="#F0F0F0"/>
<path d="M26.62 33.2793L26.61 33.3193H26.64L26.62 33.2793Z" fill="#F0F0F0"/>
<path d="M15.66 9.20977L15.18 7.75977L14.72 9.20977H13.18L14.41 10.1098L13.95 11.5598L15.18 10.6698L16.41 11.5598L15.95 10.1098L17.18 9.20977H15.66Z" fill="#F0F0F0"/>
<path d="M14.41 23.1608L13.95 24.6208L15.18 23.7208L16.41 24.6208L15.95 23.1608L17.18 22.2708H15.66L15.18 20.8008L14.72 22.2708H13.18L14.41 23.1608Z" fill="#F0F0F0"/>
<path d="M13.18 34.7303L14.41 35.6203L13.95 37.0703L15.18 36.1803L16.41 37.0703L15.95 35.6203L17.18 34.7303H15.66L15.2 33.3203H15.16L14.72 34.7303H13.18Z" fill="#F0F0F0"/>
<path d="M15.18 33.2793L15.16 33.3193H15.2L15.18 33.2793Z" fill="#F0F0F0"/>
<path d="M34.34 16.1497H32.8L32.34 14.6797L31.86 16.1497H30.34L31.57 17.0497L31.11 18.4997L32.34 17.5997L33.58 18.4997L33.11 17.0497L34.34 16.1497Z" fill="#F0F0F0"/>
<path d="M31 31.2492L32.23 30.3492L33.46 31.2492L32.98 29.7892L34.23 28.8992H32.69L32.23 27.4492L31.75 28.8992H30.23L31.46 29.7892L31 31.2492Z" fill="#F0F0F0"/>
<path d="M21.38 16.1497L20.9 14.6797L20.44 16.1497H18.9L20.13 17.0497L19.67 18.4997L20.9 17.5997L22.14 18.4997L21.67 17.0497L22.9 16.1497H21.38Z" fill="#F0F0F0"/>
<path d="M19.56 31.2492L20.79 30.3492L22.02 31.2492L21.56 29.7892L22.79 28.8992H21.25L20.79 27.4492L20.32 28.8992H18.79L20.02 29.7892L19.56 31.2492Z" fill="#F0F0F0"/>
<path d="M9.94 15.6805L9.46 14.2305L9 15.6805H7.46L8.71 16.6005L8.23 18.0505L9.46 17.1305L10.71 18.0505L10.23 16.6005L11.46 15.6805H9.94Z" fill="#F0F0F0"/>
<path d="M8.6 29.34L8.11 30.79L9.35 29.9L10.6 30.79L10.12 29.34L11.34 28.45H9.83L9.35 27L8.88 28.45H7.34L8.6 29.34Z" fill="#F0F0F0"/>
<path d="M40.07 9.20977H38.53L38.07 7.75977L37.58 9.20977H36.07L37.3 10.1098L36.81 11.5598L38.07 10.6698L39.3 11.5598L38.82 10.1098L40.07 9.20977Z" fill="#F0F0F0"/>
<path d="M36.81 24.6208L38.07 23.7208L39.3 24.6208L38.82 23.1608L40.07 22.2708H38.53L38.07 20.8008L37.58 22.2708H36.07L37.3 23.1608L36.81 24.6208Z" fill="#F0F0F0"/>
<path d="M36.07 34.7303L37.3 35.6203L36.81 37.0703L38.07 36.1803L39.3 37.0703L38.82 35.6203L40.07 34.7303H38.53L38.08 33.3203H38.05L37.58 34.7303H36.07Z" fill="#F0F0F0"/>
<path d="M38.07 33.2793L38.05 33.3193H38.08L38.07 33.2793Z" fill="#F0F0F0"/>
</g>
<defs>
<clipPath id="clip0_744_14013">
<rect width="63.73" height="63.73" fill="white" transform="translate(5 5)"/>
</clipPath>
</defs>
</svg>
