<svg width="123" height="92" viewBox="0 0 123 92" fill="none" xmlns="http://www.w3.org/2000/svg">
<g clip-path="url(#clip0_1126_2158)">
<path d="M118.134 73.9219V82.6526C118.134 87.7939 102.769 91.9615 83.8163 91.9615C64.8639 91.9615 49.4989 87.7985 49.4989 82.6526V73.9219H118.134Z" fill="#F9B23E"/>
<path d="M83.8164 89.7073C64.864 89.7073 49.499 85.5443 49.499 80.3984V82.6522C49.499 87.7935 64.864 91.9611 83.8164 91.9611C102.769 91.9611 118.134 87.7981 118.134 82.6522V80.3984C118.134 85.5397 102.769 89.7073 83.8164 89.7073Z" fill="#F4A025"/>
<path d="M83.8164 83.2272C102.769 83.2272 118.134 79.0594 118.134 73.9183C118.134 68.7771 102.769 64.6094 83.8164 64.6094C64.8634 64.6094 49.499 68.7771 49.499 73.9183C49.499 79.0594 64.8634 83.2272 83.8164 83.2272Z" fill="#FFDA57"/>
<path d="M83.8164 82.4458C65.3508 82.4458 50.2926 78.4887 49.5325 73.5312C49.5109 73.6612 49.4998 73.7927 49.499 73.9244C49.499 79.0657 64.864 83.2333 83.8164 83.2333C102.769 83.2333 118.134 79.0703 118.134 73.9244C118.133 73.7927 118.122 73.6613 118.101 73.5312C117.34 78.4887 102.283 82.4458 83.8164 82.4458Z" fill="#FFEB88"/>
<path d="M83.8162 67.7892C92.425 67.7892 108.595 68.9063 115.512 73.2011C115.819 73.3904 116.115 73.5985 116.398 73.8244C116.331 73.237 115.65 72.4899 114.505 71.7556C107.807 67.4608 92.1516 66.3438 83.8209 66.3438C75.4532 66.3438 59.8275 67.4654 53.1371 71.7556C51.9916 72.4899 51.311 73.237 51.2441 73.8244C51.5261 73.5988 51.8216 73.3906 52.1289 73.2011C59.0304 68.9167 75.174 67.7892 83.8162 67.7892Z" fill="#F9B23E"/>
<path d="M112.871 61V69.7307C112.871 74.872 97.5061 79.0396 78.5537 79.0396C59.6013 79.0396 44.2363 74.8766 44.2363 69.7307V61H112.871Z" fill="#F9B23E"/>
<path d="M78.5547 76.7855C59.6023 76.7855 44.2373 72.6225 44.2373 67.4766V69.7315C44.2373 74.8728 59.6023 79.0404 78.5547 79.0404C97.5071 79.0404 112.872 74.8774 112.872 69.7315V67.4777C112.871 72.6225 97.5059 76.7855 78.5547 76.7855Z" fill="#F4A025"/>
<path d="M78.5537 70.3053C97.5067 70.3053 112.871 66.1376 112.871 60.9964C112.871 55.8552 97.5067 51.6875 78.5537 51.6875C59.6007 51.6875 44.2363 55.8552 44.2363 60.9964C44.2363 66.1376 59.6007 70.3053 78.5537 70.3053Z" fill="#FFDA57"/>
<path d="M78.5547 69.5239C60.0879 69.5239 45.0309 65.5668 44.2708 60.6094C44.2492 60.7393 44.238 60.8708 44.2373 61.0025C44.2362 66.1485 59.6011 70.3114 78.5547 70.3114C97.5082 70.3114 112.872 66.1485 112.872 61.0025C112.871 60.8709 112.86 60.7394 112.84 60.6094C112.077 65.5703 97.0203 69.5239 78.5547 69.5239Z" fill="#FFEB88"/>
<path d="M78.555 54.8674C87.1638 54.8674 103.334 55.9844 110.25 60.2792C110.558 60.4682 110.854 60.6764 111.135 60.9025C111.069 60.3151 110.389 59.5681 109.243 58.8338C102.548 54.5389 86.8893 53.4219 78.555 53.4219C70.1862 53.4219 54.5617 54.5436 47.8713 58.8338C46.727 59.5681 46.0464 60.3151 45.9795 60.9025C46.2615 60.6769 46.557 60.4688 46.8642 60.2792C53.7681 55.989 69.9105 54.8674 78.555 54.8674Z" fill="#F9B23E"/>
<path d="M116.346 48.0781V56.8088C116.346 61.9501 100.981 66.1177 82.0283 66.1177C63.0759 66.1177 47.7109 61.9547 47.7109 56.8088V48.0781H116.346Z" fill="#F9B23E"/>
<path d="M82.0283 63.8636C63.0759 63.8636 47.7109 59.7006 47.7109 54.5547V56.8085C47.7109 61.9498 63.0759 66.1174 82.0283 66.1174C100.981 66.1174 116.346 61.9544 116.346 56.8085V54.5547C116.346 59.696 100.981 63.8636 82.0283 63.8636Z" fill="#F4A025"/>
<path d="M82.0283 57.3834C100.981 57.3834 116.346 53.2157 116.346 48.0745C116.346 42.9334 100.981 38.7656 82.0283 38.7656C63.0753 38.7656 47.7109 42.9334 47.7109 48.0745C47.7109 53.2157 63.0753 57.3834 82.0283 57.3834Z" fill="#FFDA57"/>
<path d="M82.0283 56.5943C63.5615 56.5943 48.5046 52.6371 47.7432 47.6797C47.7227 47.8097 47.7119 47.9412 47.7109 48.0729C47.7109 53.2141 63.0747 57.3818 82.0283 57.3818C100.982 57.3818 116.346 53.2188 116.346 48.0729C116.345 47.9411 116.334 47.8096 116.312 47.6797C115.552 52.6371 100.494 56.5943 82.0283 56.5943Z" fill="#FFEB88"/>
<path d="M82.0283 41.9455C90.6371 41.9455 106.806 43.0625 113.724 47.3574C114.031 47.5469 114.326 47.755 114.608 47.9807C114.542 47.3932 113.861 46.6462 112.716 45.9119C106.025 41.6171 90.3625 40.5 82.0318 40.5C73.663 40.5 58.0385 41.6217 51.348 45.9119C50.2026 46.6462 49.522 47.3932 49.4551 47.9807C49.7373 47.7548 50.0332 47.5466 50.341 47.3574C57.2414 43.0672 73.385 41.9455 82.0283 41.9455Z" fill="#F9B23E"/>
<path d="M108.465 35.1562V43.887C108.465 49.0282 93.0999 53.1958 74.1474 53.1958C55.195 53.1958 39.8301 49.0329 39.8301 43.887V35.1562H108.465Z" fill="#F9B23E"/>
<path d="M74.1474 50.9429C55.195 50.9429 39.8301 46.7799 39.8301 41.634V43.8878C39.8301 49.029 55.195 53.1967 74.1474 53.1967C93.0999 53.1967 108.465 49.0337 108.465 43.8878V41.6328C108.465 46.7753 93.0999 50.9429 74.1474 50.9429Z" fill="#F4A025"/>
<path d="M74.1474 44.4615C93.1004 44.4615 108.465 40.2938 108.465 35.1526C108.465 30.0115 93.1004 25.8438 74.1474 25.8438C55.1945 25.8438 39.8301 30.0115 39.8301 35.1526C39.8301 40.2938 55.1945 44.4615 74.1474 44.4615Z" fill="#FFDA57"/>
<path d="M74.1474 43.6724C55.6807 43.6724 40.6237 39.7152 39.8624 34.7578C39.8418 34.8879 39.831 35.0193 39.8301 35.151C39.8301 40.2923 55.1939 44.4599 74.1474 44.4599C93.101 44.4599 108.465 40.2969 108.465 35.151C108.464 35.0193 108.453 34.8879 108.433 34.7578C107.671 39.7152 92.6142 43.6724 74.1474 43.6724Z" fill="#FFEB88"/>
<path d="M74.1471 29.0236C82.7559 29.0236 98.9248 30.1407 105.843 34.4355C106.15 34.625 106.445 34.8332 106.727 35.0588C106.662 34.4713 105.981 33.7243 104.835 32.99C98.1381 28.6952 82.4825 27.5781 74.1517 27.5781C65.7829 27.5781 50.1584 28.6998 43.468 32.99C42.3225 33.7243 41.6419 34.4713 41.5762 35.0588C41.8541 34.833 42.1457 34.6249 42.4494 34.4355C49.3602 30.1453 65.5037 29.0236 74.1471 29.0236Z" fill="#F9B23E"/>
<path d="M122.866 22.2344V30.9651C122.866 36.1064 107.501 40.274 88.5488 40.274C69.5964 40.274 54.2314 36.111 54.2314 30.9651V22.2344H122.866Z" fill="#F9B23E"/>
<path d="M88.5488 38.0198C69.5964 38.0198 54.2314 33.8568 54.2314 28.7109V30.9647C54.2314 36.106 69.5964 40.2736 88.5488 40.2736C107.501 40.2736 122.866 36.1106 122.866 30.9647V28.7109C122.866 33.8522 107.501 38.0198 88.5488 38.0198Z" fill="#F4A025"/>
<path d="M88.5488 31.5397C107.502 31.5397 122.866 27.3719 122.866 22.2308C122.866 17.0896 107.502 12.9219 88.5488 12.9219C69.5959 12.9219 54.2314 17.0896 54.2314 22.2308C54.2314 27.3719 69.5959 31.5397 88.5488 31.5397Z" fill="#FFDA57"/>
<path d="M88.5488 30.7505C70.0832 30.7505 55.0251 26.7934 54.2649 21.8359C54.2434 21.9659 54.2322 22.0974 54.2314 22.2291C54.2314 27.3704 69.5964 31.538 88.5488 31.538C107.501 31.538 122.866 27.375 122.866 22.2291C122.865 22.0974 122.854 21.966 122.834 21.8359C122.073 26.7934 107.016 30.7505 88.5488 30.7505Z" fill="#FFEB88"/>
<path d="M88.5496 16.1017C97.1584 16.1017 113.328 17.2188 120.245 21.5136C120.553 21.7029 120.849 21.911 121.131 22.1369C121.064 21.5495 120.383 20.8024 119.238 20.0681C112.541 15.7733 96.885 14.6562 88.5542 14.6562C80.1866 14.6562 64.5609 15.7779 57.8705 20.0681C56.725 20.8024 56.0444 21.5495 55.9775 22.1369C56.2595 21.9113 56.555 21.7031 56.8623 21.5136C63.7638 17.2292 79.9063 16.1017 88.5496 16.1017Z" fill="#F9B23E"/>
<path d="M110.202 9.3125V18.0432C110.202 23.1845 94.8372 27.3521 75.8848 27.3521C56.9323 27.3521 41.5674 23.1891 41.5674 18.0432V9.3125H110.202Z" fill="#F9B23E"/>
<path d="M75.8848 25.0901C56.9323 25.0901 41.5674 20.9272 41.5674 15.7812V18.0362C41.5674 23.1775 56.9323 27.3451 75.8848 27.3451C94.8372 27.3451 110.202 23.1821 110.202 18.0362V15.7824C110.202 20.9272 94.8372 25.0901 75.8848 25.0901Z" fill="#F4A025"/>
<path d="M75.8846 18.6178C94.8376 18.6178 110.202 14.4501 110.202 9.3089C110.202 4.16773 94.8376 0 75.8846 0C56.9317 0 41.5673 4.16773 41.5673 9.3089C41.5673 14.4501 56.9317 18.6178 75.8846 18.6178Z" fill="#FFDA57"/>
<path d="M75.8848 17.8286C57.418 17.8286 42.361 13.8715 41.5997 8.91406C41.5791 9.04412 41.5683 9.17555 41.5674 9.30723C41.5674 14.4485 56.9312 18.6161 75.8848 18.6161C94.8383 18.6161 110.202 14.4531 110.202 9.30723C110.201 9.17549 110.19 9.04402 110.169 8.91406C109.409 13.875 94.3504 17.8286 75.8848 17.8286Z" fill="#FFEB88"/>
<path d="M75.885 3.17986C84.4938 3.17986 100.663 4.29692 107.58 8.59174C107.888 8.78127 108.183 8.98942 108.465 9.21503C108.398 8.62758 107.718 7.88056 106.572 7.14625C99.8818 2.85144 84.2192 1.73438 75.8885 1.73438C67.5197 1.73438 51.8952 2.85607 45.2047 7.14625C44.0512 7.88056 43.3729 8.62758 43.3037 9.21503C43.5859 8.98917 43.8818 8.78101 44.1896 8.59174C51.1015 4.30155 67.2417 3.17986 75.885 3.17986Z" fill="#F9B23E"/>
<g opacity="0.5">
<path d="M79.1318 61.003C79.1318 45.0183 68.2552 31.5811 53.5236 27.7188C45.5643 29.3435 40.3042 31.8852 39.8624 34.7646C39.8531 34.8282 39.8439 34.8918 39.8393 34.9554C39.8347 35.019 39.8301 35.0895 39.8301 35.1578V43.8885C39.8301 46.1446 42.7889 48.2122 47.711 49.8242V56.8111C47.711 56.8458 47.711 56.8805 47.711 56.9151C45.6842 58.038 44.4672 59.2881 44.2654 60.6156C44.2554 60.6788 44.2473 60.7424 44.2412 60.8064C44.2354 60.8735 44.2319 60.9405 44.2319 61.0087V69.7337C44.2319 71.555 46.1618 73.2537 49.4943 74.6888V82.6563C49.4943 85.6918 54.8524 88.3885 63.1417 90.0872C72.7517 83.9896 79.1318 73.2433 79.1318 61.003Z" fill="#DB8616"/>
</g>
<path d="M74.1474 57.5587C74.1474 76.5581 58.7825 91.9611 39.8301 91.9611H34.3174V23.1562H39.8301C58.7825 23.1562 74.1474 38.5581 74.1474 57.5587Z" fill="#F9B23E"/>
<path d="M39.8304 23.1562H37.8359C56.7884 23.1562 72.1533 38.5581 72.1533 57.5587C72.1533 76.5592 56.7861 91.9611 37.8359 91.9611H39.8327C58.7851 91.9611 74.1501 76.5581 74.1501 57.5587C74.1501 38.5593 58.7828 23.1562 39.8304 23.1562Z" fill="#F4A025"/>
<path d="M34.3174 91.9611C53.2703 91.9611 68.6347 76.5586 68.6347 57.5587C68.6347 38.5587 53.2703 23.1562 34.3174 23.1562C15.3644 23.1562 0 38.5587 0 57.5587C0 76.5586 15.3644 91.9611 34.3174 91.9611Z" fill="#FFDA57"/>
<path d="M33.9071 58.0852L40.9022 57.9721C41.2163 57.967 41.5064 57.9388 41.7725 57.8874C42.0386 57.8359 42.288 57.722 42.5206 57.5454C42.7532 57.3689 42.9609 57.1143 43.1438 56.7815C43.3423 56.4484 43.523 55.99 43.6859 55.4063L44.9107 55.3865C44.9348 56.8153 44.9356 58.2524 44.9129 59.6977C44.89 61.1273 44.8422 62.4788 44.7695 63.7521L43.2857 63.7761C43.0877 63.2139 42.8914 62.7538 42.6969 62.3957C42.5024 62.0376 42.2856 61.7584 42.0466 61.5581C41.8233 61.3575 41.562 61.2283 41.2626 61.1703C40.963 61.0966 40.6011 61.0632 40.1772 61.07L33.9593 61.1706L34.1239 70.8977C34.135 71.5572 34.176 72.1219 34.2467 72.5919C34.3173 73.0463 34.4105 73.4531 34.5265 73.8125C34.8738 73.9168 35.2517 73.9735 35.6603 73.9826C36.0688 73.9917 36.5007 73.9926 36.9561 73.9852L39.0758 73.9509L39.1316 77.2483C37.7485 77.1921 36.4518 77.1345 35.2414 77.0756C34.0313 77.0323 32.8374 77.0202 31.6598 77.0393C30.4665 77.0586 29.3051 77.1087 28.1756 77.1898C27.0461 77.2709 25.8933 77.3602 24.717 77.4578C24.6385 77.4591 24.5521 77.4605 24.4579 77.462C24.3796 77.479 24.3013 77.4881 24.2228 77.4893L24.167 74.192L26.2632 74.1581C26.7185 74.1508 27.1502 74.1359 27.5582 74.1136C27.9661 74.0913 28.3419 74.0224 28.6855 73.9069C28.9107 73.2908 29.0141 72.441 28.9958 71.3576L28.6232 49.3361C28.6038 48.1899 28.4635 47.3205 28.2022 46.7279C27.886 46.6074 27.5472 46.5422 27.1858 46.5323C26.8244 46.5224 26.4396 46.5208 26.0313 46.5274L23.2286 46.5727L23.1855 44.0291C25.0817 43.7785 27.3948 43.5684 30.1248 43.3986C32.8705 43.2285 36.0019 43.1151 39.5191 43.0582L49.8823 42.8906C50.0904 44.0495 50.2563 45.0363 50.38 45.851C50.5034 46.65 50.6012 47.3238 50.6733 47.8723C50.7609 48.4049 50.815 48.8202 50.8358 49.1183C50.8722 49.4161 50.8995 49.6355 50.9176 49.7766L47.4813 49.9735C47.476 49.6595 47.421 49.1971 47.3165 48.5862C47.2273 47.9594 47.0512 47.2948 46.788 46.5923C46.2656 46.3494 45.5404 46.1884 44.6124 46.1092C43.7001 46.0297 42.4824 46.0023 40.9593 46.0269C40.7709 46.0299 40.5198 46.0418 40.206 46.0626C39.9077 46.0674 39.4839 46.0821 38.9346 46.1067C38.4007 46.1154 37.7101 46.1422 36.8628 46.1874C36.0151 46.2168 34.9635 46.2573 33.7079 46.3091L33.9071 58.0852Z" fill="#F4A025"/>
<path d="M33.1532 56.5774L40.1483 56.4643C40.4624 56.4592 40.7525 56.431 41.0186 56.3795C41.2847 56.3281 41.5341 56.2141 41.7667 56.0376C41.9993 55.8611 42.207 55.6064 42.3899 55.2737C42.5884 54.9406 42.7691 54.4822 42.932 53.8985L44.1568 53.8787C44.1809 55.3075 44.1817 56.7446 44.159 58.1899C44.1361 59.6195 44.0883 60.971 44.0156 62.2443L42.5317 62.2683C42.3338 61.7061 42.1375 61.246 41.943 60.8879C41.7485 60.5298 41.5317 60.2506 41.2927 60.0503C41.0694 59.8497 40.8081 59.7204 40.5087 59.6625C40.209 59.5888 39.8472 59.5554 39.4233 59.5622L33.2054 59.6628L33.3699 69.3899C33.3811 70.0493 33.4221 70.6141 33.4928 71.0841C33.5634 71.5384 33.6566 71.9453 33.7726 72.3047C34.1199 72.409 34.4978 72.4657 34.9064 72.4748C35.3149 72.4839 35.7468 72.4848 36.2021 72.4774L38.3219 72.4431L38.3777 75.7404C36.9946 75.6843 35.6979 75.6267 34.4875 75.5678C33.2774 75.5245 32.0835 75.5124 30.9059 75.5314C29.7126 75.5507 28.5512 75.6009 27.4217 75.682C26.2922 75.7631 25.1394 75.8524 23.9631 75.95C23.8845 75.9512 23.7982 75.9526 23.704 75.9542C23.6257 75.9711 23.5474 75.9803 23.4688 75.9815L23.4131 72.6842L25.5093 72.6503C25.9646 72.6429 26.3963 72.6281 26.8042 72.6058C27.2122 72.5835 27.588 72.5146 27.9316 72.3991C28.1568 71.7829 28.2602 70.9331 28.2418 69.8497L27.8693 47.8283C27.8499 46.6821 27.7096 45.8127 27.4483 45.2201C27.1321 45.0996 26.7933 45.0344 26.4319 45.0245C26.0705 45.0146 25.6857 45.013 25.2774 45.0196L22.4747 45.0649L22.4316 42.5213C24.3278 42.2707 26.6409 42.0606 29.3709 41.8908C32.1166 41.7207 35.248 41.6073 38.7652 41.5504L49.1284 41.3828C49.3364 42.5417 49.5023 43.5285 49.6261 44.3432C49.7495 45.1422 49.8473 45.8159 49.9194 46.3645C50.007 46.8971 50.0611 47.3124 50.0818 47.6105C50.1183 47.9083 50.1456 48.1277 50.1637 48.2688L46.7274 48.4657C46.7221 48.1517 46.6671 47.6892 46.5625 47.0784C46.4734 46.4516 46.2973 45.787 46.0341 45.0845C45.5117 44.8416 44.7865 44.6806 43.8585 44.6013C42.9462 44.5219 41.7285 44.4944 40.2054 44.5191C40.017 44.5221 39.7659 44.534 39.4521 44.5548C39.1538 44.5596 38.73 44.5743 38.1807 44.5989C37.6468 44.6076 36.9562 44.6344 36.1089 44.6795C35.2612 44.709 34.2096 44.7495 32.954 44.8012L33.1532 56.5774Z" fill="#F9B23E"/>
<path d="M33.1532 56.5774L40.1483 56.4643C40.4624 56.4592 40.7525 56.431 41.0186 56.3795C41.2847 56.3281 41.5341 56.2141 41.7667 56.0376C41.9993 55.8611 42.207 55.6064 42.3899 55.2737C42.5884 54.9406 42.7691 54.4822 42.932 53.8985L44.1568 53.8787C44.1809 55.3075 44.1817 56.7446 44.159 58.1899C44.1361 59.6195 44.0883 60.971 44.0156 62.2443L42.5317 62.2683C42.3338 61.7061 42.1375 61.246 41.943 60.8879C41.7485 60.5298 41.5317 60.2506 41.2927 60.0503C41.0694 59.8497 40.8081 59.7204 40.5087 59.6625C40.209 59.5888 39.8472 59.5554 39.4233 59.5622L33.2054 59.6628L33.3699 69.3899C33.3811 70.0493 33.4221 70.6141 33.4928 71.0841C33.5634 71.5384 33.6566 71.9453 33.7726 72.3047C34.1199 72.409 34.4978 72.4657 34.9064 72.4748C35.3149 72.4839 35.7468 72.4848 36.2021 72.4774L38.3219 72.4431L38.3777 75.7404C36.9946 75.6843 35.6979 75.6267 34.4875 75.5678C33.2774 75.5245 32.0835 75.5124 30.9059 75.5314C29.7126 75.5507 28.5512 75.6009 27.4217 75.682C26.2922 75.7631 25.1394 75.8524 23.9631 75.95C23.8845 75.9512 23.7982 75.9526 23.704 75.9542C23.6257 75.9711 23.5474 75.9803 23.4688 75.9815L23.4131 72.6842L25.5093 72.6503C25.9646 72.6429 26.3963 72.6281 26.8042 72.6058C27.2122 72.5835 27.588 72.5146 27.9316 72.3991C28.1568 71.7829 28.2602 70.9331 28.2418 69.8497L27.8693 47.8283C27.8499 46.6821 27.7096 45.8127 27.4483 45.2201C27.1321 45.0996 26.7933 45.0344 26.4319 45.0245C26.0705 45.0146 25.6857 45.013 25.2774 45.0196L22.4747 45.0649L22.4316 42.5213C24.3278 42.2707 26.6409 42.0606 29.3709 41.8908C32.1166 41.7207 35.248 41.6073 38.7652 41.5504L49.1284 41.3828C49.3364 42.5417 49.5023 43.5285 49.6261 44.3432C49.7495 45.1422 49.8473 45.8159 49.9194 46.3645C50.007 46.8971 50.0611 47.3124 50.0818 47.6105C50.1183 47.9083 50.1456 48.1277 50.1637 48.2688L46.7274 48.4657C46.7221 48.1517 46.6671 47.6892 46.5625 47.0784C46.4734 46.4516 46.2973 45.787 46.0341 45.0845C45.5117 44.8416 44.7865 44.6806 43.8585 44.6013C42.9462 44.5219 41.7285 44.4944 40.2054 44.5191C40.017 44.5221 39.7659 44.534 39.4521 44.5548C39.1538 44.5596 38.73 44.5743 38.1807 44.5989C37.6468 44.6076 36.9562 44.6344 36.1089 44.6795C35.2612 44.709 34.2096 44.7495 32.954 44.8012L33.1532 56.5774Z" fill="#F9B23E"/>
<path d="M5.1843 57.5583C5.1843 40.7514 18.5248 27.0922 35.176 26.6377C34.8899 26.6292 34.6027 26.625 34.3143 26.625C17.264 26.625 3.46094 40.46 3.46094 57.5583C3.46094 74.6566 17.2617 88.4916 34.3177 88.4916C34.6061 88.4916 34.8933 88.4873 35.1794 88.4789C18.556 88.0244 5.1843 74.3952 5.1843 57.5583Z" fill="#F9B23E"/>
<path d="M63.4506 57.5583C63.4506 40.7514 50.1101 27.0922 33.459 26.6377C33.7451 26.6292 34.0323 26.625 34.3207 26.625C51.3744 26.625 65.1775 40.46 65.1775 57.5583C65.1775 74.6566 51.3767 88.4916 34.3207 88.4916C34.0323 88.4916 33.7451 88.4873 33.459 88.4789C50.079 88.0244 63.4506 74.3952 63.4506 57.5583Z" fill="#FFEB88"/>
</g>
<defs>
<clipPath id="clip0_1126_2158">
<rect width="122.867" height="91.9615" fill="white"/>
</clipPath>
</defs>
</svg>
