<svg width="146" height="138" viewBox="0 0 146 138" fill="none" xmlns="http://www.w3.org/2000/svg">
<g clip-path="url(#clip0_1126_2136)">
<path fill-rule="evenodd" clip-rule="evenodd" d="M0.856247 71.6914C76.7238 65.8963 86.2394 52.473 131.962 44.1641L145.779 110.153C100.896 113.686 80.2752 132.934 14.6736 137.681L0.856247 71.6914Z" fill="#88C576"/>
<path fill-rule="evenodd" clip-rule="evenodd" d="M14.6097 91.1773L19.9274 116.572C22.5827 116.515 25.1842 117.325 27.3389 118.88C29.4936 120.435 31.0846 122.649 31.8713 125.19C37.1666 124.472 42.3789 123.627 47.5083 122.653C53.3641 121.54 59.2255 120.23 65.0925 118.725C73.4914 116.566 81.7108 114.016 89.9353 111.467C95.1549 109.848 100.374 108.228 105.182 106.834C108.668 105.823 112.204 104.868 115.829 103.972C118.711 103.26 121.604 102.605 124.508 102.007C124.538 99.6089 125.269 97.2727 126.612 95.2872C127.954 93.3018 129.849 91.7542 132.061 90.8363L126.903 66.2036C124.509 66.2522 122.153 65.5966 120.128 64.3181C118.102 63.0395 116.495 61.194 115.507 59.0103C112.845 59.7232 110.129 60.4853 107.361 61.2967C103.797 62.3378 100.425 63.3667 97.1445 64.3944C90.7588 66.3969 84.4899 68.3282 78.3179 70.0726C72.0695 71.8382 65.7358 73.4689 59.1603 74.8896C52.6894 76.2852 46.2043 77.4695 39.7199 78.4862C33.897 79.3952 28.0328 80.1844 22.1274 80.8536C21.9447 83.1002 21.1465 85.2527 19.8206 87.0742C18.4948 88.8956 16.6928 90.3155 14.6129 91.1773H14.6097ZM15.9489 119.495L9.33301 87.9005L11.5317 87.4381C13.3996 87.0466 15.057 85.9774 16.1853 84.4361C17.3135 82.8948 17.8328 80.9902 17.6434 79.0887L17.4157 76.8709L19.6202 76.6262C26.0828 75.9088 32.5569 75.0636 39.0279 74.052C45.4988 73.0405 51.9069 71.8684 58.2278 70.5074C64.5845 69.1375 70.8477 67.5215 77.1101 65.7508C83.4509 63.9595 89.6101 62.0636 95.82 60.1162C99.4342 58.9833 102.884 57.9281 106.12 56.9827C109.459 56.0077 112.86 55.0604 116.378 54.1439L118.581 53.5703L119.118 55.7958C119.592 57.7515 120.808 59.4454 122.508 60.5184C124.208 61.5913 126.259 61.959 128.225 61.5434L130.424 61.0816L137.341 94.1157L135.142 94.5775C133.187 94.9856 131.466 96.1356 130.339 97.7864C129.212 99.4373 128.767 101.461 129.098 103.433L129.463 105.596L127.325 106.014C123.851 106.692 120.373 107.463 116.89 108.326C113.504 109.162 110.018 110.104 106.429 111.152C101.042 112.715 96.1426 114.235 91.2476 115.753C82.9403 118.329 74.6357 120.904 66.2021 123.075C60.2774 124.598 54.3301 125.925 48.36 127.057C42.322 128.207 36.3358 129.162 30.4012 129.922L28.1474 130.213L27.8909 127.953C27.88 127.86 27.862 127.736 27.8376 127.581L27.7658 127.226C27.3449 125.216 26.1443 123.457 24.428 122.334C22.7118 121.211 20.6204 120.817 18.6139 121.238L16.4145 121.7L15.9489 119.495Z" fill="#52973B"/>
<path fill-rule="evenodd" clip-rule="evenodd" d="M31.5386 96.2503C32.4627 96.0562 33.4235 96.1408 34.2995 96.4934C35.1756 96.8461 35.9276 97.4509 36.4603 98.2316C36.9931 99.0122 37.2827 99.9334 37.2925 100.879C37.3024 101.824 37.0321 102.751 36.5157 103.543C35.9994 104.335 35.2602 104.955 34.3917 105.326C33.5231 105.697 32.5643 105.802 31.6364 105.627C30.7084 105.452 29.8531 105.006 29.1786 104.344C28.504 103.682 28.0406 102.835 27.8468 101.91C27.5869 100.669 27.8299 99.3759 28.5222 98.3146C29.2146 97.2532 30.2996 96.5107 31.5386 96.2503Z" fill="#52973B"/>
<path fill-rule="evenodd" clip-rule="evenodd" d="M113.718 79.0002C114.642 78.8062 115.603 78.8909 116.479 79.2436C117.355 79.5964 118.107 80.2013 118.64 80.982C119.172 81.7626 119.462 82.6839 119.471 83.6293C119.481 84.5747 119.211 85.5018 118.694 86.2934C118.178 87.0849 117.439 87.7053 116.57 88.0761C115.702 88.4469 114.743 88.5515 113.815 88.3767C112.887 88.2018 112.032 87.7554 111.357 87.0938C110.683 86.4322 110.219 85.5852 110.026 84.6598C109.897 84.0454 109.89 83.4116 110.006 82.7946C110.122 82.1776 110.358 81.5895 110.701 81.0639C111.044 80.5384 111.487 80.0856 112.004 79.7315C112.522 79.3774 113.104 79.1289 113.718 79.0002Z" fill="#52973B"/>
<path fill-rule="evenodd" clip-rule="evenodd" d="M68.8038 69.3676C82.1619 66.5629 95.2609 75.1332 98.0625 88.507C100.864 101.881 92.3042 115 78.9492 117.805C65.5943 120.61 52.4921 112.04 49.6911 98.6657C46.8902 85.2912 55.4489 72.1724 68.8044 69.3676H68.8038Z" fill="#52973B"/>
<path d="M71.9848 93.7074L76.3186 92.128C76.5132 92.0571 76.6878 91.9769 76.8426 91.8874C76.9974 91.7979 77.1283 91.673 77.2353 91.5127C77.3424 91.3524 77.4171 91.1487 77.4596 90.9016C77.5119 90.651 77.5261 90.326 77.5023 89.9266L78.2611 89.6501C78.5828 90.5364 78.8916 91.4329 79.1876 92.3395C79.4801 93.2364 79.7403 94.09 79.9682 94.9001L79.0489 95.2351C78.8049 94.9271 78.5839 94.6823 78.3859 94.5008C78.1879 94.3194 77.9929 94.1919 77.801 94.1185C77.6189 94.0415 77.4283 94.0172 77.2294 94.0456C77.0269 94.0643 76.7943 94.1215 76.5316 94.2172L72.6794 95.6212L74.8691 101.655C75.0176 102.064 75.1643 102.407 75.3092 102.685C75.4506 102.953 75.596 103.187 75.7454 103.386C75.9842 103.377 76.2318 103.33 76.4883 103.248C76.7447 103.166 77.014 103.073 77.2961 102.97L78.6094 102.492L79.3517 104.537C78.4779 104.8 77.6577 105.044 76.891 105.268C76.1278 105.502 75.3814 105.752 74.6518 106.018C73.9125 106.287 73.1997 106.569 72.5134 106.864C71.8272 107.158 71.1281 107.462 70.4161 107.777C70.3675 107.794 70.314 107.814 70.2556 107.835C70.2105 107.863 70.1637 107.885 70.115 107.903L69.3727 105.858L70.6714 105.384C70.9535 105.282 71.2193 105.179 71.4687 105.077C71.7181 104.975 71.9374 104.851 72.1267 104.705C72.1347 104.272 72.0168 103.72 71.7729 103.048L66.8156 89.3884C66.5575 88.6774 66.2835 88.1652 65.9936 87.8519C65.7707 87.8448 65.5457 87.8772 65.3184 87.949C65.0911 88.0209 64.851 88.1028 64.5981 88.195L62.8617 88.8279L62.2891 87.2501C63.4167 86.6848 64.8126 86.0547 66.477 85.3599C68.1511 84.6616 70.0777 83.9153 72.2567 83.1212L78.6772 80.7812C79.0555 81.4594 79.3706 82.0393 79.6225 82.5209C79.8708 82.9928 80.0763 83.3921 80.2389 83.7188C80.4078 84.0322 80.5306 84.2797 80.6075 84.4612C80.6941 84.6391 80.7582 84.7702 80.7997 84.8543L78.7011 85.7183C78.6304 85.5236 78.497 85.2469 78.3008 84.8883C78.1107 84.5165 77.8584 84.1398 77.5437 83.7582C77.1661 83.7194 76.6797 83.7754 76.0846 83.9261C75.4991 84.0733 74.7346 84.3188 73.791 84.6627C73.6743 84.7053 73.5204 84.7669 73.3294 84.8475C73.1445 84.9149 72.8837 85.0155 72.5467 85.1493C72.216 85.2698 71.7915 85.4356 71.2732 85.6465C70.7515 85.8477 70.105 86.0998 69.3338 86.4029L71.9848 93.7074Z" fill="white"/>
<path fill-rule="evenodd" clip-rule="evenodd" d="M14.0649 0C85.7719 25.4785 99.9016 17.07 145.067 28.0213L131.001 93.9578C88.5375 78.9758 61.8976 88.2102 0 65.9372L14.0649 0Z" fill="#88C576"/>
<path fill-rule="evenodd" clip-rule="evenodd" d="M18.7555 23.3966L13.3409 48.7705C15.7917 49.7957 17.8426 51.5918 19.1839 53.8874C20.5252 56.1829 21.084 58.8533 20.7758 61.495C25.9069 62.9876 31.0145 64.3293 36.0985 65.52C41.9031 66.876 47.7919 68.0565 53.7649 69.0615C62.3158 70.495 70.8629 71.5021 79.4145 72.5033C84.8407 73.1405 90.2687 73.7776 95.2285 74.4532C98.8203 74.9426 102.444 75.5033 106.122 76.1559C109.045 76.6753 111.955 77.2501 114.852 77.8804C115.85 75.7011 117.463 73.8625 119.493 72.5922C121.523 71.3218 123.881 70.6755 126.274 70.7333L131.525 46.1205C129.316 45.1939 127.428 43.6392 126.093 41.6489C124.759 39.6586 124.036 37.32 124.015 34.9227C121.293 34.4945 118.503 34.0899 115.644 33.7088C111.964 33.2149 108.466 32.7865 105.051 32.3966C98.4028 31.6362 91.8895 30.8584 85.5417 29.949C79.1144 29.0286 72.6639 27.9503 66.0788 26.579C59.6008 25.2303 53.187 23.6812 46.8514 21.9785C41.1563 20.4478 35.4734 18.7903 29.8027 17.0061C28.7263 18.9856 27.1256 20.6295 25.1765 21.757C23.2275 22.8845 21.0057 23.4518 18.7555 23.3966ZM8.52217 49.8283L15.2567 18.2592L17.4535 18.7287C19.32 19.1289 21.2685 18.8238 22.9238 17.8719C24.5792 16.92 25.8245 15.3887 26.42 13.5726L27.1089 11.4531L29.2255 12.1243C35.4245 14.0896 41.685 15.9445 48.011 17.6439C54.337 19.3433 60.6688 20.8745 66.996 22.193C73.3618 23.5187 79.7423 24.5822 86.1844 25.5052C92.706 26.439 99.1038 27.204 105.569 27.9458C109.331 28.3761 112.913 28.8103 116.253 29.2586C119.7 29.7216 123.194 30.2361 126.78 30.825L129.025 31.195L128.615 33.4467C128.257 35.4266 128.683 37.4685 129.803 39.1392C130.923 40.8098 132.648 41.9778 134.614 42.3954L136.811 42.8655L129.77 75.8726L127.574 75.4032C125.621 74.9836 123.583 75.3369 121.885 76.3891C120.187 77.4412 118.962 79.1106 118.466 81.0473L117.925 83.1739L115.8 82.6877C112.349 81.899 108.857 81.1925 105.323 80.5682C101.89 79.9585 98.3215 79.404 94.6186 78.9048C89.0597 78.1482 83.9664 77.5496 78.8764 76.9523C70.2395 75.9375 61.6077 74.924 53.0177 73.4841C46.9848 72.4727 41.0101 71.2738 35.0935 69.8874C29.1072 68.4894 23.2467 66.9334 17.5118 65.2194L15.3311 64.5708L16.011 62.4012C16.0392 62.3119 16.0751 62.1905 16.1136 62.039L16.1912 61.6851C16.6188 59.6777 16.2327 57.5826 15.1178 55.8603C14.003 54.138 12.2507 52.9295 10.2462 52.5007L8.04883 52.0312L8.52217 49.8283Z" fill="#52973B"/>
<path fill-rule="evenodd" clip-rule="evenodd" d="M32.1813 34.9023C33.1046 35.0998 33.9487 35.567 34.6069 36.2449C35.265 36.9228 35.7076 37.7809 35.8787 38.7106C36.0499 39.6404 35.9419 40.6001 35.5683 41.4684C35.1948 42.3367 34.5725 43.0746 33.7802 43.5887C32.9879 44.1029 32.0611 44.3703 31.1171 44.357C30.173 44.3438 29.2541 44.0505 28.4765 43.5143C27.6989 42.9781 27.0975 42.223 26.7485 41.3446C26.3994 40.4662 26.3182 39.5038 26.5153 38.5792C26.7798 37.3393 27.5253 36.2553 28.5879 35.5658C29.6505 34.8762 30.9431 34.6375 32.1813 34.9023Z" fill="#52973B"/>
<path fill-rule="evenodd" clip-rule="evenodd" d="M114.295 52.4649C115.218 52.6624 116.062 53.1297 116.72 53.8076C117.378 54.4856 117.821 55.3437 117.992 56.2735C118.163 57.2033 118.055 58.163 117.681 59.0313C117.308 59.8996 116.686 60.6374 115.893 61.1515C115.101 61.6657 114.174 61.9329 113.23 61.9196C112.286 61.9063 111.367 61.6129 110.589 61.0766C109.812 60.5403 109.211 59.7852 108.862 58.9067C108.513 58.0282 108.432 57.0658 108.629 56.1412C108.76 55.5273 109.01 54.9452 109.366 54.4281C109.721 53.9111 110.175 53.4693 110.701 53.1279C111.227 52.7865 111.816 52.5523 112.432 52.4385C113.049 52.3248 113.682 52.3337 114.295 52.4649Z" fill="#52973B"/>
<path fill-rule="evenodd" clip-rule="evenodd" d="M77.1283 25.4417C90.4755 28.2965 98.9848 41.4455 96.1338 54.8117C93.2829 68.1778 80.1511 76.6974 66.8032 73.8425C53.4554 70.9877 44.9474 57.838 47.7983 44.4725C50.6493 31.107 63.781 22.5868 77.1283 25.4417Z" fill="#52973B"/>
<path d="M71.3783 48.9239L76.9942 50.2385C77.2463 50.2975 77.484 50.3332 77.7071 50.3455C77.9302 50.3578 78.1525 50.3168 78.3739 50.2224C78.5954 50.1279 78.8126 49.966 79.0257 49.7367C79.2513 49.5103 79.4879 49.18 79.7354 48.746L80.7186 48.9762C80.451 50.1235 80.1629 51.2727 79.8545 52.4238C79.549 53.5623 79.2393 54.6333 78.9254 55.6369L77.7342 55.358C77.6888 54.8687 77.6243 54.4614 77.5407 54.136C77.4571 53.8106 77.3398 53.5438 77.189 53.3356C77.0507 53.1304 76.8677 52.9746 76.64 52.8681C76.4152 52.7489 76.1326 52.6496 75.7922 52.5699L70.8003 51.4014L68.9781 59.2121C68.8545 59.7416 68.7739 60.2014 68.736 60.5915C68.7012 60.9689 68.694 61.3129 68.7146 61.6236C68.9714 61.7768 69.2621 61.898 69.5869 61.9873C69.9118 62.0767 70.2569 62.1641 70.6225 62.2497L72.3243 62.6481L71.7066 65.2958C70.612 64.973 69.5867 64.6666 68.6308 64.3763C67.6719 64.0987 66.7197 63.8492 65.7743 63.6279C64.8162 63.4036 63.8775 63.2105 62.9581 63.0484C62.0387 62.8864 61.099 62.7263 60.1388 62.568C60.0758 62.5532 60.0064 62.537 59.9308 62.5193C59.8648 62.5172 59.8003 62.5087 59.7373 62.494L60.355 59.8463L62.0379 60.2402C62.4035 60.3258 62.7516 60.4006 63.0823 60.4647C63.413 60.5288 63.7273 60.5492 64.0252 60.5259C64.329 60.0784 64.5824 59.4197 64.7854 58.5498L68.9107 40.8669C69.1254 39.9465 69.1878 39.2231 69.0979 38.6968C68.8693 38.5369 68.6115 38.4168 68.3245 38.3363C68.0375 38.2558 67.7302 38.1772 67.4024 38.1005L65.1523 37.5738L65.6288 35.5312C67.1953 35.7118 69.087 36.0083 71.3039 36.4209C73.5335 36.8364 76.0602 37.3747 78.8839 38.0357L87.2038 39.9832C87.1374 40.9516 87.0718 41.774 87.0071 42.4503C86.9454 43.1139 86.8882 43.6723 86.8357 44.1254C86.7987 44.5688 86.7586 44.9118 86.7153 45.1543C86.6846 45.3997 86.6623 45.5807 86.6485 45.6971L83.8613 45.1644C83.9201 44.9122 83.9691 44.5314 84.0082 44.022C84.0628 43.5029 84.0554 42.9361 83.9861 42.3215C83.6172 42.0224 83.0697 41.748 82.3436 41.4982C81.6301 41.2514 80.6619 40.9849 79.4392 40.6987C79.2879 40.6633 79.0847 40.6224 78.8297 40.576C78.5902 40.5199 78.2483 40.4465 77.8042 40.3558C77.3756 40.2555 76.818 40.1383 76.1314 40.0042C75.4477 39.8574 74.5987 39.6786 73.5843 39.4678L71.3783 48.9239Z" fill="white"/>
</g>
<defs>
<clipPath id="clip0_1126_2136">
<rect width="145.779" height="137.68" fill="white"/>
</clipPath>
</defs>
</svg>
