<svg width="639" height="301" viewBox="0 0 639 301" fill="none" xmlns="http://www.w3.org/2000/svg">
<g clip-path="url(#clip0_162_16648)">
<path fill-rule="evenodd" clip-rule="evenodd" d="M260.077 214.718H319.184V234.547H286.795V248.767H313.987V268.726H286.795V298.851H260.077V214.718ZM324.207 214.718H350.939V298.851H324.207V214.718ZM448.092 255.891L476.882 298.851H507.112L476.062 252.372L502.39 214.718H472.693L448.092 252.372V214.718H421.36V298.851H448.078L448.092 255.891ZM416.423 267.226C411.039 256.785 400.055 253.252 388.813 247.916C378.607 242.854 359.835 236.379 364.039 222.967C375.397 208.993 399.149 210.795 412.982 217.761V238.484C406.504 232.312 393.462 229.125 388.079 231.649C380.68 235.586 382.796 242.753 391.98 245.753C404.403 250.973 412.81 253.627 416.451 267.226H416.423ZM358.007 244.238C360.987 254.102 374.677 259.914 386.351 265.034C396.543 270.096 415.257 276.571 411.039 289.982C398.083 305.428 373.914 301.952 357.647 295.751V273.557C366.5 281.272 380.305 283.752 385.775 281.575C387.186 281.149 388.426 280.29 389.321 279.118C390.216 277.947 390.72 276.522 390.762 275.048C390.803 273.573 390.38 272.122 389.552 270.902C388.724 269.682 387.534 268.754 386.15 268.25C371.755 263.087 360.526 257.636 358.007 244.238ZM363.074 224.049C361.462 226.399 358.468 230.091 359.591 234.057C362.239 243.921 376.663 249.185 386.682 254.059C395.895 258.386 406.13 262.164 412.925 268.639C415.07 271.091 416.523 273.066 416.898 276.326C417.13 274.183 417.13 272.022 416.898 269.879C413.025 261.544 398.688 256.641 388.539 251.708C378.463 247.137 363.261 240.474 361.577 232.153C360.991 229.367 361.507 226.461 363.017 224.049H363.074ZM412.018 288.641C413.644 286.291 416.912 280.94 415.66 278.662C412.781 268.87 398.889 263.462 388.309 258.472C378.823 254.146 368.76 250.238 361.923 243.517C359.643 241.206 358.326 238.113 358.238 234.864C357.883 237.289 357.767 239.743 357.892 242.19C360.67 250.411 376.361 256.165 386.409 260.938C396.457 265.712 411.399 271.956 413.5 280.522C413.822 281.9 413.86 283.329 413.613 284.723C413.365 286.116 412.837 287.445 412.061 288.627L412.018 288.641Z" fill="#E20E17"/>
<path d="M243.969 28.6556L140.065 28.8431C133.529 28.8431 128.923 35.3038 126.231 40.6829V40.755L84.4851 117.923L64.4614 92.8012L103.458 19.0366C105.008 16.0899 106.892 13.3317 109.072 10.8165C114.83 4.16833 117.709 1.7023 126.864 0.115966C128.892 -0.0178219 130.926 -0.0178219 132.953 0.115966H220.663L243.969 28.6556Z" fill="white"/>
<path d="M121.438 197.7L80.1379 197.095L21.5929 114.043L21.4777 113.783C19.6588 109.988 18.2497 106.009 17.2743 101.915C17.2743 101.756 17.2743 101.612 17.1736 101.453C15.5901 93.8675 19.1457 86.7867 22.2694 80.5423C22.7157 79.6626 23.1619 78.7685 23.5938 77.8888L56.4867 9.92153L93.3238 2.52344L52.3409 86.3685C49.9945 92.4543 52.3409 100.674 55.7957 104.857L55.9397 105.03L121.438 197.7Z" fill="white"/>
<path d="M208.859 205.69L192.578 234.85H74.2789C73.6599 234.85 73.0553 234.85 72.4651 234.85C68.8161 234.919 65.2004 234.145 61.8991 232.586C58.944 231.092 56.3651 228.947 54.356 226.312L0 155.62L4.31854 108.477L71.3855 201.234C75.229 205.027 76.5677 205.906 80.4976 205.921L208.859 205.69Z" fill="white"/>
<path d="M244.962 201.58L245.106 201.45L253.743 182.977L244.962 201.58Z" fill="#010101"/>
<path d="M318.737 62.4434L256.507 183.683L256.276 184.159L225.327 249.487C222.605 255.16 218.287 259.912 212.904 263.158C209.177 265.409 204.919 266.624 200.567 266.677L197.904 266.922H197.631L113.793 267.052L88.2563 244.281L191.469 243.43C192.737 243.431 193.986 243.127 195.111 242.542C196.236 241.957 197.204 241.109 197.933 240.07L218.086 200.743L166.695 97.7033L203.892 97.9196L234.281 159.556L285.369 62.4434H318.737Z" fill="white"/>
<path d="M427.536 103.904C420.842 96.5496 410.146 92.9875 394.844 92.9875H374.821C365.277 92.9875 358.583 95.468 353.401 101.265V62.4434H321.012V199.012H323.79C330.916 199.012 339.308 196.128 343.339 188.672C345.338 191.58 348.01 193.96 351.126 195.609C356.481 198.493 363.578 199.935 372.805 199.935H394.931C410.233 199.935 420.928 196.359 427.622 189.019C433.956 182.068 436.907 171.713 436.907 156.571V136.352C436.864 121.138 433.913 110.855 427.536 103.904ZM394.844 172.65H365.449C358.957 172.65 354.912 169.319 353.401 162.729V127.671C354.61 123.027 357.043 120.345 365.449 120.345H394.888C403.856 120.345 406.173 123.791 406.173 137.102V155.85C406.173 171.136 402.906 172.65 394.888 172.65H394.844Z" fill="white"/>
<path d="M559.525 156.643V130.007C559.525 104.482 545.461 91.5312 517.779 91.5312H484.166C470.937 91.5312 460.716 94.5597 453.807 100.545C446.35 106.976 442.579 116.898 442.579 130.007V160.075C442.579 173.184 446.35 183.149 453.807 189.538C460.716 195.508 470.937 198.537 484.166 198.537H553.896L557.898 171.136H484.166C476.177 171.136 473.067 168.021 473.067 160.018V156.585L559.525 156.643ZM528.849 131.319V135.3H473.067V130.007C473.067 121.787 475.947 118.888 484.166 118.888H517.736C526.142 118.888 528.849 121.902 528.849 131.319Z" fill="white"/>
<path d="M639 94.9057L634.322 124.556L630.507 121.138C627.758 118.686 624.461 117.908 616.976 117.908C610.267 117.908 601.976 119.782 600.436 128.695V198.493H569.774V91.5312H599.514V99.1456C604.812 93.6943 612.47 90.7812 621.683 90.7812C626.981 90.7875 632.22 91.8923 637.071 94.026L639 94.9057Z" fill="white"/>
<path fill-rule="evenodd" clip-rule="evenodd" d="M639 298.779V214.242L524.847 214.502L498.172 252.156L529.539 298.65L639 298.779ZM533.167 274.307V261.674L554.717 261.717C563.613 261.717 566.492 258.717 566.492 250.728V247.209C566.492 238.254 563.656 235.369 554.717 235.369H525.538V274.307H533.167ZM554.717 243.041C557.768 243.041 558.906 244.109 558.906 247.166V250.742C558.906 253.511 557.768 254.708 554.717 254.708H533.124V243.041H554.717ZM571.804 274.307V243.719H579.088V247.901C579.74 246.482 580.812 245.297 582.159 244.508C583.505 243.719 585.061 243.363 586.616 243.488C588.103 243.485 589.575 243.795 590.935 244.397L589.855 251.189C588.833 250.281 587.653 250.007 585.22 250.007C581.765 250.007 579.793 251.536 579.462 254.03V274.307H571.804ZM594.922 263.548C594.922 271.134 598.435 274.307 606.64 274.307H616.716C624.979 274.307 628.477 271.134 628.477 263.548V254.477C628.477 246.892 624.979 243.719 616.716 243.719H606.64C598.435 243.719 594.922 246.892 594.922 254.477V263.548ZM616.76 250.281C619.639 250.281 620.949 251.362 620.949 254.477V263.548C620.949 266.663 619.639 267.745 616.76 267.745H606.683C603.847 267.745 602.494 266.663 602.494 263.548V254.477C602.494 251.362 603.804 250.281 606.683 250.281H616.76Z" fill="white"/>
</g>
<defs>
<clipPath id="clip0_162_16648">
<rect width="639" height="301" fill="white"/>
</clipPath>
</defs>
</svg>
