<svg width="84" height="126" viewBox="0 0 84 126" fill="none" xmlns="http://www.w3.org/2000/svg">
<path d="M41.9974 86.3702C55.9957 86.3702 67.342 75.0905 67.342 61.1782V25.2464C67.342 17.4269 63.7589 10.4406 58.1331 5.81854C53.7511 2.2179 48.1289 0.0543213 41.9974 0.0543213C35.8658 0.0543213 30.2436 2.2179 25.8598 5.82032C20.2358 10.4406 16.6509 17.4287 16.6509 25.2482V61.1782C16.6527 75.0905 27.999 86.3702 41.9974 86.3702Z" fill="white"/>
<path d="M54.2626 90.0098L54.2624 90.0099C50.3758 91.6437 46.2525 92.472 42.0008 92.472C37.7491 92.472 33.6259 91.6437 29.7393 90.01C25.9889 88.4328 22.6226 86.1781 19.731 83.3057C16.8408 80.4312 14.5713 77.0857 12.9871 73.3597L12.9869 73.3594C11.7539 70.4625 10.977 67.4347 10.6672 64.3209L10.6671 64.3199C10.4328 61.9891 8.49227 60.1781 6.11574 60.1781H6.11038C3.44549 60.1781 1.29577 62.4526 1.55698 65.1316L1.55698 65.1317C1.95292 69.1892 2.95945 73.1361 4.56662 76.9104C6.61535 81.7226 9.54437 86.042 13.2704 89.7457C16.9965 93.4493 21.3414 96.3601 26.1814 98.3958L26.1816 98.3959C29.8184 99.9246 33.6139 100.907 37.5123 101.333V115.87H17.6086C15.1678 115.87 13.008 117.771 12.9613 120.296L12.9613 120.296C12.9153 122.83 14.9663 124.89 17.4906 124.89H66.384C68.8248 124.89 70.9846 122.989 71.0313 120.464V120.464C71.0773 117.93 69.0262 115.87 66.5019 115.87H46.5696V101.322C50.4395 100.892 54.2064 99.9122 57.8161 98.396L57.8165 98.3958C62.6565 96.3601 67.0014 93.4493 70.7275 89.7457C74.4536 86.042 77.3826 81.7226 79.4314 76.9103L79.4315 76.91C81.0365 73.1365 82.0449 69.1899 82.4409 65.1323C82.7045 62.4502 80.5517 60.1781 77.8894 60.1781H77.8858C75.5101 60.1781 73.5665 61.9884 73.3344 64.3209C73.0227 67.4353 72.2474 70.463 71.0146 73.3594C69.4284 77.0858 67.1605 80.4314 64.2706 83.3057C61.3808 86.178 58.0127 88.4344 54.2626 90.0098Z" fill="white" stroke="white" stroke-width="2"/>
</svg>
