<svg width="96" height="104" viewBox="0 0 96 104" fill="none" xmlns="http://www.w3.org/2000/svg">
<g clip-path="url(#clip0_626_74050)">
<path d="M95.6882 69.2536V34.7455C95.687 31.6761 94.8769 28.661 93.3392 26.0031C91.8015 23.3452 89.5904 21.138 86.9279 19.6031L56.9934 2.34245C54.3297 0.807861 51.3084 0 48.233 0C45.1576 0 42.1364 0.807861 39.4727 2.34245L9.53984 19.5965C6.87585 21.1314 4.6636 23.3395 3.12552 25.9988C1.58743 28.6581 0.777732 31.6747 0.777832 34.7455L0.777832 69.2536C0.778734 72.323 1.58874 75.3382 3.12646 77.9962C4.66419 80.6542 6.87548 82.8614 9.53818 84.396L39.4727 101.657C42.1364 103.191 45.1576 103.999 48.233 103.999C51.3084 103.999 54.3297 103.191 56.9934 101.657L86.9279 84.4026C89.5913 82.8672 91.8031 80.6589 93.3408 77.9997C94.8786 75.3405 95.6882 72.3241 95.6882 69.2536Z" fill="url(#paint0_radial_626_74050)"/>
<path d="M86.9296 19.5956L56.9934 2.34491C54.3303 0.809491 51.3092 0.00114059 48.2339 0.00114059C45.1586 0.00114059 42.1375 0.809491 39.4744 2.34491L9.53818 19.5956C6.87473 21.131 4.66299 23.3393 3.12524 25.9985C1.58749 28.6577 0.777901 31.6741 0.777832 34.7447L0.777832 69.256C0.779071 72.3254 1.58922 75.3405 3.12691 77.9984C4.6646 80.6564 6.8757 82.8636 9.53818 84.3984L39.4744 101.656C42.1375 103.191 45.1586 104 48.2339 104C51.3092 104 54.3303 103.191 56.9934 101.656L86.9296 84.4051C89.592 82.8702 91.8031 80.663 93.3408 78.0051C94.8785 75.3471 95.6887 72.3321 95.6899 69.2627V34.7447C95.6898 31.6741 94.8802 28.6577 93.3425 25.9985C91.8047 23.3393 89.593 21.131 86.9296 19.5956ZM93.3031 68.2243C93.3033 71.294 92.4937 74.3096 90.9559 76.9678C89.418 79.6259 87.2062 81.8329 84.5428 83.3667L62.4086 96.1246C59.7455 97.66 56.7244 98.4684 53.6491 98.4684C50.5738 98.4684 47.5527 97.66 44.8896 96.1246L22.7554 83.3667C20.0928 81.832 17.8816 79.6248 16.3439 76.9669C14.8062 74.3089 13.9961 71.2938 13.995 68.2243V38.3023C13.995 33.7296 16.8285 30.8559 20.917 28.6511L46.933 13.8914C51.1632 11.5485 56.99 11.6766 62.4086 14.8099L84.5428 27.5728C87.2068 29.106 89.4191 31.3128 90.957 33.9711C92.4949 36.6294 93.3041 39.6454 93.3031 42.7152V68.2243Z" fill="#F6A931"/>
<path d="M48.233 8.74099C49.7712 8.73931 51.2828 9.14098 52.6165 9.90579L82.5494 27.1681C83.8803 27.9378 84.9857 29.0428 85.7549 30.3725C86.5241 31.7023 86.9303 33.2104 86.9329 34.746V69.254C86.9303 70.7896 86.5241 72.2977 85.7549 73.6274C84.9857 74.9572 83.8803 76.0622 82.5494 76.8319L52.6132 94.0859C51.2809 94.8544 49.7693 95.2591 48.2305 95.2591C46.6918 95.2591 45.1802 94.8544 43.8479 94.0859L13.9167 76.8319C12.5859 76.0621 11.4808 74.9571 10.7119 73.6273C9.94294 72.2975 9.53707 70.7895 9.53484 69.254V34.746C9.53707 33.2105 9.94294 31.7025 10.7119 30.3727C11.4808 29.0429 12.5859 27.9379 13.9167 27.1681L43.8512 9.91411C45.1843 9.14915 46.6954 8.74746 48.233 8.74931V8.74099ZM48.233 1.14776e-06C45.1575 -0.000641221 42.136 0.807433 39.4727 2.34291L9.53984 19.5969C6.87585 21.1319 4.6636 23.34 3.12552 25.9993C1.58743 28.6585 0.777732 31.6752 0.777832 34.746L0.777832 69.254C0.778734 72.3235 1.58874 75.3387 3.12646 77.9967C4.66419 80.6547 6.87548 82.8618 9.53818 84.3964L39.4727 101.657C42.1363 103.192 45.1576 104 48.233 104C51.3085 104 54.3298 103.192 56.9934 101.657L86.9279 84.4031C89.5904 82.8682 91.8015 80.661 93.3392 78.0031C94.8769 75.3451 95.687 72.3301 95.6882 69.2607V34.746C95.687 31.6766 94.8769 28.6615 93.3392 26.0036C91.8015 23.3457 89.5904 21.1384 86.9279 19.6036L56.9934 2.34291C54.3302 0.806994 51.3086 -0.00111167 48.233 1.14776e-06Z" fill="#FDBB1E"/>
<path d="M84.3294 79.8587L74.829 85.2833C68.1187 88.9891 59.7467 93.8529 52.9748 97.2841C51.2873 97.9794 49.4593 98.2677 47.6393 98.1257C45.8192 97.9838 44.0583 97.4155 42.4994 96.4671C36.318 92.5999 30.1756 88.6618 24.072 84.6527C20.2685 82.0835 16.3717 79.639 12.6765 76.9034C10.4748 75.0597 9.23974 72.0262 9.55475 69.249C9.55733 70.7863 9.96419 72.296 10.7346 73.627C11.5051 74.958 12.6121 76.0637 13.9449 76.8335L43.8794 94.0859C45.2125 94.8523 46.7238 95.2557 48.2621 95.2557C49.8004 95.2557 51.3117 94.8523 52.6448 94.0859L82.5826 76.8335C83.9128 76.0631 85.0175 74.958 85.7863 73.6283C86.5552 72.2987 86.9614 70.791 86.9645 69.2557V34.7443C86.9614 33.209 86.5552 31.7013 85.7863 30.3717C85.0175 29.042 83.9128 27.9369 82.5826 27.1665L52.6465 9.91411C63.0869 14.5866 73.2656 19.7051 83.4177 24.9317C84.964 25.6919 86.314 26.7977 87.3628 28.1632C88.8208 30.0549 89.6422 32.3584 89.7096 34.7443C89.8363 38.3852 89.9546 42.026 90.0429 45.6618C90.2579 53.3944 90.3579 61.137 90.4279 68.8613C90.5896 73.2942 88.1945 77.6472 84.3294 79.8587Z" fill="#FFDC48"/>
<path d="M95.6899 34.7448C95.2316 28.826 91.8464 23.4629 86.6762 20.709C86.0095 20.3163 83.7528 19.2114 83.0094 18.8137C74.0641 14.1711 65.0087 9.31558 56.175 4.46335C51.2665 1.59295 44.9012 1.80095 40.1744 4.88435C33.3408 8.91289 23.162 14.7918 16.2368 18.7388C14.7701 19.6124 10.6682 21.7723 9.33317 22.764C5.42802 25.5662 3.06292 30.2853 3.05959 35.0776C2.83291 45.1598 2.51623 55.4117 2.07122 65.4706C2.03955 66.9299 1.79454 69.4259 1.89121 70.8869C2.13122 76.2749 5.008 81.2836 9.53984 84.4002C6.87657 82.8653 4.66482 80.6577 3.1268 77.9991C1.58877 75.3405 0.778655 72.3247 0.777832 69.2545L0.777832 34.7448C0.778902 31.6754 1.58898 28.6602 3.12668 26.0023C4.66439 23.3443 6.87559 21.1372 9.53818 19.6024L39.4744 2.34508C42.138 0.810167 45.1592 0.00211716 48.2347 0.00211716C51.3102 0.00211716 54.3315 0.810167 56.9951 2.34508L86.9312 19.5958C89.5944 21.1314 91.8058 23.3398 93.3432 25.9989C94.8807 28.6581 95.69 31.6744 95.6899 34.7448Z" fill="#FFDC48"/>
<path d="M22.0737 45.4168C22.0016 45.5573 21.981 45.7186 22.0154 45.8727C22.2354 46.956 22.8354 47.9194 23.3621 48.8795C25.2721 52.1743 27.4406 55.3159 29.6223 58.4376C32.5241 62.4944 35.3659 66.7043 38.636 70.455C38.692 70.5164 38.754 70.5721 38.821 70.6214C38.7729 70.5809 38.721 70.5453 38.666 70.5149C38.5809 70.4661 38.4902 70.4275 38.396 70.4001L38.5343 70.4134C43.1145 70.7645 47.8414 70.5482 52.4432 70.425C54.2583 70.3318 56.04 70.3069 57.8084 70.039L57.9201 70.0173H57.9768C57.8972 70.0399 57.8193 70.0677 57.7434 70.1005C57.6154 70.1558 57.4955 70.228 57.3868 70.3152C60.6902 66.2267 63.5187 61.6008 66.3638 57.1596C67.7088 55.028 69.0105 52.8665 70.2289 50.6983C71.0923 49.1175 72.0623 47.4552 72.5423 45.8045C72.5572 46.0106 72.6149 46.2113 72.7119 46.3938C72.809 46.5763 72.9431 46.7366 73.1057 46.8644C73.1963 46.9382 73.2997 46.9946 73.4107 47.0308C73.549 47.0758 73.5524 47.0608 73.5274 47.0575C72.5557 47.0575 71.5056 47.4302 70.5273 47.7231C69.3606 48.0908 68.1938 48.5234 67.0055 48.9677C64.752 49.7997 61.9653 50.9462 59.6268 51.5602C57.7801 52.0445 56.6151 51.908 55.735 50.0161C54.315 47.0957 52.5766 41.2634 51.4932 38.1601C50.8732 36.3613 50.2648 34.5542 49.4248 32.8502C49.1181 32.3377 48.8581 31.6455 48.2381 31.4674C49.7381 31.6338 51.8515 36.333 52.6132 37.6908C53.7699 39.9838 54.81 42.325 55.9117 44.613C56.6967 46.1689 57.3701 47.9111 58.4118 49.2473C58.4201 49.2473 58.4251 49.2473 58.3335 49.1757C58.2398 49.1143 58.1359 49.0698 58.0268 49.0443C59.2552 48.7115 60.8402 48.0009 62.2103 47.3803C64.3004 46.4434 67.1655 45.069 69.3089 44.2603C71.194 43.6346 73.6157 42.4898 75.5125 43.8093C76.2308 44.3268 76.5558 45.3402 76.4508 46.1822C76.4234 46.4355 76.3822 46.6871 76.3275 46.936C75.7725 49.0559 74.8124 50.7981 73.8824 52.6651C71.449 57.2827 68.7405 61.6358 65.8987 65.9405C64.1137 68.4981 62.5136 71.1106 60.3419 73.4202C60.0134 73.7431 59.6139 73.9847 59.1752 74.1258C58.7962 74.2157 58.4122 74.2824 58.0251 74.3254C56.205 74.5135 54.3466 74.5517 52.5466 74.5667C48.6514 74.5867 44.8013 74.5068 40.9144 74.2156C39.7477 74.1075 38.6393 74.0409 37.4393 73.738C37.0053 73.5979 36.6179 73.3418 36.3193 72.9976C35.7921 72.4026 35.3043 71.7739 34.8592 71.1156C33.7475 69.5148 32.7008 67.8824 31.6924 66.2284C28.9923 61.8576 26.5276 57.3462 24.3088 52.7134C23.5087 50.9562 22.6954 49.1907 22.172 47.3254C22.0387 46.7263 21.7503 45.9942 22.0887 45.4234L22.0737 45.4168Z" fill="#F4A025"/>
<path d="M74.394 45.4267C72.8373 43.5697 59.3568 51.1393 57.6483 50.3572C55.9399 49.5751 50.5014 31.4674 48.2346 31.4674C45.9679 31.4674 40.5277 49.5768 38.8193 50.3572C37.1109 51.1376 23.632 43.5614 22.0736 45.4267C20.5152 47.2921 36.5425 71.6747 37.8826 72.069C40.0593 72.7097 56.4083 72.7097 58.585 72.069C59.9251 71.6664 75.9474 47.2738 74.394 45.4267Z" fill="#FFDA57"/>
<path d="M45.4362 60.0333C44.3361 58.965 43.8978 57.0947 44.5928 55.6453C45.4862 53.7118 48.1213 52.3972 50.033 53.6835C50.4621 53.9655 50.8313 54.3291 51.1197 54.7534C49.5063 53.5204 47.5746 53.572 46.1512 54.9797C44.6761 56.2444 44.6278 58.3077 45.4362 60.0333Z" fill="#F4A025"/>
<path d="M51.1132 54.7539C52.9267 56.1001 52.48 58.9988 50.9649 60.4348C49.7982 61.5597 47.8881 62.0572 46.4497 61.1886C46.0018 60.914 45.6466 60.5118 45.4297 60.0338C48.6515 63.054 53.365 58.1635 51.1132 54.7539Z" fill="white"/>
<path d="M58.585 72.0595C56.4099 72.7002 40.0576 72.7002 37.8825 72.0595C37.3742 71.9098 34.7524 68.3039 31.7756 63.7845C48.713 67.194 63.8902 61.5863 69.8671 46.0029C72.0989 45.2125 73.8856 44.8132 74.394 45.4189C75.9474 47.2726 59.9251 71.6635 58.585 72.0595Z" fill="#F9B23E"/>
<path d="M55.7083 46.925C46.5412 53.531 35.7408 55.2732 24.937 52.6258C22.8836 48.9317 21.5752 46.0197 22.0736 45.4274C23.632 43.5703 37.1125 51.1415 38.8193 50.3595C40.526 49.5774 45.9679 31.4664 48.2363 31.4664C49.9164 31.4581 53.3532 41.4587 55.7083 46.925Z" fill="#FFEB88"/>
<path d="M48.2347 31.4596C47.8313 31.5528 47.608 31.9405 47.4013 32.2633C46.7846 33.3 46.3563 34.4398 45.9196 35.5663C45.3346 37.0739 44.8045 38.6081 44.2529 40.1357C43.1411 43.2024 42.0861 46.2525 40.6344 49.2877C40.331 49.8435 39.9994 50.5257 39.4543 50.965C39.1771 51.1627 38.8433 51.266 38.5026 51.2595C37.4359 51.2063 36.5159 50.8236 35.5625 50.4725C32.4941 49.2544 29.6123 47.7684 26.6122 46.4622C25.5054 45.988 24.3921 45.4904 23.2087 45.2658C22.827 45.2076 22.3953 45.1526 22.0703 45.4172C22.2014 45.2481 22.3878 45.1303 22.597 45.0844C24.0421 44.8065 25.5138 45.3124 26.9022 45.6518C30.0406 46.5537 33.0691 47.85 36.1242 48.9216C36.8926 49.1995 37.9726 49.5273 38.4776 49.5572C38.4482 49.5684 38.4203 49.5829 38.3943 49.6005C38.3943 49.6005 38.3943 49.6005 38.4093 49.5805C38.4287 49.5626 38.4461 49.5425 38.461 49.5206C39.5277 47.8766 40.2094 45.9447 41.0261 44.106C42.3144 41.1108 43.5795 38.0906 45.1346 35.2069C45.7429 34.1303 46.3529 33.0321 47.1846 32.1019C47.468 31.8173 47.7997 31.4513 48.2313 31.4579L48.2347 31.4596Z" fill="white"/>
</g>
<defs>
<radialGradient id="paint0_radial_626_74050" cx="0" cy="0" r="1" gradientUnits="userSpaceOnUse" gradientTransform="translate(48.233 51.9995) scale(49.8236 49.742)">
<stop stop-color="#FFDA57"/>
<stop offset="1" stop-color="#F9B23E"/>
</radialGradient>
<clipPath id="clip0_626_74050">
<rect width="94.9121" height="104" fill="white" transform="translate(0.777832)"/>
</clipPath>
</defs>
</svg>
