<svg width="62" height="59" viewBox="0 0 62 59" fill="none" xmlns="http://www.w3.org/2000/svg">
<path d="M61.535 29.4615C61.535 45.2291 48.7836 58.0121 33.055 58.0121H28.48V0.910889H33.055C48.7836 0.910889 61.535 13.6929 61.535 29.4615Z" fill="#F9B23E"/>
<path d="M33.055 0.910889H31.3998C47.1285 0.910889 59.8799 13.6929 59.8799 29.4615C59.8799 45.2301 47.1266 58.0121 31.3998 58.0121H33.0569C48.7856 58.0121 61.537 45.2291 61.537 29.4615C61.537 13.6939 48.7837 0.910889 33.055 0.910889Z" fill="#F4A025"/>
<path d="M28.48 58.0121C44.2091 58.0121 56.96 45.2296 56.96 29.4615C56.96 13.6934 44.2091 0.910889 28.48 0.910889C12.7509 0.910889 0 13.6934 0 29.4615C0 45.2296 12.7509 58.0121 28.48 58.0121Z" fill="#FFDA57"/>
<path d="M28.1396 29.8957L33.9449 29.8018C34.2055 29.7976 34.4462 29.7741 34.6671 29.7314C34.888 29.6888 35.0949 29.5942 35.2879 29.4477C35.481 29.3012 35.6534 29.0899 35.8051 28.8137C35.9699 28.5373 36.1199 28.1569 36.255 27.6724L37.2715 27.656C37.2915 28.8418 37.2921 30.0344 37.2733 31.2339C37.2543 32.4203 37.2146 33.5419 37.1543 34.5986L35.9229 34.6186C35.7586 34.152 35.5957 33.7701 35.4342 33.4729C35.2728 33.1757 35.0929 32.944 34.8946 32.7778C34.7093 32.6113 34.4924 32.5041 34.2439 32.4559C33.9952 32.3948 33.695 32.3671 33.3432 32.3728L28.1829 32.4562L28.3195 40.5287C28.3287 41.076 28.3627 41.5447 28.4215 41.9348C28.48 42.3118 28.5574 42.6495 28.6537 42.9477C28.9419 43.0343 29.2555 43.0814 29.5945 43.0889C29.9336 43.0965 30.292 43.0972 30.6699 43.0911L32.4291 43.0626L32.4754 45.7991C31.3276 45.7525 30.2514 45.7047 29.2469 45.6558C28.2427 45.6199 27.2519 45.6098 26.2746 45.6256C25.2842 45.6417 24.3204 45.6833 23.383 45.7506C22.4457 45.8179 21.4889 45.892 20.5127 45.973C20.4475 45.974 20.3759 45.9752 20.2977 45.9765C20.2327 45.9905 20.1677 45.9981 20.1025 45.9992L20.0562 43.2627L21.7959 43.2346C22.1738 43.2285 22.532 43.2162 22.8706 43.1976C23.2092 43.1791 23.521 43.122 23.8062 43.0261C23.993 42.5147 24.0789 41.8095 24.0637 40.9104L23.7545 22.6348C23.7384 21.6835 23.6219 20.962 23.4051 20.4702C23.1427 20.3702 22.8615 20.3161 22.5616 20.3079C22.2617 20.2997 21.9423 20.2983 21.6035 20.3038L19.2775 20.3414L19.2418 18.2305C20.8154 18.0225 22.735 17.8481 25.0007 17.7072C27.2793 17.5661 29.8781 17.4719 32.797 17.4247L41.3974 17.2856C41.5701 18.2474 41.7078 19.0663 41.8104 19.7424C41.9129 20.4055 41.9941 20.9647 42.0539 21.4199C42.1265 21.8619 42.1715 22.2066 42.1887 22.454C42.2189 22.7011 42.2416 22.8833 42.2566 23.0003L39.4048 23.1638C39.4004 22.9031 39.3548 22.5194 39.268 22.0124C39.194 21.4923 39.0479 20.9407 38.8294 20.3576C38.3959 20.1561 37.7941 20.0225 37.0239 19.9567C36.2668 19.8907 35.2562 19.868 33.9922 19.8884C33.8359 19.891 33.6275 19.9008 33.3671 19.9181C33.1195 19.9221 32.7678 19.9343 32.3119 19.9547C31.8689 19.9619 31.2957 19.9842 30.5925 20.0216C29.889 20.046 29.0163 20.0797 27.9743 20.1226L28.1396 29.8957Z" fill="#F4A025"/>
<path d="M27.514 28.6446L33.3193 28.5507C33.5799 28.5465 33.8207 28.523 34.0415 28.4804C34.2624 28.4377 34.4694 28.3431 34.6624 28.1966C34.8554 28.0501 35.0278 27.8388 35.1796 27.5626C35.3443 27.2862 35.4943 26.9058 35.6295 26.4213L36.6459 26.4049C36.666 27.5907 36.6666 28.7833 36.6478 29.9828C36.6287 31.1692 36.5891 32.2908 36.5287 33.3475L35.2973 33.3675C35.133 32.9009 34.9701 32.519 34.8087 32.2218C34.6473 31.9246 34.4674 31.6929 34.269 31.5267C34.0837 31.3602 33.8669 31.253 33.6184 31.2048C33.3697 31.1437 33.0694 31.116 32.7176 31.1217L27.5574 31.2051L27.6939 39.2776C27.7032 39.8249 27.7372 40.2936 27.7959 40.6837C27.8544 41.0607 27.9318 41.3984 28.0281 41.6966C28.3163 41.7832 28.63 41.8303 28.969 41.8378C29.308 41.8454 29.6665 41.8461 30.0444 41.84L31.8035 41.8115L31.8498 44.548C30.702 44.5014 29.6259 44.4536 28.6214 44.4047C27.6171 44.3688 26.6263 44.3587 25.649 44.3745C24.6587 44.3906 23.6948 44.4322 22.7575 44.4995C21.8201 44.5668 20.8633 44.6409 19.8871 44.7219C19.822 44.7229 19.7503 44.7241 19.6721 44.7254C19.6072 44.7394 19.5421 44.747 19.477 44.7481L19.4307 42.0116L21.1703 41.9835C21.5482 41.9774 21.9065 41.9651 22.245 41.9465C22.5836 41.928 22.8955 41.8709 23.1806 41.775C23.3675 41.2636 23.4533 40.5584 23.4381 39.6593L23.129 21.3837C23.1129 20.4324 22.9964 19.7109 22.7795 19.2191C22.5171 19.1191 22.236 19.065 21.936 19.0568C21.6361 19.0486 21.3167 19.0472 20.9779 19.0527L18.6519 19.0903L18.6162 16.9794C20.1899 16.7714 22.1095 16.597 24.3751 16.4561C26.6538 16.315 29.2525 16.2208 32.1715 16.1736L40.7719 16.0345C40.9445 16.9963 41.0822 17.8152 41.1849 18.4914C41.2874 19.1544 41.3685 19.7136 41.4283 20.1688C41.501 20.6108 41.5459 20.9555 41.5631 21.2029C41.5934 21.45 41.616 21.6322 41.631 21.7492L38.7793 21.9127C38.7749 21.652 38.7293 21.2683 38.6425 20.7613C38.5685 20.2412 38.4223 19.6896 38.2039 19.1065C37.7703 18.905 37.1685 18.7714 36.3984 18.7056C35.6412 18.6396 34.6307 18.6169 33.3667 18.6373C33.2103 18.6399 33.0019 18.6497 32.7415 18.667C32.4939 18.671 32.1422 18.6832 31.6864 18.7036C31.2433 18.7108 30.6702 18.7331 29.9669 18.7705C29.2635 18.7949 28.3908 18.8286 27.3487 18.8715L27.514 28.6446Z" fill="#F9B23E"/>
<path d="M27.514 28.6446L33.3193 28.5507C33.5799 28.5465 33.8207 28.523 34.0415 28.4804C34.2624 28.4377 34.4694 28.3431 34.6624 28.1966C34.8554 28.0501 35.0278 27.8388 35.1796 27.5626C35.3443 27.2862 35.4943 26.9058 35.6295 26.4213L36.6459 26.4049C36.666 27.5907 36.6666 28.7833 36.6478 29.9828C36.6287 31.1692 36.5891 32.2908 36.5287 33.3475L35.2973 33.3675C35.133 32.9009 34.9701 32.519 34.8087 32.2218C34.6473 31.9246 34.4674 31.6929 34.269 31.5267C34.0837 31.3602 33.8669 31.253 33.6184 31.2048C33.3697 31.1437 33.0694 31.116 32.7176 31.1217L27.5574 31.2051L27.6939 39.2776C27.7032 39.8249 27.7372 40.2936 27.7959 40.6837C27.8544 41.0607 27.9318 41.3984 28.0281 41.6966C28.3163 41.7832 28.63 41.8303 28.969 41.8378C29.308 41.8454 29.6665 41.8461 30.0444 41.84L31.8035 41.8115L31.8498 44.548C30.702 44.5014 29.6259 44.4536 28.6214 44.4047C27.6171 44.3688 26.6263 44.3587 25.649 44.3745C24.6587 44.3906 23.6948 44.4322 22.7575 44.4995C21.8201 44.5668 20.8633 44.6409 19.8871 44.7219C19.822 44.7229 19.7503 44.7241 19.6721 44.7254C19.6072 44.7394 19.5421 44.747 19.477 44.7481L19.4307 42.0116L21.1703 41.9835C21.5482 41.9774 21.9065 41.9651 22.245 41.9465C22.5836 41.928 22.8955 41.8709 23.1806 41.775C23.3675 41.2636 23.4533 40.5584 23.4381 39.6593L23.129 21.3837C23.1129 20.4324 22.9964 19.7109 22.7795 19.2191C22.5171 19.1191 22.236 19.065 21.936 19.0568C21.6361 19.0486 21.3167 19.0472 20.9779 19.0527L18.6519 19.0903L18.6162 16.9794C20.1899 16.7714 22.1095 16.597 24.3751 16.4561C26.6538 16.315 29.2525 16.2208 32.1715 16.1736L40.7719 16.0345C40.9445 16.9963 41.0822 17.8152 41.1849 18.4914C41.2874 19.1544 41.3685 19.7136 41.4283 20.1688C41.501 20.6108 41.5459 20.9555 41.5631 21.2029C41.5934 21.45 41.616 21.6322 41.631 21.7492L38.7793 21.9127C38.7749 21.652 38.7293 21.2683 38.6425 20.7613C38.5685 20.2412 38.4223 19.6896 38.2039 19.1065C37.7703 18.905 37.1685 18.7714 36.3984 18.7056C35.6412 18.6396 34.6307 18.6169 33.3667 18.6373C33.2103 18.6399 33.0019 18.6497 32.7415 18.667C32.4939 18.671 32.1422 18.6832 31.6864 18.7036C31.2433 18.7108 30.6702 18.7331 29.9669 18.7705C29.2635 18.7949 28.3908 18.8286 27.3487 18.8715L27.514 28.6446Z" fill="#F9B23E"/>
<path d="M4.30223 29.4611C4.30223 15.5131 15.3735 4.17726 29.1923 3.80011C28.9549 3.79307 28.7166 3.78955 28.4772 3.78955C14.3272 3.78955 2.87201 15.2712 2.87201 29.4611C2.87201 43.651 14.3253 55.1327 28.4801 55.1327C28.7194 55.1327 28.9578 55.1292 29.1952 55.1221C15.3994 54.745 4.30223 43.4341 4.30223 29.4611Z" fill="#F9B23E"/>
<path d="M52.6579 29.4611C52.6579 15.5131 41.5866 4.17726 27.7678 3.80011C28.0052 3.79307 28.2436 3.78955 28.4829 3.78955C42.6358 3.78955 54.091 15.2712 54.091 29.4611C54.091 43.651 42.6377 55.1327 28.4829 55.1327C28.2436 55.1327 28.0052 55.1292 27.7678 55.1221C41.5608 54.745 52.6579 43.4341 52.6579 29.4611Z" fill="#FFEB88"/>
</svg>
