<svg width="34" height="77" viewBox="0 0 34 77" fill="none" xmlns="http://www.w3.org/2000/svg">
<path d="M26.4439 31.3955V28.8955H23.9439H9.56313H5.4541H2.9541V31.3955V36.6895V39.1895H5.4541H7.06313V58.7597H5.4541H2.9541V61.2597V71.0124V73.5124H5.4541H9.56313H23.9439H28.0529H30.5529V71.0124V61.2597V58.7597H28.0529H26.4439V36.6895V31.3955Z" fill="white" stroke="#006B9B" stroke-width="5"/>
<path d="M5.69238 12.6364L5.69238 12.6374C5.69461 18.3059 10.4117 22.7712 16.0682 22.7712C21.724 22.7712 26.4439 18.3062 26.4439 12.6348C26.4439 6.96495 21.7257 2.5 16.0682 2.5C10.4123 2.5 5.69238 6.96495 5.69238 12.6364Z" fill="white" stroke="#006B9B" stroke-width="5"/>
</svg>
