<svg width="467" height="220" viewBox="0 0 467 220" fill="none" xmlns="http://www.w3.org/2000/svg">
<g clip-path="url(#clip0_865_18346)">
<path fill-rule="evenodd" clip-rule="evenodd" d="M190.072 156.936H233.268V171.429H209.598V181.822H229.471V196.41H209.598V218.429H190.072V156.936ZM236.94 156.936H256.476V218.429H236.94V156.936ZM327.479 187.029L348.519 218.429H370.612L347.92 184.457L367.161 156.936H345.458L327.479 184.457V156.936H307.942V218.429H327.468L327.479 187.029ZM304.334 195.314C300.399 187.683 292.372 185.1 284.156 181.2C276.697 177.501 262.978 172.768 266.05 162.965C274.351 152.752 291.709 154.069 301.819 159.16V174.307C297.085 169.796 287.554 167.466 283.619 169.311C278.212 172.188 279.758 177.427 286.47 179.619C295.549 183.435 301.693 185.374 304.355 195.314H304.334ZM261.642 178.513C263.82 185.722 273.825 189.97 282.357 193.712C289.805 197.412 303.482 202.144 300.399 211.947C290.931 223.236 273.267 220.695 261.379 216.163V199.941C267.849 205.58 277.938 207.393 281.936 205.802C282.966 205.491 283.873 204.863 284.527 204.006C285.181 203.15 285.55 202.109 285.58 201.031C285.61 199.953 285.301 198.893 284.696 198.001C284.091 197.109 283.221 196.431 282.209 196.062C271.689 192.289 263.483 188.305 261.642 178.513ZM265.345 163.756C264.167 165.474 261.979 168.172 262.799 171.071C264.735 178.281 275.276 182.128 282.599 185.691C289.332 188.853 296.812 191.614 301.777 196.347C303.345 198.139 304.407 199.583 304.681 201.965C304.85 200.399 304.85 198.819 304.681 197.253C301.851 191.161 291.373 187.577 283.956 183.972C276.591 180.631 265.482 175.761 264.251 169.68C263.822 167.643 264.2 165.519 265.303 163.756H265.345ZM301.114 210.967C302.303 209.248 304.691 205.338 303.776 203.673C301.672 196.516 291.52 192.563 283.787 188.916C276.854 185.754 269.501 182.897 264.504 177.986C262.837 176.296 261.875 174.035 261.81 171.661C261.551 173.433 261.466 175.227 261.558 177.016C263.588 183.024 275.055 187.23 282.399 190.718C289.742 194.207 300.662 198.771 302.198 205.032C302.433 206.04 302.461 207.084 302.28 208.103C302.099 209.121 301.713 210.092 301.146 210.956L301.114 210.967Z" fill="#E20E17"/>
<path d="M178.3 20.9446L102.363 21.0816C97.5872 21.0816 94.2207 25.8037 92.2533 29.7353V29.788L61.7442 86.1899L47.1104 67.8284L75.6101 13.9141C76.7431 11.7603 78.1198 9.74439 79.713 7.90606C83.9212 3.04692 86.0253 1.24451 92.7162 0.0850574C94.198 -0.0127275 95.6846 -0.0127275 97.1664 0.0850574H161.267L178.3 20.9446Z" fill="#2C4485"/>
<path d="M88.7499 144.498L58.5669 144.055L15.7804 83.353L15.6963 83.1632C14.367 80.3895 13.3372 77.4814 12.6243 74.4884C12.6243 74.3725 12.6243 74.2671 12.5507 74.1512C11.3934 68.6069 13.992 63.4315 16.2749 58.8675C16.601 58.2245 16.9272 57.571 17.2428 56.9281L41.2819 7.25099L68.2035 1.84375L38.252 63.1259C36.5372 67.5739 38.252 73.582 40.7769 76.6387L40.8821 76.7652L88.7499 144.498Z" fill="#2C4485"/>
<path d="M152.64 150.338L140.742 171.651H54.2852C53.8328 171.651 53.391 171.651 52.9596 171.651C50.2929 171.702 47.6503 171.136 45.2377 169.996C43.078 168.905 41.1933 167.337 39.725 165.411L0 113.742L3.15612 79.2852L52.1706 147.081C54.9795 149.853 55.9579 150.496 58.83 150.507L152.64 150.338Z" fill="#2C4485"/>
<path d="M179.025 147.333L179.131 147.239L185.443 133.736L179.025 147.333Z" fill="#010101"/>
<path d="M232.942 45.6406L187.463 134.254L187.294 134.602L164.676 182.35C162.687 186.497 159.531 189.97 155.597 192.342C152.873 193.988 149.761 194.875 146.581 194.914L144.634 195.093H144.434L83.1637 195.188L64.5005 178.545L139.932 177.923C140.858 177.924 141.771 177.701 142.593 177.274C143.416 176.846 144.123 176.227 144.655 175.467L159.384 146.723L121.826 71.412L149.011 71.5701L171.219 116.62L208.556 45.6406H232.942Z" fill="#2C4485"/>
<path d="M312.455 75.9444C307.563 70.5688 299.747 67.9653 288.564 67.9653H273.93C266.955 67.9653 262.063 69.7782 258.275 74.0155V45.6406H234.604V145.459H236.635C241.843 145.459 247.976 143.35 250.922 137.901C252.383 140.026 254.336 141.766 256.613 142.971C260.527 145.079 265.713 146.133 272.457 146.133H288.627C299.81 146.133 307.626 143.519 312.518 138.154C317.147 133.074 319.304 125.506 319.304 114.438V99.6604C319.273 88.5402 317.116 81.0249 312.455 75.9444ZM288.564 126.191H267.081C262.336 126.191 259.38 123.756 258.275 118.939V93.315C259.159 89.921 260.937 87.9605 267.081 87.9605H288.595C295.149 87.9605 296.843 90.4796 296.843 100.208V113.911C296.843 125.084 294.455 126.191 288.595 126.191H288.564Z" fill="#2C4485"/>
<path d="M408.917 114.49V95.0223C408.917 76.3657 398.638 66.9004 378.408 66.9004H353.843C344.174 66.9004 336.705 69.1139 331.655 73.4882C326.206 78.1892 323.449 85.441 323.449 95.0223V116.999C323.449 126.58 326.206 133.864 331.655 138.533C336.705 142.897 344.174 145.11 353.843 145.11H404.803L407.728 125.084H353.843C348.004 125.084 345.731 122.807 345.731 116.957V114.448L408.917 114.49ZM386.498 95.9815V98.8906H345.731V95.0223C345.731 89.0142 347.835 86.8956 353.843 86.8956H378.376C384.52 86.8956 386.498 89.0985 386.498 95.9815Z" fill="#2C4485"/>
<path d="M467 69.3661L463.581 91.0373L460.793 88.5392C458.783 86.7473 456.374 86.1781 450.904 86.1781C446.001 86.1781 439.941 87.5484 438.816 94.0624V145.078H416.407V66.8997H438.142V72.465C442.014 68.4807 447.611 66.3516 454.344 66.3516C458.216 66.3562 462.045 67.1636 465.59 68.7232L467 69.3661Z" fill="#2C4485"/>
<path d="M467 156.588V218.376L387.003 218.281L364.079 184.299L383.573 156.778L467 156.588Z" fill="#2C4485"/>
<path d="M389.654 191.257V200.49H384.078V172.031H405.403C411.936 172.031 414.009 174.139 414.009 180.685V183.257C414.009 189.096 411.905 191.289 405.403 191.289L389.654 191.257ZM408.464 180.653C408.464 178.419 407.633 177.639 405.403 177.639H389.622V186.166H405.403C407.633 186.166 408.464 185.291 408.464 183.267V180.653Z" fill="white"/>
<path d="M417.891 200.49V178.134H423.214V181.191C423.691 180.153 424.474 179.287 425.458 178.711C426.443 178.134 427.58 177.874 428.716 177.965C429.803 177.963 430.878 178.189 431.872 178.629L431.083 183.594C430.336 182.93 429.474 182.73 427.696 182.73C425.171 182.73 423.729 183.847 423.487 185.67V200.49H417.891Z" fill="white"/>
<path d="M443.35 200.489C437.354 200.489 434.787 198.17 434.787 192.626V185.996C434.787 180.452 437.354 178.133 443.35 178.133H450.715C456.753 178.133 459.31 180.452 459.31 185.996V192.626C459.31 198.17 456.753 200.489 450.715 200.489H443.35ZM453.807 185.996C453.807 183.719 452.85 182.929 450.746 182.929H443.382C441.278 182.929 440.32 183.719 440.32 185.996V192.626C440.32 194.903 441.309 195.693 443.382 195.693H450.746C452.85 195.693 453.807 194.903 453.807 192.626V185.996Z" fill="white"/>
</g>
<defs>
<clipPath id="clip0_865_18346">
<rect width="467" height="220" fill="white"/>
</clipPath>
</defs>
</svg>
